<svg width="213" height="190" viewBox="0 0 213 190" fill="none" xmlns="http://www.w3.org/2000/svg">
<path d="M190.194 166.147C191.472 165.209 192.71 164.231 193.909 163.212C195.137 162.195 196.321 161.145 197.46 160.076C198.972 158.661 200.403 157.208 201.754 155.717H23.8515C24.9609 156.945 26.128 158.145 27.353 159.317C46.1382 177.439 77.4039 189.293 112.805 189.293C142.496 189.293 169.265 180.95 188.233 167.567L188.852 167.131L190.194 166.147Z" fill="#BFBFBF"/>
<path d="M15.6401 155.717H201.754H209.831" stroke="#263238" stroke-linecap="round" stroke-linejoin="round"/>
<path d="M147.934 175.231H150.257" stroke="#263238" stroke-linecap="round" stroke-linejoin="round"/>
<path d="M144.63 175.231H146.814" stroke="#263238" stroke-linecap="round" stroke-linejoin="round"/>
<path d="M124.037 175.231H142.313" stroke="#263238" stroke-linecap="round" stroke-linejoin="round"/>
<path d="M180.611 164.679H182.795" stroke="#263238" stroke-linecap="round" stroke-linejoin="round"/>
<path d="M160.018 164.679H178.293" stroke="#263238" stroke-linecap="round" stroke-linejoin="round"/>
<path d="M58.4255 168.148H60.6096" stroke="#263238" stroke-linecap="round" stroke-linejoin="round"/>
<path d="M37.8326 168.148H56.1077" stroke="#263238" stroke-linecap="round" stroke-linejoin="round"/>
<path d="M124.488 0.69767V43.1099L191.264 43.1099V0.69767L124.488 0.69767Z" stroke="#999999" stroke-linecap="round" stroke-linejoin="round"/>
<path d="M128.307 3.74464V39.5334H187.436V3.74464H128.307Z" stroke="#999999" stroke-linecap="round" stroke-linejoin="round"/>
<path d="M165.704 12.3555H151.148C147.029 12.3555 143.689 15.516 143.689 19.4148V22.3351C143.689 26.2338 147.029 29.3944 151.148 29.3944H165.704C169.823 29.3944 173.162 26.2338 173.162 22.3351V19.4148C173.162 15.516 169.823 12.3555 165.704 12.3555Z" stroke="#999999" stroke-linecap="round" stroke-linejoin="round"/>
<path d="M153.872 16.2134L163.029 21.0133L153.872 25.8133V16.2134Z" stroke="#999999" stroke-linecap="round" stroke-linejoin="round"/>
<path d="M35.4554 81.9222H57.9996L46.7275 71.2535L44.5285 69.177" stroke="#999999" stroke-linecap="round" stroke-linejoin="round"/>
<path d="M56.0433 62.4365L46.7275 71.2536L35.4554 81.9223L35.4207 75.1864" stroke="#999999" stroke-linecap="round" stroke-linejoin="round"/>
<path d="M60.981 60.4912L83.6243 81.9223H61.085" stroke="#999999" stroke-linecap="round" stroke-linejoin="round"/>
<path d="M60.981 60.4912L61.085 81.9223L83.7283 60.4912" stroke="#999999" stroke-linecap="round" stroke-linejoin="round"/>
<path d="M86.6107 60.4912L109.254 81.9223H86.7147" stroke="#999999" stroke-linecap="round" stroke-linejoin="round"/>
<path d="M86.6107 60.4912L86.7147 81.9223L109.358 60.4912" stroke="#999999" stroke-linecap="round" stroke-linejoin="round"/>
<path d="M112.24 60.4912L134.884 81.9223H112.344" stroke="#999999" stroke-linecap="round" stroke-linejoin="round"/>
<path d="M112.24 60.4912L112.344 81.9223L134.988 60.4912" stroke="#999999" stroke-linecap="round" stroke-linejoin="round"/>
<path d="M137.87 60.4912L160.513 81.9223H137.969" stroke="#999999" stroke-linecap="round" stroke-linejoin="round"/>
<path d="M137.87 60.4912L137.969 81.9223L160.617 60.4912" stroke="#999999" stroke-linecap="round" stroke-linejoin="round"/>
<path d="M163.5 60.4912L186.143 81.9223H163.599" stroke="#999999" stroke-linecap="round" stroke-linejoin="round"/>
<path d="M163.5 60.4912L163.599 81.9223L186.247 60.4912" stroke="#999999" stroke-linecap="round" stroke-linejoin="round"/>
<path d="M189.129 60.4912L211.773 81.9223H189.228" stroke="#999999" stroke-linecap="round" stroke-linejoin="round"/>
<path d="M211.104 61.2225L200.501 71.2536L189.228 81.9223L189.124 60.4912" stroke="#999999" stroke-linecap="round" stroke-linejoin="round"/>
<path d="M9.82568 105.744H10.5884H32.3699L21.0978 95.0754L17.8291 91.9863" stroke="#999999" stroke-linecap="round" stroke-linejoin="round"/>
<path d="M32.4689 84.313L21.0978 95.0754L10.9549 104.675L9.82568 105.744" stroke="#999999" stroke-linecap="round" stroke-linejoin="round"/>
<path d="M35.3514 84.313L57.9946 105.744H35.4554" stroke="#999999" stroke-linecap="round" stroke-linejoin="round"/>
<path d="M35.3514 84.313L35.4554 105.744L58.0986 84.313" stroke="#999999" stroke-linecap="round" stroke-linejoin="round"/>
<path d="M60.981 84.313L83.6243 105.744H61.085" stroke="#999999" stroke-linecap="round" stroke-linejoin="round"/>
<path d="M60.981 84.313L61.085 105.744L83.7283 84.313" stroke="#999999" stroke-linecap="round" stroke-linejoin="round"/>
<path d="M86.6107 84.313L109.254 105.744H86.7147" stroke="#999999" stroke-linecap="round" stroke-linejoin="round"/>
<path d="M86.6107 84.313L86.7147 105.744L109.358 84.313" stroke="#999999" stroke-linecap="round" stroke-linejoin="round"/>
<path d="M112.24 84.313L134.884 105.744H112.344" stroke="#999999" stroke-linecap="round" stroke-linejoin="round"/>
<path d="M112.24 84.313L112.344 105.744L134.988 84.313" stroke="#999999" stroke-linecap="round" stroke-linejoin="round"/>
<path d="M137.87 84.313L160.513 105.744H137.969" stroke="#999999" stroke-linecap="round" stroke-linejoin="round"/>
<path d="M137.87 84.313L137.969 105.744L160.617 84.313" stroke="#999999" stroke-linecap="round" stroke-linejoin="round"/>
<path d="M163.5 84.313L186.143 105.744H163.599" stroke="#999999" stroke-linecap="round" stroke-linejoin="round"/>
<path d="M163.5 84.313L163.599 105.744L186.247 84.313" stroke="#999999" stroke-linecap="round" stroke-linejoin="round"/>
<path d="M189.129 84.313L211.773 105.744H189.228" stroke="#999999" stroke-linecap="round" stroke-linejoin="round"/>
<path d="M189.129 84.313L189.228 105.744L211.877 84.313" stroke="#999999" stroke-linecap="round" stroke-linejoin="round"/>
<path d="M30.9535 61.8037V61.8271" stroke="#263238" stroke-linecap="round" stroke-linejoin="round"/>
<path d="M30.9287 61.916C31.5516 61.3966 32.2345 60.9453 32.9642 60.5707C33.7648 60.1708 34.615 59.8669 35.495 59.666" fill="white"/>
<path d="M30.9287 61.916C31.5516 61.3966 32.2345 60.9453 32.9642 60.5707C33.7648 60.1708 34.615 59.8669 35.495 59.666" stroke="#263238" stroke-linecap="round" stroke-linejoin="round"/>
<path d="M29.9531 67.8456L27.6353 65.8582" stroke="#263238" stroke-linecap="round" stroke-linejoin="round"/>
<path d="M32.8998 97.2831C33.0195 96.7043 33.2021 96.1388 33.4446 95.5956C33.7821 94.7937 34.2482 94.0459 34.8264 93.3784C35.2544 92.8749 35.7412 92.4189 36.2775 92.019" stroke="#263238" stroke-linecap="round" stroke-linejoin="round"/>
<path d="M34.7471 103.452C34.421 102.683 33.9313 101.987 33.3085 101.405C32.6856 100.824 31.943 100.37 31.1268 100.072" stroke="#263238" stroke-linecap="round" stroke-linejoin="round"/>
<path d="M38.7736 134.061C37.9961 133.18 37.4117 129.809 37.0947 128.005C37.0204 127.569 36.956 127.203 36.9065 126.936" fill="white"/>
<path d="M38.7736 134.061C37.9961 133.18 37.4117 129.809 37.0947 128.005C37.0204 127.569 36.956 127.203 36.9065 126.936" stroke="#263238" stroke-linecap="round" stroke-linejoin="round"/>
<path d="M31.3101 90.7627C31.3101 90.7627 30.899 77.4034 38.6498 72.5613" stroke="#263238" stroke-linecap="round" stroke-linejoin="round"/>
<path d="M30.6117 119.431C29.5964 122.544 36.6886 128.473 36.6886 128.473C36.6886 128.473 46.0985 127.363 47.089 124.255C48.0795 121.147 45.727 116.047 41.1756 114.716C36.6242 113.385 31.627 116.314 30.6117 119.431Z" fill="#00B49F"/>
<path d="M22.7421 81.6268C23.6434 84.9362 30.3592 87.2846 30.3592 87.2846C30.3592 87.2846 35.0394 82.1565 34.1429 78.8471C33.2465 75.5378 29.5271 71.8956 26.3822 72.655C23.2373 73.4144 21.8407 78.3221 22.7421 81.6268Z" fill="#00B49F"/>
<path d="M40.4575 92.2251C39.6059 92.9026 38.6284 93.424 37.5751 93.7626C36.5053 94.0392 35.2275 93.8704 34.4995 93.0782C33.5981 92.0939 33.8408 90.5704 34.4104 89.3845C35.5346 87.0408 39.6898 83.0471 42.8843 84.1908C47.4803 85.8408 42.5029 90.7814 40.4575 92.2251Z" fill="#00B49F"/>
<path d="M31.0178 98.2111C31.622 98.9189 32.2609 99.8142 31.9291 100.672C31.6369 101.431 30.6513 101.778 29.8094 101.656C28.974 101.472 28.1934 101.112 27.5262 100.602C25.9018 99.5329 22.5736 97.2876 24.6934 95.1923C26.9072 93.0127 29.74 96.7158 31.0178 98.2111Z" fill="#00B49F"/>
<path d="M44.6227 68.352C44.9732 68.3716 45.3085 68.4948 45.5812 68.7041C45.854 68.9135 46.0505 69.1986 46.1431 69.5192C46.2818 70.2832 45.6132 70.9535 44.9644 71.427C43.3498 72.6035 38.4963 75.7863 37.4117 72.716C36.3865 69.8426 42.4782 68.1317 44.6227 68.352Z" fill="#00B49F"/>
<path d="M35.6782 58.2644C36.6687 58.3535 37.6592 58.0113 38.6795 58.0676C39.6997 58.1238 40.7992 58.8926 40.5763 59.8254C40.3683 60.6832 39.2441 60.9691 38.313 61.0254C36.7273 61.1194 35.1353 61.0154 33.5783 60.716C33.2072 60.6794 32.8642 60.5121 32.6175 60.2472C32.2114 59.6801 32.8602 58.9207 33.5486 58.7191C34.237 58.5176 35.0344 58.5879 35.6485 58.2504L35.6782 58.2644Z" fill="#00B49F"/>
<path d="M25.8869 64.7894C24.8964 64.8129 23.9059 64.4097 22.9154 64.4051C21.9249 64.4004 20.7461 65.0988 20.9046 66.0363C21.0631 66.9738 22.1527 67.2644 23.0788 67.3769C24.6535 67.5738 26.2487 67.5738 27.8234 67.3769C28.1955 67.3701 28.5505 67.2274 28.8139 66.9785C29.2596 66.4394 28.6653 65.6425 27.9918 65.3988C27.3182 65.1551 26.506 65.1738 25.9315 64.7988L25.8869 64.7894Z" fill="#00B49F"/>
<path d="M30.6068 62.8115C30.6068 62.8115 31.0674 59.0193 30.1115 58.71" stroke="#263238" stroke-linecap="round" stroke-linejoin="round"/>
<path d="M31.4537 58.8599C30.8494 57.5661 30.1907 56.2161 28.9774 55.3865C27.764 54.5568 25.8374 54.4911 24.9559 55.6349C23.9653 56.9099 24.9559 58.8505 26.4664 59.5302C27.9769 60.2099 29.7351 59.9989 31.3893 59.788C31.3893 59.5583 31.3893 59.3192 31.4289 59.0895L31.4537 58.8599Z" fill="#00B49F"/>
<path d="M42.2454 134.394C42.3246 134.511 41.6461 135.116 43.8748 135.209C49.3623 135.439 59.0743 135.116 62.7343 130.4C67.9642 123.669 55.9542 124.255 57.1329 120.556C58.3116 116.858 71.2032 119.914 73.734 114.608C76.2648 109.302 66.8845 110.314 67.3303 107.577C67.776 104.839 77.6069 108.416 80.8657 102.791C84.1245 97.1659 75.5219 100.156 76.9036 97.8268C78.2854 95.4972 89.2505 85.8082 84.8278 83.6285C80.4051 81.4488 70.1731 91.555 66.7607 92.6284C63.3484 93.7018 62.6253 83.755 58.168 87.0691C53.7106 90.3831 56.5832 105.416 51.3879 107.267C47.5249 108.645 49.6495 103.269 44.8802 103.461C38.4022 103.724 36.2082 124.775 42.2454 134.394Z" fill="#00B49F"/>
<g opacity="0.1">
<path d="M42.2454 134.394C42.3246 134.511 41.6461 135.116 43.8748 135.209C49.3623 135.439 59.0743 135.116 62.7343 130.4C67.9642 123.669 55.9542 124.255 57.1329 120.556C58.3116 116.858 71.2032 119.914 73.734 114.608C76.2648 109.302 66.8845 110.314 67.3303 107.577C67.776 104.839 77.6069 108.416 80.8657 102.791C84.1245 97.1659 75.5219 100.156 76.9036 97.8268C78.2854 95.4972 89.2505 85.8082 84.8278 83.6285C80.4051 81.4488 70.1731 91.555 66.7607 92.6284C63.3484 93.7018 62.6253 83.755 58.168 87.0691C53.7106 90.3831 56.5832 105.416 51.3879 107.267C47.5249 108.645 49.6495 103.269 44.8802 103.461C38.4022 103.724 36.2082 124.775 42.2454 134.394Z" fill="black"/>
</g>
<path d="M64.0566 103.508C64.0566 103.508 42.7604 117.285 38.0901 152.436" stroke="#263238" stroke-linecap="round" stroke-linejoin="round"/>
<path d="M61.4813 93.28C61.4813 93.28 55.0033 101.38 55.0825 111.946" stroke="#263238" stroke-linecap="round" stroke-linejoin="round"/>
<path d="M48.7283 120.875C48.7283 120.875 53.3342 116.778 59.4557 118.873" stroke="#263238" stroke-linecap="round" stroke-linejoin="round"/>
<path d="M45.4101 127.1C45.4101 127.1 43.0081 121.737 44.3205 114.191" stroke="#263238" stroke-linecap="round" stroke-linejoin="round"/>
<path d="M35.7426 139.798C31.2259 139.878 23.5097 135.908 20.4787 132.045C17.4477 128.183 26.0504 130.559 25.1639 127.484C24.2774 124.409 13.6194 126.678 11.6532 122.272C9.68702 117.866 17.3734 118.878 17.0713 116.624C16.7692 114.369 8.79555 114.842 6.24001 110.155C3.68447 105.467 10.6973 108.097 9.58797 106.156C8.47858 104.216 -0.317222 96.0408 3.38237 94.3346C7.08195 92.6284 15.2686 101.145 18.052 102.092C20.8353 103.039 21.4544 97.1658 25.045 99.9783C28.6356 102.791 25.9464 115.081 30.1709 116.703C33.3208 117.913 31.9836 112.283 35.6188 113.703C41.9433 116.174 37.5751 139.766 35.7426 139.798Z" fill="#00B49F"/>
<g opacity="0.3">
<path d="M35.7426 139.798C31.2259 139.878 23.5097 135.908 20.4787 132.045C17.4477 128.183 26.0504 130.559 25.1639 127.484C24.2774 124.409 13.6194 126.678 11.6532 122.272C9.68702 117.866 17.3734 118.878 17.0713 116.624C16.7692 114.369 8.79555 114.842 6.24001 110.155C3.68447 105.467 10.6973 108.097 9.58797 106.156C8.47858 104.216 -0.317222 96.0408 3.38237 94.3346C7.08195 92.6284 15.2686 101.145 18.052 102.092C20.8353 103.039 21.4544 97.1658 25.045 99.9783C28.6356 102.791 25.9464 115.081 30.1709 116.703C33.3208 117.913 31.9836 112.283 35.6188 113.703C41.9433 116.174 37.5751 139.766 35.7426 139.798Z" fill="white"/>
</g>
<path d="M13.9413 103.499C13.9413 103.499 36.4706 124.405 37.7633 155.656" stroke="#263238" stroke-linecap="round" stroke-linejoin="round"/>
<path d="M13.3915 113.183C16.6359 113.153 19.8517 113.759 22.8361 114.964" stroke="#263238" stroke-linecap="round" stroke-linejoin="round"/>
<path d="M21.8456 102.106C21.8456 102.106 26.9121 109.644 26.0009 118.944" stroke="#263238" stroke-linecap="round" stroke-linejoin="round"/>
<path d="M29.2349 124.217C28.0057 123.144 26.5109 122.38 24.8882 121.997C23.2654 121.613 21.5668 121.623 19.9488 122.023" stroke="#263238" stroke-linecap="round" stroke-linejoin="round"/>
<path d="M33.3356 132.884C33.3356 132.884 35.8813 128.314 35.3167 121.583" stroke="#263238" stroke-linecap="round" stroke-linejoin="round"/>
<path d="M90.5233 151.906L90.9739 120.467L99.5816 125.825C99.5816 125.825 101.681 150.505 99.5419 153.547C97.4024 156.589 91.5286 157.24 90.5282 151.33" fill="white"/>
<path d="M90.5233 151.906L90.9739 120.467L99.5816 125.825C99.5816 125.825 101.681 150.505 99.5419 153.547C97.4024 156.589 91.5286 157.24 90.5282 151.33" stroke="#263238" stroke-linecap="round" stroke-linejoin="round"/>
<path d="M103.246 155.918L148.885 155.783C148.885 155.783 148.677 153.814 150.559 141.181C152.584 127.587 154.377 103.517 154.377 103.517L143.744 101.717C139.648 110.652 126.162 123.167 117.886 119.061C109.611 114.955 104.386 103.677 104.386 103.677C104.386 103.677 101.315 103.995 96.0503 106.048C90.7857 108.102 89.7655 119.712 89.7655 119.712L99.5617 125.806L99.4726 127.105C98.5167 134.605 100.77 138.542 101.043 139.095L103.246 155.918Z" fill="#00B49F"/>
<mask id="mask0_298_3603" style="mask-type:luminance" maskUnits="userSpaceOnUse" x="89" y="101" width="66" height="55">
<path d="M103.246 155.918L148.885 155.783C148.885 155.783 148.677 153.814 150.559 141.181C152.584 127.587 154.377 103.517 154.377 103.517L143.744 101.717C139.648 110.652 126.162 123.167 117.886 119.061C109.611 114.955 104.386 103.677 104.386 103.677C104.386 103.677 101.315 103.995 96.0503 106.048C90.7857 108.102 89.7655 119.712 89.7655 119.712L99.5617 125.806L99.4726 127.105C98.5167 134.605 100.77 138.542 101.043 139.095L103.246 155.918Z" fill="white"/>
</mask>
<g mask="url(#mask0_298_3603)">
<path opacity="0.2" d="M103.742 131.394C106.599 130.756 109.398 132.42 112.23 133.161C121.467 135.584 141.649 129.781 142.218 129.547C142.794 129.227 143.236 128.731 143.471 128.141C144.759 125.689 145.738 123.102 146.388 120.434C146.204 124.85 146.019 129.269 145.834 133.69C145.72 136.437 145.512 139.419 143.615 141.504C141.485 143.848 137.9 144.317 134.646 144.65C128.792 145.231 109.596 145.348 108.239 144.608C106.154 143.469 104.039 142.306 102.395 140.642C99.532 137.755 98.4969 132.556 103.742 131.394Z" fill="black"/>
</g>
<path d="M103.246 155.918L148.885 155.783C148.885 155.783 148.677 153.814 150.559 141.181C152.584 127.587 154.377 103.517 154.377 103.517L143.744 101.717C139.648 110.652 126.162 123.167 117.886 119.061C109.611 114.955 104.386 103.677 104.386 103.677C104.386 103.677 101.315 103.995 96.0503 106.048C90.7857 108.102 89.7655 119.712 89.7655 119.712L99.5617 125.806L99.4726 127.105C98.5167 134.605 100.77 138.542 101.043 139.095L103.246 155.918Z" stroke="#263238" stroke-linecap="round" stroke-linejoin="round"/>
<path d="M100.711 117.598C100.488 120.716 100.245 120.411 99.3141 128.628" stroke="#263238" stroke-linecap="round" stroke-linejoin="round"/>
<path d="M98.175 103.667L94.8419 99.5518C94.8419 99.5518 96.506 96.5283 99.1111 96.4018L99.6063 97.808L99.9679 96.4018C100.632 96.3543 101.296 96.4963 101.875 96.8096L101.899 98.0049L102.509 97.0955C102.509 97.0955 103.717 98.1174 103.806 98.5018C103.895 98.8861 101.944 103.189 101.944 103.189C101.944 103.189 99.3339 102.655 98.175 103.667Z" fill="#263238" stroke="#263238" stroke-linecap="round" stroke-linejoin="round"/>
<path d="M98.175 103.667L103.435 125.975C103.435 125.975 104.326 126.851 104.92 125.942C105.515 125.033 101.949 103.142 101.949 103.142C101.362 102.775 100.652 102.626 99.9561 102.723C99.26 102.82 98.6259 103.156 98.175 103.667Z" fill="#5C5C5C" stroke="#263238" stroke-linecap="round" stroke-linejoin="round"/>
<path d="M145.903 120.224C145.903 120.224 158.166 128.97 161.652 118.597C165.139 108.224 146.829 110.816 145.903 120.224Z" fill="#263238" stroke="#263238" stroke-linecap="round" stroke-linejoin="round"/>
<path d="M160.201 112.728C160.201 112.527 160.201 112.33 160.201 112.128C160.177 111.477 160.147 110.816 160.112 110.15C160.112 110.15 158.488 105.102 156.467 104.6C155.947 104.474 155.184 104.6 154.268 105.224C152.614 106.367 150.469 109.189 148.409 115.288C147.949 116.647 147.493 118.17 147.047 119.877C146.968 120.177 146.889 120.486 146.814 120.814C146.126 123.547 145.472 126.72 144.868 130.4L143.194 138.584C143.194 138.584 115.861 128.272 112.176 121.925C110.855 119.684 109.856 117.286 109.204 114.795C108.709 113.028 107.773 111.65 107.05 109.953C106.634 108.974 106.114 107.811 105.019 107.609C104.478 107.563 103.933 107.577 103.395 107.652C103.164 107.663 102.933 107.663 102.702 107.652C101.667 107.586 101.156 107.333 100.523 107.825C100.155 108.178 99.9114 108.63 99.8242 109.119C99.7654 109.301 99.6943 109.48 99.6113 109.653C99.2299 110.511 98.5068 111.856 98.4474 112.184C98.4226 112.316 98.3979 112.438 98.3781 112.559C98.1899 113.544 98.0512 114.294 97.8828 115.344C97.5658 117.041 97.0904 119.019 98.5068 120.097C97.868 121.259 98.9129 122.909 99.5815 123.298C99.7103 123.377 99.849 123.456 99.9976 123.537C101.087 124.137 102.474 124.686 102.796 124.437C102.914 124.34 102.997 124.211 103.034 124.067C103.082 123.938 103.092 123.798 103.063 123.664C103.035 123.529 102.968 123.405 102.87 123.303V123.28C102.337 122.711 101.653 122.289 100.889 122.056C101.448 122.166 102.03 122.067 102.513 121.78C102.736 121.639 102.93 121.466 103.187 121.311C103.254 122.39 103.43 123.46 103.712 124.508C103.888 125.163 104.192 125.782 104.608 126.331C105.876 128.056 108.12 129.448 109.814 129.692C110.101 129.734 112.785 131.694 116.569 134.525C119.971 137.066 124.265 140.3 128.549 143.483C136.473 149.375 144.398 155.065 146.448 155.75C146.554 155.79 146.666 155.814 146.78 155.82H146.809C146.909 155.812 147.006 155.788 147.097 155.75C147.835 155.398 148.486 154.903 149.008 154.297C152.366 150.851 157.923 141.547 159.721 126.13C159.893 124.667 160.03 123.152 160.132 121.583C160.211 120.333 160.264 119.059 160.29 117.763C160.281 116.128 160.251 114.45 160.201 112.728ZM101.761 118.902C101.36 118.94 100.963 119.004 100.572 119.094C100.425 119.131 100.281 119.178 100.141 119.234C99.9629 119 99.7252 118.766 99.5469 118.55C99.8638 118.55 100.23 118.602 100.622 118.639L101.726 118.742C102.221 118.789 102.672 118.831 103.048 118.855C102.62 118.84 102.191 118.856 101.766 118.902H101.761ZM101.072 115.977L100.419 116.047C100.503 115.386 100.419 115.156 100.107 114.823C100.342 114.943 100.596 115.027 100.859 115.072C100.921 115.086 100.984 115.094 101.048 115.095C101.864 115.266 102.662 115.511 103.43 115.827C102.643 115.839 101.858 115.889 101.077 115.977H101.072ZM105.832 113.577C105.039 113.425 104.256 113.234 103.484 113.005C102.494 112.723 101.473 112.414 101.052 112.231C100.989 112.207 100.929 112.176 100.874 112.138C101.315 111.8 101.459 110.694 101.483 110.159C102.007 110.257 102.54 110.295 103.073 110.272C103.418 110.265 103.76 110.21 104.088 110.108C104.584 112.03 105.995 113.666 105.832 113.577Z" fill="white" stroke="#263238" stroke-linecap="round" stroke-linejoin="round"/>
<path d="M104.841 119.408C105.123 119.573 105.381 119.771 105.609 119.998" stroke="#263238" stroke-linecap="round" stroke-linejoin="round"/>
<path d="M105.094 116.558C105.451 116.657 105.786 116.815 106.084 117.027" stroke="#263238" stroke-linecap="round" stroke-linejoin="round"/>
<path d="M98.3483 112.541C98.4214 112.326 98.5632 112.139 98.7541 112.005C98.9449 111.87 99.1753 111.795 99.4131 111.791C100.139 111.943 100.851 112.15 101.543 112.41" stroke="#263238" stroke-linecap="round" stroke-linejoin="round"/>
<path d="M153.268 103.855C153.268 103.855 148.345 107.994 145.903 120.224C145.903 120.224 160.147 115.616 161.652 118.597C163.158 121.578 161.796 100.278 153.268 103.855Z" fill="#00B49F" stroke="#263238" stroke-linecap="round" stroke-linejoin="round"/>
<path d="M96.0305 157.086C93.995 157.554 88.5274 155.028 87.7201 151.372C87.0267 148.226 87.0862 130.011 87.1159 124.967C86.7787 124.944 86.4459 124.881 86.1254 124.78C84.675 124.39 83.3258 123.72 82.1633 122.811C81.5194 122.319 80.9796 121.873 80.524 121.498C78.3993 119.698 78.2111 119.009 78.2111 119.009C78.2111 119.009 70.9258 115.794 70.1037 114.903C69.2816 114.013 70.3365 113.539 70.4702 113.474C70.4999 113.474 70.5049 113.474 70.4702 113.474C69.7656 113.078 69.1023 112.619 68.4892 112.105C68.2045 111.871 67.9531 111.603 67.7413 111.308C67.5924 111.104 67.503 110.867 67.4821 110.62C67.4612 110.373 67.5096 110.125 67.6225 109.902C66.4636 109.241 66.5576 108.242 67.0182 107.656C67.2956 107.3 67.8602 107.347 68.3802 107.511C68.7909 107.642 69.1847 107.817 69.554 108.031C69.554 107.97 69.2717 107.202 70.4157 106.874C71.5598 106.545 84.0651 110.952 86.0511 110.881C86.1848 110.881 86.269 110.853 86.2987 110.811C86.7543 110.23 86.2393 108.158 85.952 106.564C85.8777 106.161 85.8232 105.791 85.7985 105.481C85.7603 105.11 85.7956 104.735 85.9025 104.375C85.9596 104.116 86.0947 103.877 86.2915 103.688C86.4883 103.5 86.7384 103.369 87.0119 103.311C87.0119 103.311 87.829 102.716 89.087 108.439C89.3396 109.592 92.7618 115.939 93.1234 118.644C93.185 119.079 93.2131 119.517 93.2076 119.956C105.47 154.601 98.0363 156.622 96.0305 157.086Z" fill="white"/>
<path d="M70.4702 113.474C70.3365 113.539 69.2816 114.013 70.1037 114.903C70.9258 115.794 78.2111 119.009 78.2111 119.009C78.2111 119.009 78.3993 119.698 80.524 121.498C80.9796 121.873 81.5194 122.319 82.1633 122.811C83.3258 123.72 84.675 124.39 86.1254 124.78C86.4459 124.881 86.7787 124.944 87.1159 124.967C87.0862 130.011 87.0267 148.226 87.7201 151.372C88.5274 155.028 93.995 157.554 96.0305 157.086C98.0363 156.622 105.47 154.601 93.2076 119.956C93.2131 119.517 93.185 119.079 93.1234 118.644C92.7618 115.939 89.3396 109.592 89.087 108.439C87.829 102.716 87.0119 103.311 87.0119 103.311C86.7384 103.369 86.4883 103.5 86.2915 103.688C86.0947 103.877 85.9596 104.116 85.9025 104.375C85.7956 104.735 85.7603 105.11 85.7985 105.481C85.8232 105.791 85.8777 106.161 85.952 106.564C86.2393 108.158 86.7543 110.23 86.2987 110.811C86.269 110.853 86.1848 110.881 86.0511 110.881C84.0651 110.952 71.5598 106.545 70.4157 106.874C69.2717 107.202 69.554 107.97 69.554 108.031C69.1847 107.817 68.7909 107.642 68.3802 107.511C67.8602 107.347 67.2956 107.3 67.0182 107.656C66.5576 108.242 66.4636 109.241 67.6225 109.902C67.5096 110.125 67.4612 110.373 67.4821 110.62C67.503 110.867 67.5924 111.104 67.7413 111.308C67.9531 111.603 68.2045 111.871 68.4892 112.105C69.1023 112.619 69.7656 113.078 70.4702 113.474ZM70.4702 113.474C70.4999 113.474 70.5049 113.474 70.4702 113.474Z" stroke="#263238" stroke-linecap="round" stroke-linejoin="round"/>
<path d="M78.5924 118.039C78.4141 116.736 78.2309 115.4 78.5924 114.125C78.8124 113.34 79.2208 112.613 79.7861 112.002C80.3513 111.39 81.0581 110.911 81.8512 110.6" stroke="#263238" stroke-linecap="round" stroke-linejoin="round"/>
<path d="M86.1947 112.695C85.5483 114.441 85.4537 116.327 85.9223 118.123C86.1098 118.935 86.4723 119.701 86.9871 120.373C87.511 121.046 88.2656 121.525 89.1216 121.728" stroke="#263238" stroke-linecap="round" stroke-linejoin="round"/>
<path d="M71.0496 108.819C71.2279 108.875 79.6671 112.133 79.6671 112.133" stroke="#263238" stroke-linecap="round" stroke-linejoin="round"/>
<path d="M69.1825 110.502L78.4835 114.603" stroke="#263238" stroke-linecap="round" stroke-linejoin="round"/>
<path d="M72.5651 114.608L78.4934 117.313" stroke="#263238" stroke-linecap="round" stroke-linejoin="round"/>
<path d="M85.7737 104.999C85.6685 105.358 85.6349 105.733 85.6746 106.105C85.6746 106.41 85.7539 106.78 85.8232 107.183L86.1748 122.005L68.5882 122.342L67.7611 87.1159L85.3478 86.7456L85.7737 104.999Z" fill="#263238" stroke="#263238" stroke-linecap="round" stroke-linejoin="round"/>
<path d="M84.5225 87.7772L68.6237 88.1108L68.9761 103.159L84.875 102.825L84.5225 87.7772Z" fill="white" stroke="#263238" stroke-linecap="round" stroke-linejoin="round"/>
<path d="M81.46 97.6814L78.4389 100.888" stroke="#263238" stroke-linecap="round" stroke-linejoin="round"/>
<path d="M76.8392 92.7361L73.8181 95.9423" stroke="#263238" stroke-linecap="round" stroke-linejoin="round"/>
<path d="M80.1624 92.0847L72.2383 100.494" stroke="#263238" stroke-linecap="round" stroke-linejoin="round"/>
<path d="M82.1088 90.0173L81.0638 91.133" stroke="#263238" stroke-linecap="round" stroke-linejoin="round"/>
<path d="M76.9834 105.703L69.0364 105.87L69.2188 113.654L77.1657 113.487L76.9834 105.703Z" fill="#00B49F"/>
<path d="M85.1237 113.326L77.1718 113.492L77.3419 120.756L85.2938 120.589L85.1237 113.326Z" fill="#00B49F"/>
<path opacity="0.5" d="M85.1237 113.326L77.1718 113.492L77.3419 120.756L85.2938 120.589L85.1237 113.326Z" fill="black"/>
<path d="M84.6675 105.777L76.7136 105.927L76.8781 113.713L84.832 113.563L84.6675 105.777Z" fill="#00B49F"/>
<path opacity="0.3" d="M84.6675 105.777L76.7136 105.927L76.8781 113.713L84.832 113.563L84.6675 105.777Z" fill="white"/>
<path d="M69.2271 113.652L77.176 113.488L77.3444 120.748L69.4005 120.917L69.2271 113.652Z" fill="#00B49F"/>
<path opacity="0.3" d="M69.2271 113.652L77.176 113.488L77.3444 120.748L69.4005 120.917L69.2271 113.652Z" fill="black"/>
<path d="M85.1249 113.319L77.176 113.488L76.9927 105.702" stroke="#263238" stroke-linecap="round" stroke-linejoin="round"/>
<path d="M69.2271 113.652L77.176 113.488L77.3444 120.748" stroke="#263238" stroke-linecap="round" stroke-linejoin="round"/>
<path d="M105.965 54.538C102.288 60.5112 100.693 67.4297 101.409 74.3097C102.464 84.1534 108.169 93.1158 109.19 102.945C111.701 103.339 114.41 103.705 116.683 102.622C119.59 101.216 120.868 97.7002 120.15 94.6861C120.869 96.4236 121.591 98.1627 122.314 99.9033C122.555 100.58 122.888 101.225 123.304 101.82C124.761 103.695 127.519 104.061 129.971 104.253C134.884 104.638 140.401 104.774 144.076 101.666C142.59 100.503 144.952 84.4253 144.843 76.9957C144.744 70.0441 143.58 41.5631 121.373 47.7084C114.568 44.7975 107.318 52.3724 105.965 54.538Z" fill="#263238" stroke="#263238" stroke-linecap="round" stroke-linejoin="round"/>
<path d="M118.04 91.9206C118.04 91.9206 118.481 98.5393 115.861 100.02C113.241 101.502 104.386 103.677 104.386 103.677C104.386 103.677 113.949 123.092 123.205 120.448C132.462 117.805 140.123 109.456 143.744 101.722C143.744 101.722 138.167 100.466 135.651 99.3314C130.283 96.9174 130.451 85.7003 130.451 85.7003C130.451 85.7003 124.577 82.9675 118.04 91.9206Z" fill="white" stroke="#263238" stroke-linecap="round" stroke-linejoin="round"/>
<path d="M137.162 76.3066C136.688 78.1492 135.763 79.8607 134.463 81.3035C134.032 81.7722 133.472 82.241 132.813 82.2128H132.774C132.736 82.9187 132.651 83.6216 132.521 84.3175C131.6 88.7144 124.597 92.5206 121.739 92.5815C118.882 92.6424 117.178 91.8081 114.707 89.5675C112.235 87.3269 107.139 82.1425 109.026 73.6301C110.056 68.9895 107.674 68.4411 110.096 62.0942C110.78 60.2579 111.895 58.5925 113.358 57.2235C114.82 55.8545 116.592 54.8177 118.54 54.1912C122.051 55.6912 131.516 66.088 132.204 69.6598C132.45 71.0565 132.615 72.4648 132.7 73.8785C132.983 73.2995 133.457 72.8231 134.051 72.5206C134.645 72.2181 135.326 72.1057 135.993 72.2004C136.166 72.2239 136.334 72.2763 136.488 72.3551C136.637 72.4493 136.76 72.5744 136.85 72.7207C137.528 73.7426 137.469 75.1019 137.162 76.3066Z" fill="white" stroke="#263238" stroke-linecap="round" stroke-linejoin="round"/>
<path d="M116.173 69.9785C118.971 74.9754 113.83 77.216 114.514 78.2941C115.197 79.3722 117.332 79.8363 118.04 80.5159" stroke="#263238" stroke-linecap="round" stroke-linejoin="round"/>
<path d="M127.801 72.5098C124.627 71.0051 121.779 73.6911 121.779 73.6911C124.548 68.0474 127.791 72.4864 127.801 72.5098Z" fill="#263238"/>
<path d="M122.046 85.5691C119.134 86.2535 116.42 83.1972 116.42 83.1972C121.799 84.2847 125.394 79.9629 125.394 79.9629C125.394 79.9629 124.964 84.88 122.046 85.5691Z" fill="white" stroke="#263238" stroke-linecap="round" stroke-linejoin="round"/>
<path d="M109.794 70.2364C109.794 70.2364 110.784 67.649 114.608 68.5161" stroke="#263238" stroke-width="2" stroke-linecap="round" stroke-linejoin="round"/>
<path d="M120.789 67.4987C120.789 67.4987 127.475 65.3284 129.297 68.2487" stroke="#263238" stroke-width="2" stroke-linecap="round" stroke-linejoin="round"/>
<path d="M113.429 72.3081C113.924 72.3081 114.315 72.8894 114.33 73.6253C114.345 74.3612 113.974 74.9659 113.493 74.9753C113.013 74.9846 112.607 74.3987 112.592 73.6628C112.577 72.9269 112.949 72.3175 113.429 72.3081Z" fill="#263238" stroke="#263238" stroke-linecap="round" stroke-linejoin="round"/>
<path d="M110.348 72.4159C110.348 72.4159 112.993 70.1472 115.341 73.105" stroke="#263238" stroke-width="2" stroke-linecap="round" stroke-linejoin="round"/>
<path d="M118.664 69.7629C117.348 67.7122 116.604 65.379 116.501 62.9818C116.398 60.5846 116.939 58.2018 118.075 56.0567C117.386 58.3161 118.941 60.6739 120.853 62.1504C122.765 63.627 125.087 64.6629 126.836 66.3317C127.859 67.3148 128.652 68.4906 129.164 69.7826C129.676 71.0747 129.895 72.4542 129.807 73.8316C130.385 72.7341 130.612 71.501 130.461 70.2832C131.214 73.1807 131.591 76.1541 131.585 79.1378C134.646 74.816 137.003 70.4848 136.35 64.8082C135.983 61.6536 132.318 55.8036 129.986 53.5255C128.294 51.8916 126.002 50.9366 123.587 50.8583C120.318 50.7646 117.089 52.1896 115.856 55.0771C114.519 58.2207 114.421 61.7142 115.578 64.9207C116.22 66.7292 117.273 68.3822 118.664 69.7629Z" fill="#263238" stroke="#263238" stroke-linecap="round" stroke-linejoin="round"/>
<path d="M120.962 55.5693C121.212 57.2334 121.995 58.785 123.204 60.0159C124.413 61.2468 125.992 62.098 127.727 62.4552" stroke="#BFBFBF" stroke-linecap="round" stroke-linejoin="round"/>
<path d="M125.642 58.0115C126.137 59.3755 127.4 60.313 128.5 61.2927C129.599 62.2724 130.634 63.613 130.372 65.0427" stroke="#BFBFBF" stroke-linecap="round" stroke-linejoin="round"/>
<path d="M129.703 60.3411C130.618 61.2983 131.27 62.4543 131.6 63.7067" stroke="#BFBFBF" stroke-linecap="round" stroke-linejoin="round"/>
<path d="M131.763 61.0488C132.254 61.7931 132.516 62.6515 132.521 63.5285" stroke="#BFBFBF" stroke-linecap="round" stroke-linejoin="round"/>
<path d="M131.585 58.8879C132.41 59.5685 133.068 60.4106 133.515 61.356C133.961 62.3014 134.185 63.3275 134.17 64.3629" stroke="#BFBFBF" stroke-linecap="round" stroke-linejoin="round"/>
<path d="M139.282 59.4458C139.832 60.2746 140.198 61.2008 140.357 62.168C140.516 63.1351 140.465 64.1228 140.208 65.0708" stroke="#BFBFBF" stroke-linecap="round" stroke-linejoin="round"/>
<path d="M141.094 61.1472C141.379 61.4096 141.577 61.7445 141.665 62.1114C141.753 62.4782 141.727 62.8614 141.589 63.2144" stroke="#BFBFBF" stroke-linecap="round" stroke-linejoin="round"/>
<path d="M135.775 61.8738C136.074 62.1037 136.31 62.3984 136.464 62.7329C136.617 63.0673 136.683 63.4319 136.657 63.7956" stroke="#BFBFBF" stroke-linecap="round" stroke-linejoin="round"/>
<path d="M136.241 60.5286C137.464 61.4661 137.801 63.0457 138.063 64.5035" stroke="#BFBFBF" stroke-linecap="round" stroke-linejoin="round"/>
<path d="M110.819 52.0303C109.05 53.1241 107.582 54.6012 106.536 56.3391C105.491 58.0771 104.898 60.0259 104.807 62.024" stroke="#BFBFBF" stroke-linecap="round" stroke-linejoin="round"/>
<path d="M110.512 54.4255C108.845 55.5846 107.663 57.2626 107.174 59.1646" stroke="#BFBFBF" stroke-linecap="round" stroke-linejoin="round"/>
<path d="M110.522 56.4458C109.62 57.0586 109 57.9741 108.788 59.0052" stroke="#BFBFBF" stroke-linecap="round" stroke-linejoin="round"/>
<path d="M118.04 91.9205C118.04 91.9205 119.59 95.258 122.497 94.583C125.404 93.908 130.57 88.0205 130.57 88.0205C130.57 88.0205 123.621 94.1377 118.04 91.9205Z" fill="#263238" stroke="#263238" stroke-linecap="round" stroke-linejoin="round"/>
<path d="M128.797 94.8596C128.825 96.6963 128.694 98.5322 128.406 100.349C128.114 102.173 127.346 103.9 126.172 105.374" fill="white"/>
<path d="M128.797 94.8596C128.825 96.6963 128.694 98.5322 128.406 100.349C128.114 102.173 127.346 103.9 126.172 105.374" stroke="#263238" stroke-linecap="round" stroke-linejoin="round"/>
<path d="M124.196 108.2C130.57 107.014 133.928 106.939 140.426 106.925" stroke="#263238" stroke-linecap="round" stroke-linejoin="round"/>
<path d="M106.684 107.581C110.826 107.434 114.974 107.678 119.065 108.308" stroke="#263238" stroke-linecap="round" stroke-linejoin="round"/>
<path d="M144.665 139.302C146.889 140.625 148.7 142.485 149.91 144.692L144.665 139.302Z" fill="white"/>
<path d="M144.665 139.302C146.889 140.625 148.7 142.485 149.91 144.692" stroke="#263238" stroke-linecap="round" stroke-linejoin="round"/>
<path d="M99.4825 133.878C99.6558 134.684 99.8292 135.486 100.007 136.292C100.562 138.851 102.405 142.189 105.426 143.136" stroke="#263238" stroke-linecap="round" stroke-linejoin="round"/>
<path d="M69.3311 113.047H69.2419" stroke="#263238" stroke-linecap="round" stroke-linejoin="round"/>
<path d="M122.373 162.734C116.178 162.734 112.825 158.178 112.666 149.563C112.662 149.499 112.672 149.435 112.695 149.375C112.718 149.314 112.754 149.259 112.8 149.213C112.847 149.166 112.903 149.129 112.965 149.104C113.027 149.079 113.094 149.066 113.162 149.066C113.296 149.065 113.425 149.114 113.523 149.201C113.62 149.288 113.679 149.408 113.687 149.534C113.835 157.634 116.752 161.722 122.359 161.722C128.054 161.722 130.892 157.733 131.026 149.534C131.026 149.41 131.078 149.291 131.171 149.203C131.264 149.115 131.39 149.066 131.521 149.066C131.589 149.066 131.655 149.079 131.718 149.104C131.78 149.129 131.836 149.166 131.882 149.213C131.928 149.259 131.964 149.314 131.987 149.375C132.01 149.435 132.02 149.499 132.016 149.563C131.932 158.3 128.668 162.734 122.373 162.734Z" fill="#263238" stroke="#263238" stroke-linecap="round" stroke-linejoin="round"/>
<path d="M131.556 150.045H113.181C113.044 150.045 112.913 149.994 112.815 149.902C112.718 149.81 112.664 149.685 112.664 149.556C112.664 149.426 112.718 149.301 112.815 149.209C112.913 149.117 113.044 149.066 113.181 149.066H131.556C131.693 149.066 131.824 149.117 131.922 149.209C132.019 149.301 132.073 149.426 132.073 149.556C132.073 149.685 132.019 149.81 131.922 149.902C131.824 149.994 131.693 150.045 131.556 150.045Z" fill="#263238" stroke="#263238" stroke-linecap="round" stroke-linejoin="round"/>
<path d="M128.544 145.695H116.163L116.539 133.016L116.792 132.899C118.513 132.069 120.417 131.636 122.349 131.636C124.28 131.636 126.184 132.069 127.906 132.899L128.163 133.016L128.544 145.695Z" fill="#263238" stroke="#263238" stroke-linecap="round" stroke-linejoin="round"/>
<path d="M116.163 145.695H128.544L128.163 158.351L127.906 158.478C126.184 159.308 124.28 159.74 122.349 159.74C120.417 159.74 118.513 159.308 116.792 158.478L116.539 158.351L116.163 145.695Z" fill="#5C5C5C" stroke="#263238" stroke-linecap="round" stroke-linejoin="round"/>
<path d="M128.921 144.706H115.831V146.839H128.921V144.706Z" fill="white" stroke="#263238" stroke-linecap="round" stroke-linejoin="round"/>
<path d="M128.921 144.706H115.831V146.839H128.921V144.706Z" fill="white" stroke="#263238" stroke-linecap="round" stroke-linejoin="round"/>
<path d="M123.889 151.658C123.647 151.941 123.322 152.15 122.954 152.259C122.587 152.367 122.194 152.37 121.825 152.267C121.456 152.164 121.127 151.96 120.881 151.68C120.634 151.4 120.481 151.058 120.44 150.695C120.399 150.333 120.473 149.968 120.651 149.645C120.83 149.322 121.105 149.057 121.443 148.883C121.781 148.708 122.166 148.633 122.549 148.665C122.933 148.698 123.297 148.837 123.597 149.066C123.797 149.217 123.964 149.404 124.087 149.617C124.21 149.829 124.288 150.063 124.315 150.304C124.342 150.545 124.318 150.789 124.245 151.021C124.172 151.254 124.051 151.47 123.889 151.658Z" fill="white" stroke="#263238" stroke-linecap="round" stroke-linejoin="round"/>
<path d="M124.32 150.5C124.32 150.864 124.206 151.22 123.992 151.523C123.778 151.826 123.474 152.062 123.118 152.202C122.763 152.341 122.371 152.378 121.994 152.307C121.616 152.236 121.269 152.06 120.997 151.802C120.725 151.545 120.54 151.217 120.464 150.859C120.389 150.502 120.428 150.132 120.575 149.795C120.723 149.458 120.972 149.171 121.292 148.968C121.612 148.766 121.988 148.658 122.373 148.658C122.89 148.658 123.385 148.852 123.75 149.197C124.115 149.543 124.32 150.011 124.32 150.5Z" fill="#263238" stroke="#263238" stroke-linecap="round" stroke-linejoin="round"/>
<path d="M123.205 149.637C123.205 149.742 123.162 149.842 123.084 149.916C123.006 149.99 122.9 150.031 122.789 150.031C122.679 150.031 122.573 149.99 122.495 149.916C122.417 149.842 122.373 149.742 122.373 149.637C122.373 149.533 122.417 149.433 122.495 149.359C122.573 149.285 122.679 149.244 122.789 149.244C122.9 149.244 123.006 149.285 123.084 149.359C123.162 149.433 123.205 149.533 123.205 149.637Z" fill="white"/>
<path d="M122.373 170.351C122.242 170.351 122.116 170.302 122.023 170.214C121.93 170.126 121.878 170.007 121.878 169.883V161.173C121.878 161.043 121.933 160.918 122.03 160.825C122.128 160.733 122.26 160.681 122.398 160.681C122.536 160.681 122.668 160.733 122.766 160.825C122.863 160.918 122.918 161.043 122.918 161.173V169.864C122.921 169.931 122.909 169.998 122.883 170.061C122.856 170.123 122.815 170.179 122.764 170.226C122.712 170.272 122.65 170.307 122.583 170.329C122.516 170.35 122.444 170.358 122.373 170.351Z" fill="#263238" stroke="#263238" stroke-linecap="round" stroke-linejoin="round"/>
<path d="M112.27 173.862C112.27 173.862 116.792 169.681 122.373 169.681C127.955 169.681 132.472 173.862 132.472 173.862C126.009 175.651 119.146 175.688 112.661 173.97L112.27 173.862Z" fill="#263238" stroke="#263238" stroke-linecap="round" stroke-linejoin="round"/>
<path d="M76.9334 142.456L76.9086 142.414H62.2737L67.7909 151.625L67.8156 151.667H82.4505L76.9334 142.456Z" fill="#00B49F"/>
<mask id="mask1_298_3603" style="mask-type:luminance" maskUnits="userSpaceOnUse" x="62" y="142" width="21" height="10">
<path d="M76.9334 142.456L76.9086 142.414H62.2737L67.7909 151.625L67.8156 151.667H82.4505L76.9334 142.456Z" fill="white"/>
</mask>
<g mask="url(#mask1_298_3603)">
<g opacity="0.2">
<path d="M62.2737 142.414L67.7909 151.625L67.8156 151.667H82.4505L76.9334 142.456L76.9086 142.414H62.2737Z" fill="black"/>
</g>
</g>
<path d="M76.9334 142.456L76.9086 142.414H62.2737L67.7909 151.625L67.8156 151.667H82.4505L76.9334 142.456Z" stroke="#263238" stroke-miterlimit="10"/>
<path d="M88.0074 151.667H67.7711V171.791H88.0074V151.667Z" fill="#00B49F" stroke="#263238" stroke-miterlimit="10"/>
<path d="M108.184 142.414L102.667 151.625L102.642 151.667H88.0073L93.5245 142.456L93.5493 142.414H108.184Z" fill="#00B49F"/>
<mask id="mask2_298_3603" style="mask-type:luminance" maskUnits="userSpaceOnUse" x="88" y="142" width="21" height="10">
<path d="M108.184 142.414L102.667 151.625L102.642 151.667H88.0073L93.5245 142.456L93.5493 142.414H108.184Z" fill="white"/>
</mask>
<g mask="url(#mask2_298_3603)">
<path opacity="0.3" d="M108.184 142.414L102.667 151.625L102.642 151.667H88.0073L93.5245 142.456L93.5493 142.414H108.184Z" fill="black"/>
</g>
<path d="M108.184 142.414L102.667 151.625L102.642 151.667H88.0073L93.5245 142.456L93.5493 142.414H108.184Z" stroke="#263238" stroke-miterlimit="10"/>
<path d="M102.667 151.625L102.657 151.667H102.642L102.667 151.625Z" fill="white" stroke="#263238" stroke-linecap="round" stroke-linejoin="round"/>
<path d="M93.5493 142.414L93.5245 142.456L93.5394 142.414H93.5493Z" fill="black"/>
<path d="M102.657 151.667H88.0073V171.791H102.657V151.667Z" fill="#00B49F"/>
<mask id="mask3_298_3603" style="mask-type:luminance" maskUnits="userSpaceOnUse" x="88" y="151" width="15" height="21">
<path d="M102.657 151.667H88.0073V171.791H102.657V151.667Z" fill="white"/>
</mask>
<g mask="url(#mask3_298_3603)">
<path opacity="0.2" d="M102.657 151.667H88.0073V171.791H102.657V151.667Z" fill="black"/>
</g>
<path d="M102.657 151.667H88.0073V171.791H102.657V151.667Z" stroke="#263238" stroke-miterlimit="10"/>
<path d="M25.2382 146.694H21.3157V151.639H25.2382V146.694Z" fill="#5C5C5C" stroke="#263238" stroke-linecap="round" stroke-linejoin="round"/>
<path d="M29.6113 148.03H22.5291V150.458H29.6113V148.03Z" fill="#5C5C5C" stroke="#263238" stroke-linecap="round" stroke-linejoin="round"/>
<path d="M39.888 157.911H43.8104V152.966H39.888V157.911Z" fill="#5C5C5C" stroke="#263238" stroke-linecap="round" stroke-linejoin="round"/>
<path d="M35.5148 156.725H42.597V154.297H35.5148V156.725Z" fill="#5C5C5C" stroke="#263238" stroke-linecap="round" stroke-linejoin="round"/>
<path d="M30.6761 162.369C31.8747 163.372 33.1128 164.35 34.3906 165.303V162.369H30.6761Z" fill="#5C5C5C" stroke="#263238" stroke-linecap="round" stroke-linejoin="round"/>
<path d="M33.4248 137.685H30.3641V146.694H33.4248V137.685Z" fill="#5C5C5C" stroke="#263238" stroke-linecap="round" stroke-linejoin="round"/>
<path d="M35.6139 159.233H28.1503V145.213C28.1503 144.749 28.247 144.289 28.4347 143.861C28.6224 143.432 28.8975 143.043 29.2444 142.715C29.5912 142.387 30.0029 142.127 30.4559 141.95C30.909 141.773 31.3944 141.682 31.8846 141.683C32.8737 141.683 33.8222 142.055 34.5216 142.717C35.221 143.379 35.6139 144.276 35.6139 145.213V159.233Z" fill="#5C5C5C" stroke="#263238" stroke-linecap="round" stroke-linejoin="round"/>
<path d="M37.6741 159.233H25.986V162.369H37.6741V159.233Z" fill="#5C5C5C" stroke="#263238" stroke-linecap="round" stroke-linejoin="round"/>
<path d="M37.5553 131.286H26.194V139.044H37.5553V131.286Z" fill="#263238" stroke="#263238" stroke-linecap="round" stroke-linejoin="round"/>
<path d="M62.1003 100.719C62.0359 100.007 61.9419 99.3129 61.8131 98.6144C60.9238 93.6047 58.653 88.906 55.2302 84.9931C51.8074 81.0803 47.3538 78.0919 42.3197 76.3302C41.7402 76.124 41.1459 75.9365 40.5466 75.7677L40.1108 75.6505C39.675 75.5287 39.2342 75.4208 38.7885 75.3271C37.4842 75.0338 36.1605 74.8239 34.8264 74.699C33.8359 74.6052 32.8156 74.5583 31.7905 74.5583C24.0232 74.5588 16.5498 77.3687 10.8996 82.4131C5.24942 87.4574 1.8496 94.3547 1.3959 101.694C0.942204 109.032 3.46894 116.258 8.45903 121.892C13.4491 127.525 20.5253 131.141 28.2395 131.999C29.4163 132.13 30.6004 132.196 31.7855 132.195C32.4343 132.195 33.0831 132.195 33.722 132.139C34.6778 132.083 35.6139 131.984 36.54 131.844C37.7994 131.658 39.0451 131.397 40.2693 131.061C40.3732 131.036 40.4757 131.007 40.5764 130.972C46.3697 129.317 51.5108 126.066 55.3435 121.633C59.1763 117.201 61.5268 111.788 62.0954 106.086C62.1845 105.191 62.2291 104.291 62.2291 103.372C62.2291 102.453 62.1845 101.591 62.1003 100.719ZM42.5376 121.049C42.0423 121.306 41.5471 121.546 41.0518 121.766C40.3195 122.093 39.5689 122.383 38.8033 122.633C35.8688 123.592 32.7517 123.946 29.6607 123.672C26.5697 123.398 23.5762 122.503 20.8807 121.045C18.1852 119.587 15.85 117.601 14.0313 115.22C12.2126 112.838 10.9525 110.117 10.3354 107.237C9.71826 104.358 9.75836 101.386 10.453 98.5225C11.1476 95.6587 12.4808 92.9684 14.3631 90.6318C16.2455 88.2952 18.6336 86.3663 21.3675 84.9742C24.1015 83.5821 27.1182 82.7589 30.2155 82.5599C30.7108 82.527 31.1763 82.5083 31.6666 82.5083H31.7607C32.8562 82.5094 33.9502 82.5846 35.0344 82.7333C35.5297 82.8083 36.0249 82.8974 36.5202 83.0005L37.2433 83.1645C40.4917 83.9652 43.5017 85.4634 46.0397 87.5428C48.5777 89.6222 50.5755 92.2269 51.8782 95.1551C52.2538 96.0075 52.5682 96.8829 52.8192 97.7754C53.1548 98.9428 53.3769 100.137 53.4828 101.343C53.5373 101.928 53.5621 102.528 53.5621 103.128C53.5658 104.487 53.4247 105.842 53.1411 107.174C52.5265 110.071 51.2618 112.811 49.4325 115.206C47.6032 117.601 45.2519 119.597 42.5376 121.058V121.049Z" fill="#5C5C5C" stroke="#263238" stroke-linecap="round" stroke-linejoin="round"/>
<path d="M172.315 104.928C174.298 104.926 176.259 105.314 178.075 106.068L181.542 107.516C183.935 108.352 186.001 109.863 187.459 111.844C188.918 113.826 189.7 116.182 189.7 118.597C189.7 121.012 188.918 123.369 187.459 125.35C186.001 127.331 183.935 128.842 181.542 129.678L178.075 131.127C176.107 131.939 173.972 132.325 171.826 132.258C169.68 132.191 167.577 131.672 165.67 130.738C163.763 129.805 162.099 128.481 160.801 126.862C159.503 125.244 158.602 123.371 158.165 121.382C157.727 119.392 157.764 117.335 158.272 115.361C158.781 113.386 159.748 111.544 161.103 109.968C162.459 108.392 164.169 107.122 166.108 106.25C168.048 105.378 170.168 104.927 172.315 104.928Z" fill="white" stroke="#263238" stroke-linecap="round" stroke-linejoin="round"/>
<path d="M172.315 104.928C174.298 104.926 176.259 105.314 178.075 106.068L181.542 107.516C183.935 108.352 186.001 109.863 187.459 111.844C188.918 113.826 189.7 116.182 189.7 118.597C189.7 121.012 188.918 123.369 187.459 125.35C186.001 127.331 183.935 128.842 181.542 129.678L178.075 131.127C176.107 131.939 173.972 132.325 171.826 132.258C169.68 132.191 167.577 131.672 165.67 130.738C163.763 129.805 162.099 128.481 160.801 126.862C159.503 125.244 158.602 123.371 158.165 121.382C157.727 119.392 157.764 117.335 158.272 115.361C158.781 113.386 159.748 111.544 161.103 109.968C162.459 108.392 164.169 107.122 166.108 106.25C168.048 105.378 170.168 104.927 172.315 104.928Z" fill="#5C5C5C" stroke="#263238" stroke-linecap="round" stroke-linejoin="round"/>
<path d="M177.431 108.247H191.794C194.653 108.305 197.375 109.42 199.376 111.354C201.376 113.289 202.497 115.888 202.497 118.595C202.497 121.301 201.376 123.901 199.376 125.835C197.375 127.769 194.653 128.885 191.794 128.942H177.431C174.572 128.885 171.85 127.769 169.85 125.835C167.849 123.901 166.729 121.301 166.729 118.595C166.729 115.888 167.849 113.289 169.85 111.354C171.85 109.42 174.572 108.305 177.431 108.247Z" fill="white" stroke="#263238" stroke-linecap="round" stroke-linejoin="round"/>
<path d="M177.431 108.247H191.794C194.653 108.305 197.375 109.42 199.376 111.354C201.376 113.289 202.497 115.888 202.497 118.595C202.497 121.301 201.376 123.901 199.376 125.835C197.375 127.769 194.653 128.885 191.794 128.942H177.431C174.572 128.885 171.85 127.769 169.85 125.835C167.849 123.901 166.729 121.301 166.729 118.595C166.729 115.888 167.849 113.289 169.85 111.354C171.85 109.42 174.572 108.305 177.431 108.247Z" fill="#263238" stroke="#263238" stroke-linecap="round" stroke-linejoin="round"/>
<path d="M181.418 108.247H184.816C181.956 108.305 179.235 109.42 177.234 111.354C175.234 113.289 174.113 115.888 174.113 118.595C174.113 121.301 175.234 123.901 177.234 125.835C179.235 127.769 181.956 128.885 184.816 128.942H181.418C178.559 128.885 175.837 127.769 173.837 125.835C171.836 123.901 170.716 121.301 170.716 118.595C170.716 115.888 171.836 113.289 173.837 111.354C175.837 109.42 178.559 108.305 181.418 108.247Z" fill="#5C5C5C" stroke="#263238" stroke-linecap="round" stroke-linejoin="round"/>
<path d="M189.352 99.0457H198.881C199.351 99.0445 199.809 99.1784 200.197 99.4295C200.584 99.6806 200.882 100.037 201.05 100.452L203.289 105.974H184.816C184.816 105.974 187.792 99.0457 189.352 99.0457Z" fill="#5C5C5C" stroke="#263238" stroke-linecap="round" stroke-linejoin="round"/>
<path d="M192.656 99.0457H198.881C199.351 99.0445 199.809 99.1784 200.197 99.4295C200.584 99.6806 200.882 100.037 201.05 100.452L203.289 105.974H188.248L190.486 100.452C190.656 100.038 190.953 99.6814 191.341 99.4303C191.728 99.1793 192.186 99.0452 192.656 99.0457Z" fill="#757575" stroke="#263238" stroke-linecap="round" stroke-linejoin="round"/>
<path d="M209.901 131.211H173.549C173.023 131.211 172.519 131.013 172.148 130.662C171.776 130.31 171.568 129.833 171.568 129.336V106.925C171.568 106.677 171.672 106.438 171.858 106.262C172.043 106.086 172.295 105.988 172.558 105.988H210.891C211.154 105.988 211.406 106.086 211.592 106.262C211.777 106.438 211.882 106.677 211.882 106.925V129.336C211.882 129.833 211.673 130.31 211.301 130.662C210.93 131.013 210.426 131.211 209.901 131.211Z" fill="#5C5C5C" stroke="#263238" stroke-linecap="round" stroke-linejoin="round"/>
<path d="M209.906 131.211H180.626C180.1 131.211 179.597 131.013 179.225 130.662C178.854 130.31 178.645 129.833 178.645 129.336V106.925C178.645 106.677 178.749 106.438 178.935 106.262C179.121 106.086 179.373 105.988 179.635 105.988H210.896C211.159 105.988 211.411 106.086 211.597 106.262C211.782 106.438 211.887 106.677 211.887 106.925V129.336C211.887 129.833 211.678 130.31 211.306 130.662C210.935 131.013 210.431 131.211 209.906 131.211Z" fill="#757575" stroke="#263238" stroke-linecap="round" stroke-linejoin="round"/>
<path d="M192.289 125.975H210.044C210.318 125.975 210.54 125.765 210.54 125.506V111.875C210.54 111.616 210.318 111.406 210.044 111.406H192.289C192.016 111.406 191.794 111.616 191.794 111.875V125.506C191.794 125.765 192.016 125.975 192.289 125.975Z" fill="white" stroke="#263238" stroke-linecap="round" stroke-linejoin="round"/>
<path d="M199.505 113.839L195.964 119.98" stroke="#263238" stroke-linecap="round" stroke-linejoin="round"/>
<path d="M204.671 116.91L200.595 123.674" stroke="#263238" stroke-linecap="round" stroke-linejoin="round"/>
<path d="M206.478 113.914L205.423 115.663" stroke="#263238" stroke-linecap="round" stroke-linejoin="round"/>
<path d="M193.151 105.561H199.282C199.556 105.561 199.778 105.351 199.778 105.093V101.971C199.778 101.712 199.556 101.502 199.282 101.502H193.151C192.877 101.502 192.656 101.712 192.656 101.971V105.093C192.656 105.351 192.877 105.561 193.151 105.561Z" fill="#263238" stroke="#263238" stroke-linecap="round" stroke-linejoin="round"/>
<path d="M189.709 115.878H191.789V113.91H189.709V115.878Z" fill="#5C5C5C" stroke="#263238" stroke-linecap="round" stroke-linejoin="round"/>
<path d="M189.709 118.236H191.789V116.267H189.709V118.236Z" fill="#5C5C5C" stroke="#263238" stroke-linecap="round" stroke-linejoin="round"/>
<path d="M189.709 120.589H191.789V118.621H189.709V120.589Z" fill="#5C5C5C" stroke="#263238" stroke-linecap="round" stroke-linejoin="round"/>
<path d="M189.709 122.947H191.789V120.978H189.709V122.947Z" fill="#5C5C5C" stroke="#263238" stroke-linecap="round" stroke-linejoin="round"/>
<path d="M184.603 114.2C183.728 114.199 182.872 114.444 182.144 114.903C181.416 115.363 180.849 116.016 180.513 116.781C180.178 117.546 180.089 118.388 180.26 119.2C180.43 120.012 180.85 120.758 181.469 121.344C182.087 121.93 182.875 122.329 183.733 122.491C184.591 122.653 185.481 122.571 186.289 122.254C187.098 121.937 187.789 121.401 188.275 120.712C188.761 120.024 189.021 119.214 189.021 118.386C189.021 117.837 188.907 117.292 188.686 116.785C188.464 116.277 188.139 115.815 187.728 115.427C187.318 115.038 186.831 114.729 186.295 114.519C185.758 114.308 185.183 114.2 184.603 114.2ZM184.603 120.81C184.097 120.809 183.602 120.666 183.182 120.399C182.761 120.132 182.434 119.753 182.241 119.31C182.048 118.867 181.998 118.38 182.097 117.91C182.196 117.441 182.441 117.009 182.799 116.671C183.157 116.332 183.613 116.102 184.11 116.009C184.607 115.916 185.121 115.964 185.589 116.148C186.056 116.331 186.456 116.642 186.737 117.04C187.018 117.439 187.168 117.907 187.168 118.386C187.167 119.029 186.896 119.646 186.415 120.1C185.934 120.554 185.282 120.81 184.603 120.81Z" fill="#5C5C5C" stroke="#263238" stroke-linecap="round" stroke-linejoin="round"/>
<path d="M182.944 118.386C182.944 118.694 183.04 118.995 183.221 119.251C183.402 119.507 183.659 119.707 183.96 119.824C184.261 119.942 184.591 119.972 184.911 119.912C185.23 119.852 185.523 119.703 185.752 119.485C185.982 119.267 186.138 118.989 186.201 118.687C186.264 118.385 186.231 118.072 186.106 117.787C185.98 117.503 185.769 117.26 185.498 117.09C185.227 116.919 184.908 116.829 184.583 116.83C184.367 116.83 184.154 116.87 183.954 116.948C183.755 117.027 183.574 117.141 183.422 117.286C183.27 117.431 183.149 117.602 183.067 117.791C182.985 117.98 182.943 118.182 182.944 118.386Z" fill="#263238" stroke="#263238" stroke-linecap="round" stroke-linejoin="round"/>
<path d="M190.105 108.247C190.105 108.368 190.143 108.485 190.214 108.586C190.284 108.686 190.385 108.764 190.503 108.81C190.62 108.856 190.75 108.868 190.875 108.845C190.999 108.821 191.114 108.763 191.204 108.678C191.294 108.593 191.356 108.484 191.38 108.366C191.405 108.248 191.392 108.125 191.344 108.014C191.295 107.903 191.213 107.807 191.107 107.74C191.001 107.673 190.876 107.638 190.749 107.638C190.579 107.639 190.416 107.704 190.295 107.818C190.175 107.932 190.106 108.086 190.105 108.247Z" fill="white" stroke="#263238" stroke-linecap="round" stroke-linejoin="round"/>
<path d="M199.347 152.488H203.269V147.542H199.347V152.488Z" fill="#5C5C5C" stroke="#263238" stroke-linecap="round" stroke-linejoin="round"/>
<path d="M194.974 151.302H202.056V148.873H194.974V151.302Z" fill="#5C5C5C" stroke="#263238" stroke-linecap="round" stroke-linejoin="round"/>
<path d="M184.702 153.809H180.779V158.755H184.702V153.809Z" fill="#5C5C5C" stroke="#263238" stroke-linecap="round" stroke-linejoin="round"/>
<path d="M189.07 155.141H181.988V157.569H189.07V155.141Z" fill="#5C5C5C" stroke="#263238" stroke-linecap="round" stroke-linejoin="round"/>
<path d="M193.909 163.212C192.71 164.216 191.472 165.194 190.194 166.147V163.212H193.909Z" fill="#5C5C5C" stroke="#263238" stroke-linecap="round" stroke-linejoin="round"/>
<path d="M191.165 147.542H194.226V138.533H191.165V147.542Z" fill="#5C5C5C" stroke="#263238" stroke-linecap="round" stroke-linejoin="round"/>
<path d="M188.971 160.076H196.435V146.061C196.435 145.597 196.339 145.138 196.152 144.709C195.965 144.28 195.69 143.89 195.344 143.562C194.998 143.234 194.586 142.973 194.133 142.796C193.681 142.618 193.195 142.527 192.705 142.527C192.215 142.527 191.729 142.618 191.276 142.796C190.823 142.973 190.411 143.234 190.065 143.562C189.718 143.89 189.443 144.28 189.255 144.708C189.068 145.137 188.971 145.597 188.971 146.061V160.076Z" fill="#5C5C5C" stroke="#263238" stroke-linecap="round" stroke-linejoin="round"/>
<path d="M198.599 160.076H186.911V163.212H198.599V160.076Z" fill="#5C5C5C" stroke="#263238" stroke-linecap="round" stroke-linejoin="round"/>
<path d="M187.03 139.424H198.391V131.666H187.03V139.424Z" fill="#263238" stroke="#263238" stroke-linecap="round" stroke-linejoin="round"/>
<path d="M202.709 131.675H182.944V133.409H202.709V131.675Z" fill="#263238" stroke="#263238" stroke-linecap="round" stroke-linejoin="round"/>
</svg>
