<svg width="285" height="277" viewBox="0 0 285 277" fill="none" xmlns="http://www.w3.org/2000/svg">
<path d="M43.6851 211.029C40.0486 211.912 0.208825 221.759 0.622585 230.363C0.914895 236.442 20.995 235.686 51.3015 250.088C74.5623 261.142 74.6923 267.271 88.9443 273.133C114.387 283.598 122.239 267.466 175.508 256.728C210.371 249.701 226.837 252.614 258.557 236.808C269.842 231.185 285.09 223.587 284.482 216.888C283.82 209.593 264.728 207.518 180.342 203.413C127.845 200.859 91.1237 199.516 43.6851 211.029Z" fill="#EBEFF2"/>
<path d="M138.451 237.785C138.536 239.319 130.411 240.353 130.249 244.034C130.055 248.45 141.584 250.722 141.674 255.752C141.695 256.916 141.139 260.239 129.663 265.126C117.498 270.306 106.585 274.957 93.192 270.789C84.5654 268.105 85.9524 265.064 69.3173 256.338C55.1798 248.922 47.5029 247.617 47.6397 245.011C47.7921 242.106 57.821 240.701 73.272 239.152C110.694 235.401 138.296 234.966 138.451 237.785Z" fill="#D8DEE8"/>
<path d="M267.746 81.9712L185.412 80.3107C178.715 80.1756 173.016 88.0291 172.771 97.8534C172.526 107.678 177.833 115.546 184.537 115.429L266.948 113.99C272.445 113.894 277.026 106.733 277.244 97.9939C277.462 89.255 273.238 82.0819 267.746 81.9712Z" fill="#00B49F"/>
<path d="M239.976 120.283L195.297 121.719C191.76 121.832 188.762 126.124 188.632 131.303C188.503 136.482 191.295 140.509 194.834 140.3L239.543 137.656C242.607 137.475 245.165 133.474 245.284 128.717C245.403 123.961 243.038 120.184 239.976 120.283Z" fill="url(#paint0_linear_163_17667)"/>
<path d="M255.933 42.7487L214.377 40.0255C211.158 39.8146 208.433 43.5909 208.311 48.4617C208.19 53.3324 210.719 57.4018 213.94 57.5503L255.516 59.4658C258.427 59.5999 260.864 55.9887 260.979 51.4005C261.093 46.8124 258.842 42.9394 255.933 42.7487Z" fill="#00B49F"/>
<path d="M273.634 52.0653C273.522 56.5626 271.167 60.104 268.356 59.9744C265.527 59.8439 263.312 56.0471 263.426 51.4951C263.539 46.9431 265.937 43.4042 268.765 43.5895C271.574 43.7735 273.747 47.568 273.634 52.0653Z" fill="#00B49F"/>
<g opacity="0.5">
<path d="M261.554 64.1747L230.262 62.8796C227.866 62.7804 225.839 65.7241 225.746 69.455C225.653 73.1859 227.53 76.2614 229.927 76.3238L261.231 77.1385C263.448 77.1961 265.309 74.3545 265.398 70.7916C265.486 67.2288 263.771 64.2665 261.554 64.1747Z" fill="url(#paint1_linear_163_17667)"/>
<path d="M275.088 71.111C274.988 74.6144 273.169 77.3981 271.014 77.328C268.848 77.2576 267.166 74.3331 267.267 70.7968C267.368 67.2605 269.213 64.4777 271.378 64.5814C273.531 64.6845 275.188 67.6077 275.088 71.111Z" fill="url(#paint2_linear_163_17667)"/>
</g>
<path d="M75.6106 134.091C72.2787 133.807 69.1323 130.992 67.7787 126.657L48.6917 65.5285C46.9539 59.9624 48.9145 53.6629 53.0924 51.429C57.2998 49.1797 63.8588 51.829 65.6415 57.454L85.2227 119.246C87.0687 125.072 84.987 131.442 80.5964 133.446C79.515 133.94 76.7098 134.185 75.6106 134.091Z" fill="#311944"/>
<path d="M41.602 39.2984C41.7661 39.2984 41.9288 39.3154 42.0901 39.3448L53.889 39.172V80.0763L42.4957 79.8684C42.2027 79.9675 41.9046 80.0194 41.602 80.0194C37.5582 80.0194 34.28 70.9039 34.28 59.6591C34.28 48.4142 37.5582 39.2984 41.602 39.2984Z" fill="#311944"/>
<path d="M53.8888 39.1719C49.4195 52.7924 49.4195 66.3646 53.8888 80.0763L141.655 117.7L142.561 2.89417L53.8888 39.1719Z" fill="#00B49F"/>
<path d="M127.207 59.8441C127.207 92.6313 136.766 119.211 148.556 119.211C160.347 119.211 169.905 92.6313 169.905 59.8441C169.905 27.0568 160.347 0.477295 148.556 0.477295C136.766 0.477295 127.207 27.0568 127.207 59.8441Z" fill="#200436"/>
<path d="M148.556 117.196C151.059 117.196 153.519 115.796 155.867 113.035C158.257 110.224 160.417 106.159 162.29 100.952C166.227 90.005 168.395 75.4063 168.395 59.8441C168.395 44.2821 166.227 29.6828 162.29 18.7362C160.417 13.5288 158.257 9.46386 155.867 6.65329C153.519 3.8917 151.059 2.4917 148.556 2.4917C146.053 2.4917 143.593 3.8917 141.246 6.65329C138.856 9.46386 136.695 13.5288 134.822 18.7362C133.176 23.3132 131.839 28.5288 130.841 34.1864C129.452 42.0597 128.718 50.789 128.718 59.8441C128.718 69.4729 129.548 78.7327 131.113 86.9871C132.078 92.0735 133.321 96.7782 134.822 100.952C136.695 106.159 138.856 110.224 141.246 113.035C143.593 115.796 146.053 117.196 148.556 117.196Z" fill="#1F0B30"/>
<path d="M150.313 60.6229C150.313 75.6635 142.786 88.6936 133.76 87.3016C128.752 86.5294 127.323 74.1582 127.323 59.5362C127.323 44.9141 128.19 32.7793 133.76 33.6027C142.789 34.9377 150.313 45.5822 150.313 60.6229Z" fill="#3C155B"/>
<path d="M148.878 60.3781C148.878 71.547 145.239 80.4152 140.812 80.189C136.455 79.9662 132.971 70.9861 132.971 60.1281C132.971 49.2702 136.455 40.3995 140.812 40.3137C145.239 40.2267 148.878 49.2091 148.878 60.3781Z" fill="#6C29A1"/>
<path d="M214.194 106.91C214.361 108.492 211.761 111.111 209.371 110.831C206.112 110.449 203.39 104.69 203.1 100.116C203.038 99.1363 203.084 98.1516 202.934 98.1222C202.555 98.0476 201.579 104.053 200.814 109.145C200.198 109.445 199.265 109.764 198.199 109.531C196.454 109.15 196.246 107.704 194.294 106.762C193.155 106.212 192.04 106.211 189.808 106.208C187.289 106.205 187.219 106.619 186.734 106.319C186.734 106.319 186.614 106.231 186.511 106.132C184.717 104.415 189.849 91.3625 188.372 79.3196C188.208 77.9811 187.956 76.6067 188.516 75.2668C189.965 71.8044 195.692 71.3164 199.239 73.5948C200.212 74.2195 201.841 75.5859 203.295 77.0259C203.876 77.6012 204.481 78.2454 205.111 78.9801C207.065 81.2553 208.358 83.3427 208.583 83.7225C211.93 89.3641 206.915 99.9011 210.43 104.243C211.961 106.135 214.05 105.541 214.194 106.91Z" fill="url(#paint3_linear_163_17667)"/>
<path d="M203.641 72.344C203.641 72.344 202.72 73.7386 201.73 74.4611C200.835 75.1142 198.863 74.0144 198.406 73.8851C197.95 73.7558 198.498 75.3942 199.359 76.5232C200.22 77.6522 203.065 80.2346 203.832 80.2778C204.6 80.321 203.709 79.425 203.238 78.3814C202.766 77.3379 203.431 75.1805 204.025 74.5158C204.62 73.8509 203.641 72.344 203.641 72.344Z" fill="#FCB248"/>
<path d="M205.757 73.4348C206.802 73.3288 207.858 71.613 207.645 70.8639C207.584 70.6498 207.448 70.6156 205.402 70.1663C204.386 69.9432 203.878 69.8511 203.527 70.2255C203.313 70.454 203.145 70.8613 203.093 71.2463C203.065 71.4444 203.064 71.717 203.089 72.2604C203.112 72.7426 203.106 72.7215 203.115 72.8639C203.137 73.206 203.207 73.8076 203.457 74.6418C203.562 74.4895 203.7 74.3074 203.874 74.1282C203.941 74.0591 204.206 73.7922 204.507 73.6303C205.026 73.3516 205.418 73.469 205.757 73.4348Z" fill="url(#paint4_linear_163_17667)"/>
<path d="M203.076 73.7123C203.076 73.7123 203.122 75.0458 204.064 75.6311C204.908 76.1552 206.028 73.8064 205.72 72.9095C205.617 72.6103 205.299 72.2848 204.973 72.184C204.78 72.1245 204.685 72.176 204.372 72.0704C204.083 71.9732 204.027 71.8836 203.916 71.9136C203.776 71.9511 203.598 72.1626 203.465 72.9914C203.396 72.6679 203.242 72.4512 203.076 72.4381C203.05 72.4359 202.973 72.4455 202.91 72.4996C202.681 72.6947 202.726 73.1892 203.076 73.7123Z" fill="#DF9122"/>
<path d="M213.475 107.973C213.475 107.973 214.471 106.538 214.875 105.397C215.279 104.257 216.053 104.293 216.239 104.733C216.424 105.172 215.696 106.952 215.28 107.476C214.865 108 213.475 107.973 213.475 107.973Z" fill="url(#paint5_linear_163_17667)"/>
<path d="M222.769 104.962L41.1953 98.4303C31.8103 98.0927 24.0842 108.188 24.0842 120.983V169.483C24.0842 182.278 31.8103 192.274 41.1953 191.818L222.769 182.974C229.218 182.66 234.379 173.983 234.379 163.59V124.197C234.379 113.804 229.218 105.194 222.769 104.962Z" fill="#97A6B7"/>
<path d="M41.1954 188.776C33.0841 189.149 26.3965 180.467 26.3965 169.418V121.019C26.3965 109.97 33.0841 101.203 41.1954 101.472L222.769 107.503C228.354 107.688 232.848 115.166 232.848 124.174V163.633C232.848 172.641 228.354 180.177 222.769 180.433L41.1954 188.776Z" fill="#D8DEE8"/>
<path d="M63.9978 120.619L68.9313 134.52C69.1132 135.033 69.4648 135.388 69.8711 135.472L80.7227 137.691C81.724 137.895 82.1234 139.622 81.3995 140.616L73.5794 151.346C73.2875 151.747 73.1541 152.321 73.223 152.88L75.0808 167.959C75.2538 169.363 74.194 170.47 73.2858 169.831L63.4535 162.913C63.0858 162.655 62.6464 162.664 62.278 162.94L52.2414 170.454C51.2956 171.163 50.188 170.096 50.3692 168.649L52.307 153.169C52.3787 152.596 52.24 152.015 51.9364 151.614L43.6746 140.705C42.8975 139.679 43.3266 137.888 44.3994 137.676L55.7692 135.437C56.1858 135.355 56.5458 134.997 56.7321 134.48L61.732 120.582C62.1962 119.292 63.5351 119.316 63.9978 120.619Z" fill="#D8DEE8"/>
<path d="M103.977 121.266L108.552 134.652C108.721 135.146 109.047 135.489 109.424 135.569L119.495 137.706C120.425 137.903 120.795 139.567 120.123 140.524L112.865 150.86C112.594 151.246 112.47 151.798 112.534 152.338L114.258 166.865C114.419 168.218 113.435 169.282 112.593 168.666L103.472 161.994C103.131 161.745 102.723 161.754 102.382 162.019L93.0788 169.244C92.2023 169.925 91.1761 168.897 91.3439 167.505L93.1393 152.605C93.2058 152.054 93.0774 151.495 92.7959 151.108L85.1432 140.607C84.4235 139.619 84.8207 137.896 85.8143 137.692L96.3479 135.537C96.734 135.458 97.0676 135.113 97.2402 134.615L101.876 121.232C102.306 119.99 103.548 120.011 103.977 121.266Z" fill="#FCB248"/>
<path d="M141.101 121.867L145.357 134.775C145.514 135.251 145.817 135.581 146.168 135.658L155.54 137.719C156.405 137.91 156.75 139.516 156.125 140.439L149.369 150.409C149.117 150.78 149.002 151.313 149.061 151.833L150.665 165.848C150.815 167.153 149.9 168.179 149.116 167.584L140.632 161.141C140.315 160.9 139.936 160.909 139.618 161.164L130.971 168.121C130.157 168.777 129.204 167.785 129.36 166.443L131.028 152.082C131.09 151.551 130.97 151.012 130.709 150.639L123.6 140.516C122.931 139.564 123.3 137.903 124.223 137.707L134.009 135.629C134.368 135.553 134.679 135.22 134.839 134.74L139.148 121.835C139.548 120.637 140.703 120.657 141.101 121.867Z" fill="#FCB248"/>
<path d="M175.668 122.427L179.636 134.889C179.782 135.349 180.065 135.668 180.392 135.742L189.134 137.732C189.942 137.916 190.264 139.468 189.68 140.36L183.377 149.988C183.142 150.347 183.035 150.862 183.09 151.364L184.587 164.9C184.726 166.161 183.872 167.152 183.141 166.576L175.23 160.347C174.934 160.114 174.581 160.122 174.285 160.369L166.227 167.077C165.469 167.708 164.58 166.751 164.726 165.455L166.28 151.596C166.337 151.083 166.226 150.563 165.982 150.203L159.361 140.431C158.739 139.513 159.082 137.91 159.942 137.721L169.058 135.715C169.392 135.641 169.681 135.32 169.831 134.857L173.846 122.397C174.219 121.24 175.296 121.259 175.668 122.427Z" fill="#BDC2CC"/>
<path d="M207.931 122.949L211.639 134.996C211.776 135.44 212.04 135.749 212.346 135.821L220.521 137.745C221.276 137.923 221.578 139.423 221.032 140.285L215.137 149.595C214.917 149.942 214.817 150.44 214.869 150.925L216.268 164.016C216.398 165.235 215.6 166.192 214.916 165.634L207.522 159.605C207.246 159.38 206.915 159.387 206.639 159.626L199.112 166.102C198.403 166.712 197.574 165.786 197.709 164.534L199.16 151.142C199.214 150.647 199.11 150.144 198.883 149.796L192.701 140.353C192.12 139.465 192.441 137.917 193.243 137.734L201.755 135.795C202.068 135.724 202.337 135.413 202.477 134.965L206.229 122.921C206.577 121.803 207.583 121.82 207.931 122.949Z" fill="#BCC2CC"/>
<path d="M63.9978 120.619L68.9313 134.52C69.1132 135.033 69.4648 135.388 69.8711 135.472L80.7227 137.691C81.724 137.895 82.1234 139.622 81.3995 140.616L73.5794 151.346C73.2875 151.747 73.1541 152.321 73.223 152.88L75.0808 167.959C75.2538 169.363 74.194 170.47 73.2858 169.831L63.4535 162.913C63.0858 162.655 62.6464 162.664 62.278 162.94L52.2414 170.454C51.2956 171.163 50.188 170.096 50.3692 168.649L52.307 153.169C52.3787 152.596 52.24 152.015 51.9364 151.614L43.6746 140.705C42.8975 139.679 43.3266 137.888 44.3994 137.676L55.7692 135.437C56.1858 135.355 56.5458 134.997 56.7321 134.48L61.732 120.582C62.1962 119.292 63.5351 119.316 63.9978 120.619Z" fill="#FCB248"/>
<path d="M186.762 111.134C185.091 108.814 183.519 108.544 181.568 103.42C177.949 93.3163 180.549 88.013 182.1 83.8864C183.877 79.1551 186.582 76.5834 188.225 75.0205C190.264 73.0815 191.508 71.8981 192.961 72.2406C196.718 73.1266 199.073 83.56 196.926 86.4207C196.223 87.3573 195.565 86.7795 193.581 87.5254C192.934 87.7684 187.376 89.9505 187.039 95.5466C186.818 100.084 187.418 100.131 188.698 108.946C187.794 109.84 187.749 110.416 186.762 111.134Z" fill="url(#paint6_linear_163_17667)"/>
<path d="M186.841 110.5L187.631 109.833C187.631 109.833 188.073 110.314 188.648 110.316C188.961 110.317 189.36 110.61 189.446 110.752C189.531 110.893 189.946 111.257 189.329 111.108C188.713 110.959 188.599 111.18 188.661 111.603C188.723 112.026 189.173 113.24 189.422 113.517C189.67 113.793 188.905 113.879 188.603 113.694C188.302 113.51 187.821 113.181 187.512 112.245C187.4 111.904 186.841 110.5 186.841 110.5Z" fill="url(#paint7_linear_163_17667)"/>
<path d="M204.802 94.259L209.54 107.06C209.716 107.534 210.055 107.862 210.448 107.939L221.042 109.991C222.031 110.182 222.426 111.802 221.71 112.732L214.044 122.696C213.76 123.065 213.631 123.597 213.697 124.118L215.507 138.187C215.676 139.5 214.643 140.501 213.759 139.881L204.283 133.238C203.931 132.992 203.512 132.992 203.161 133.238L193.685 139.881C192.801 140.501 191.767 139.5 191.936 138.187L193.746 124.118C193.813 123.597 193.683 123.065 193.399 122.696L185.733 112.732C185.018 111.802 185.412 110.182 186.401 109.991L196.996 107.939C197.388 107.862 197.727 107.534 197.903 107.06L202.641 94.259C203.083 93.0647 204.36 93.0647 204.802 94.259Z" fill="#FCB248"/>
<path d="M226.159 153.358C226.353 154.078 227.682 158.756 231.257 160.415C234.183 161.772 236.874 160.3 237.254 160.083C239.565 158.765 239.913 156.798 241.035 157.016C242.94 157.386 244.916 163.628 243.359 167.033C241.603 170.871 235.964 169.783 233.001 168.251C229.113 166.24 227.192 162.098 226.808 161.233C225.809 158.984 225.415 156.863 225.242 155.483C225.548 154.775 225.853 154.066 226.159 153.358Z" fill="url(#paint8_linear_163_17667)"/>
<path d="M225.106 150.362L226.309 151.451L225.804 154.18L225.242 155.483L224.479 152.946L225.106 150.362Z" fill="url(#paint9_linear_163_17667)"/>
<path d="M245.835 221.651C245.835 221.651 246.761 224.759 246.518 226.137C247.512 226.111 248.156 225.942 248.156 225.942C248.156 225.942 247.756 224.525 247.678 223.823C247.573 222.874 247.58 221.339 247.58 221.339L245.835 221.651Z" fill="url(#paint10_linear_163_17667)"/>
<path d="M235.623 228.92C235.683 229.016 235.789 229.218 235.798 229.49C235.803 229.639 235.777 229.761 235.745 229.873C235.587 230.427 235.339 230.5 235.072 231.088C234.908 231.448 234.939 231.556 234.789 231.718C234.591 231.932 234.353 231.944 234.145 231.947C233.796 231.953 233.291 231.936 232.657 231.835C232.989 231.264 233.343 230.683 233.719 230.097C233.884 229.84 234.049 229.59 234.213 229.345L235.19 228.904C235.334 228.909 235.479 228.914 235.623 228.92Z" fill="#26264F"/>
<path d="M234.81 222.591C234.81 222.591 234.251 226.479 234.962 227.567C235.568 228.656 234.67 227.879 234.67 227.879L233.597 229.128L232.953 230.61C232.953 230.61 233.546 226.805 233.388 225.295C233.23 223.785 233.151 222.767 233.151 222.767L234.81 222.591Z" fill="url(#paint11_linear_163_17667)"/>
<path d="M232.703 180.069C232.703 180.069 231.202 181.86 231.202 189.234C231.202 196.608 231.913 212.619 231.913 212.619L233.051 224.083C233.051 224.083 234.23 224.139 235.021 223.823C235.732 219.504 236.89 212.198 236.337 206.088C236.1 199.452 238.312 191.13 238.312 191.13C238.312 191.13 240.209 199.557 241.552 203.771C242.895 207.984 245.452 221.184 245.689 222.132C247.26 222.322 247.932 221.768 247.932 221.768C247.932 221.768 246.924 207.563 245.976 202.191C245.028 196.819 245.107 183.862 243.527 180.175C239.972 178.279 232.703 180.069 232.703 180.069Z" fill="url(#paint12_linear_163_17667)"/>
<path d="M246.274 227.316C246.274 227.316 246.043 227.316 246.062 227.714C246.081 228.111 245.958 229.48 247.132 229.544C248.305 229.608 248.486 229.433 248.525 229.433C248.563 229.433 248.217 228.124 248.217 228.124L247.842 227.483L246.832 227.342L246.274 227.316Z" fill="#26264F"/>
<path d="M248.876 228.689C248.851 228.359 248.713 227.839 248.573 227.421C248.366 226.799 248.536 226.566 248.338 226C248.269 225.804 248.203 225.619 248.058 225.435C248.025 225.393 247.701 224.994 247.23 225.014C247.137 225.018 246.994 225.026 246.839 225.136C246.657 225.265 246.566 225.459 246.488 225.63C246.366 225.898 246.394 225.98 246.205 226.748C246.19 226.81 246.157 226.944 246.132 227.129C246.112 227.27 246.104 227.389 246.101 227.47C246.409 227.47 247.592 227.534 247.842 227.778C248.092 228.022 248.217 228.432 248.217 228.843C248.217 229.253 248.371 229.446 248.525 229.433C248.663 229.421 248.936 229.082 248.876 228.689Z" fill="#444B8C"/>
<path d="M234.66 227.021C234.924 227.026 235.118 227.307 235.264 227.983C235.411 228.659 236.113 229.258 235.293 229.114C234.474 228.971 233.88 230.519 233.587 231.091C233.295 231.663 232.509 232.171 232.529 231.612C232.548 231.053 232.895 230.792 232.992 230.22C233.09 229.648 234.057 227.009 234.66 227.021Z" fill="#444B8C"/>
<path d="M240.228 154.887C237.382 154.735 235.187 154.795 233.948 156.447C232.638 158.192 233.962 160.161 233.677 164.725C233.242 171.712 229.903 173.419 229.652 180.507C229.567 182.896 229.87 184.848 230.105 186.024C230.838 187.241 232.038 188.958 233.808 190.394C236.384 192.483 237.878 192.119 241.577 193.469C247.628 195.677 248.167 198.307 251.168 197.637C254.2 196.96 256.861 193.557 256.539 191.689C256.347 190.57 255.124 190.887 253.717 189.18C251.903 186.98 252.602 184.88 251.223 182.516C249.242 179.121 246.482 181.197 244.794 178.254C243.086 175.277 243.764 169.412 245.203 166.214C246.143 164.126 246.546 161.679 247.346 159.489C247.413 159.307 247.49 159.009 247.456 158.636C247.326 157.21 245.543 156.436 244.193 155.869C242.133 155.003 240.462 154.899 240.228 154.887Z" fill="url(#paint13_linear_163_17667)"/>
<path d="M237.831 154.73L238.392 154.5C238.392 154.5 238.539 155.513 240.343 155.639C241.345 155.639 241.993 154.891 241.993 154.891L242.376 155.264C242.376 155.264 241.535 156.665 240.197 156.629C238.47 156.583 237.831 154.73 237.831 154.73Z" fill="url(#paint14_linear_163_17667)"/>
<path d="M238.974 151.648C239.082 150.535 239.741 149.822 239.885 149.67C240.488 149.031 240.611 148.967 240.818 148.914L241.101 148.857C241.101 148.857 241.116 148.858 241.132 148.859C241.297 148.872 241.793 149.13 241.883 149.215C242.171 149.485 241.959 151.398 241.086 153.777C241.051 153.979 241.017 154.18 240.983 154.382C241.744 154.56 241.932 154.743 241.938 154.889C241.951 155.206 241.118 155.61 240.346 155.636C239.377 155.669 238.349 155.114 238.368 154.699C238.376 154.531 238.559 154.324 239.262 154.121C239.372 153.915 239.482 153.708 239.592 153.502C239.492 153.341 238.894 152.468 238.974 151.648Z" fill="url(#paint15_linear_163_17667)"/>
<path d="M268.656 149.499C265.614 145.507 258.935 147.09 255.33 150.69C253.655 152.362 252.833 154.262 250.792 154.55C249.24 154.769 246.736 154.15 245.351 151.987C245.176 151.715 244.476 150.57 243.434 149.137C242.975 148.504 242.52 147.913 241.845 147.817C241.673 147.792 241.102 147.706 240.745 148.218C240.456 148.633 240.407 149.325 240.515 149.815C240.579 150.108 240.65 150.135 240.647 150.329C240.639 150.876 239.904 151.161 239.955 151.433C239.992 151.627 240.377 151.53 240.452 151.772C240.535 152.037 240.119 152.297 239.961 152.987C239.629 153.315 239.441 154.09 239.403 155.112C239.348 156.616 239.505 157.824 239.751 158.726C240.936 163.068 241.784 166.173 243.621 167.819C246.052 169.998 248.086 167.708 254.042 166.979C262.198 165.981 264.371 169.542 267.216 166.824C270.768 163.431 271.814 153.643 268.656 149.499Z" fill="url(#paint16_linear_163_17667)"/>
<path d="M219.671 166.95C220.296 167.334 223.087 168.935 226.178 167.385C229.066 165.936 230.623 163.442 230.952 162.913C232.638 160.219 233.819 156.66 234.788 155.873C236.433 154.539 238.236 158.246 238.665 162.193C239.149 166.643 234.284 170.6 231.269 171.938C227.313 173.695 223.852 172.137 223.142 171.798C221.297 170.915 219.979 169.616 219.186 168.7C219.192 168.473 219.22 168.135 219.327 167.754C219.43 167.392 219.567 167.123 219.671 166.95Z" fill="url(#paint17_linear_163_17667)"/>
<path d="M219.749 167.471C219.559 167.153 219.139 166.54 218.451 166.204C217.114 165.55 215.725 166.411 215.74 166.617C215.748 166.729 216.175 166.783 216.367 166.794C216.768 166.815 216.842 166.677 217.006 166.765C217.344 166.946 217.19 167.616 217.559 168.172C217.824 168.572 218.288 168.803 218.728 168.697C219.459 168.523 219.738 167.514 219.749 167.471Z" fill="url(#paint18_linear_163_17667)"/>
<path d="M149.379 216.414C148.785 217.212 148.545 218.07 148.76 218.572C148.91 218.919 149.239 219.01 149.6 219.102C150.17 219.248 150.764 219.209 151.985 218.749C153.125 218.319 153.796 218.067 153.796 217.702C153.797 217.36 153.211 217.094 152.696 216.861C151.969 216.532 151.33 216.438 150.892 216.414C150.387 216.414 149.883 216.414 149.379 216.414Z" fill="url(#paint19_linear_163_17667)"/>
<path d="M150.681 214.655L149.404 216.543C149.273 216.737 149.338 217.049 149.527 217.119C149.806 217.223 150.197 217.307 150.555 217.172C150.633 217.142 150.703 217.079 150.761 217.003L152.036 215.343L150.681 214.655Z" fill="url(#paint20_linear_163_17667)"/>
<path d="M155.452 174.612C156.106 176.436 156.895 179.067 157.374 182.359C157.575 183.744 158.517 190.717 156.493 199.119C154.608 206.939 151.138 211.917 149.291 214.225C149.553 214.52 149.915 214.866 150.384 215.157C151.134 215.622 151.819 215.736 152.258 215.759C157.898 210.392 160.633 204.31 161.874 201.001C166.062 189.835 165.012 178.874 163.181 174.238C162.58 172.716 161.901 171.891 161.131 171.524C158.663 170.347 155.8 174.139 155.452 174.612Z" fill="url(#paint21_linear_163_17667)"/>
<path d="M165.282 203.574C165.006 203.696 164.646 203.926 164.526 204.362C164.335 205.05 164.852 205.845 165.68 207.088C166.301 208.021 167.141 209.281 167.479 209.028C167.686 208.874 167.613 208.221 167.546 207.613C167.464 206.881 167.253 205.739 166.626 204.44C166.626 204.44 166.626 204.44 165.282 203.574Z" fill="url(#paint22_linear_163_17667)"/>
<path d="M158.795 173.426C159.042 174.281 159.486 175.565 160.275 176.878C162.274 180.205 164.355 180.16 166.522 182.963C166.789 183.308 168.705 185.842 169.246 189.27C170.287 195.868 165.59 201.695 165.071 202.321C165.323 202.693 165.709 203.182 166.251 203.614C166.749 204.012 167.214 204.23 167.561 204.354C174.188 197.617 177.787 188.927 176.141 182.806C175.243 179.467 172.766 176.823 170.936 174.87C167.945 171.676 164.995 170.037 163.061 169.178C161.639 170.594 160.217 172.01 158.795 173.426Z" fill="url(#paint23_linear_163_17667)"/>
<path d="M162.311 157.096C162.404 160.723 161.773 162.604 162.656 165.564C163.291 167.691 164.342 169.153 165.14 170.062C164.686 171.224 163.628 173.543 161.563 175.355C159.068 177.544 156.586 177.691 155.612 177.68C153.548 176.263 150.417 173.595 147.903 168.842C146.2 165.62 144.329 162.083 144.824 157.573C145.453 151.844 149.434 148.784 150.563 147.916C151.306 147.345 156.437 143.401 159.573 146.3C162.095 148.631 162.242 154.384 162.311 157.096Z" fill="url(#paint24_linear_163_17667)"/>
<path d="M151.972 143.993L151.54 145.937C151.402 146.559 151.122 147.108 150.739 147.508L149.594 148.703C149.594 148.703 153.086 147.922 154.757 145.751L153.737 145.322C153.63 145.277 153.557 145.145 153.557 144.995V143.566L151.972 143.993Z" fill="url(#paint25_linear_163_17667)"/>
<path d="M153.227 144.975C153.394 144.926 154.599 145.189 154.942 144.416C155.407 143.367 154.944 141.691 154.897 141.432C154.702 140.348 154.629 140.184 154.478 139.955L154.265 139.654C154.265 139.654 154.252 139.64 154.237 139.627C154.089 139.491 153.535 139.27 153.415 139.262C153.033 139.237 152.256 141.064 151.811 143.879C151.774 143.979 151.739 144.081 151.703 144.183C151.611 144.45 153.216 145.078 153.227 144.975Z" fill="url(#paint26_linear_163_17667)"/>
<path d="M155.172 139.131C154.998 139.991 154.51 140.801 154.325 140.894C154.302 140.906 154.165 140.984 154.024 141.151C154.005 141.174 153.986 141.202 153.967 141.24C153.717 141.731 154.236 142.599 154.063 142.797C153.937 142.941 153.545 142.55 153.462 142.683C153.384 142.809 153.69 143.235 153.6 143.386C153.532 143.5 153.331 143.302 153.15 143.45C153.059 143.524 153.064 143.609 152.929 143.884C152.853 144.04 152.756 144.206 152.69 144.293C152.366 144.719 151.697 144.679 151.616 144.434C151.594 144.365 151.632 144.328 151.636 144.127C151.636 144.127 151.638 143.94 151.588 143.706C151.515 143.37 151.241 143.051 150.984 142.632C150.508 141.857 150.444 141.318 150.429 141.138C150.423 141.074 150.421 141.027 150.42 140.992C150.394 140.304 150.579 139.372 150.907 138.876C151.457 138.044 152.174 138.787 153.025 138.071C154.007 137.246 153.852 135.585 154.3 135.567C154.792 135.546 155.494 137.543 155.172 139.131Z" fill="#26264F"/>
<path d="M170.41 100.66L176.122 113.018C176.334 113.476 176.701 113.766 177.104 113.793L187.977 114.524C188.992 114.592 189.507 116.182 188.849 117.214L181.8 128.276C181.539 128.686 181.446 129.241 181.551 129.761L184.389 143.775C184.654 145.082 183.679 146.227 182.74 145.712L172.671 140.191C172.298 139.987 171.873 140.04 171.535 140.334L162.416 148.264C161.565 149.004 160.447 148.122 160.524 146.772L161.351 132.297C161.381 131.761 161.212 131.239 160.898 130.901L152.424 121.788C151.633 120.937 151.917 119.248 152.904 118.928L163.484 115.503C163.876 115.376 164.196 115 164.34 114.497L168.221 100.935C168.584 99.6699 169.877 99.5075 170.41 100.66Z" fill="#FCB248"/>
<path d="M180.814 145.832C180.667 145.269 180.782 144.692 180.848 144.363C180.924 143.982 180.978 143.992 181.01 143.703C181.092 142.975 180.798 142.512 180.905 142.407C180.998 142.317 181.332 142.556 181.486 142.951C181.658 143.393 181.477 143.701 181.624 143.906C181.831 144.194 182.495 144.012 182.938 143.508C183.45 142.924 183.466 142.092 183.758 142.077C183.97 142.066 184.134 142.481 184.148 142.517C184.451 143.299 184.03 144.684 183.329 145.357C182.925 145.745 182.675 145.66 182.24 146.222C181.951 146.594 181.899 146.839 181.69 146.876C181.347 146.936 180.955 146.37 180.814 145.832Z" fill="url(#paint27_linear_163_17667)"/>
<path d="M180.781 145.5C176.365 149.432 172.934 149.932 170.623 149.669C165.381 149.071 162.282 144.127 157.291 145.968C156.38 146.304 154.795 146.889 154.445 148.408C153.716 151.563 158.647 157.332 163.798 159.259C164.936 159.685 168.991 161.116 173.6 158.622C179.507 155.425 181.67 148.298 182.033 147.044C182.109 146.557 181.981 146.055 181.699 145.744C181.303 145.306 180.82 145.484 180.781 145.5Z" fill="url(#paint28_linear_163_17667)"/>
<path d="M101.34 241.771H102.515C102.806 242.396 103.129 243.286 102.87 243.857C102.691 244.253 102.389 244.15 101.54 244.509C100.354 245.011 100.067 245.583 99.0521 245.679C98.6799 245.714 98.4079 245.74 98.3352 245.563C98.1264 245.055 99.7378 243.33 101.34 241.771Z" fill="url(#paint29_linear_163_17667)"/>
<path d="M101.521 242.295C101.621 242.349 101.719 242.407 101.816 242.454C102.141 242.611 102.481 242.276 102.483 241.815C102.483 241.8 102.483 241.785 102.483 241.77C102.488 241.087 102.593 240.538 102.674 240.194C102.242 240.168 101.81 240.141 101.377 240.114C101.477 240.88 101.442 241.426 101.35 241.823C101.306 242.015 101.382 242.219 101.521 242.295Z" fill="url(#paint30_linear_163_17667)"/>
<path d="M101.075 241.789C99.4818 236.068 98.985 231.163 98.8247 227.856C98.5146 221.459 98.911 215.703 100.832 212.574C102.638 209.633 104.319 209.531 108.338 204.551C109.663 202.909 110.663 201.454 111.288 200.505C117.315 198.147 122.874 199.103 125.327 203.413C125.611 203.911 126.32 204.991 126.458 206.584C126.767 210.178 124.119 214.505 121.147 215.408C117.37 216.556 115.179 211.386 111.833 213.106C110.897 213.587 110.103 214.78 108.516 217.165C106.497 220.199 105.852 222.152 105.256 223.127C103.481 226.031 103.783 231.292 104.028 234.472C104.085 235.213 104.246 236.7 103.797 238.438C103.451 239.773 102.881 240.736 102.443 241.35C101.987 241.496 101.531 241.643 101.075 241.789Z" fill="url(#paint31_linear_163_17667)"/>
<path d="M104.86 244.067L106.009 244.396C106.195 245.089 106.371 246.049 106.028 246.535C105.791 246.872 105.512 246.687 104.626 246.8C103.386 246.959 103.017 247.439 102.009 247.248C101.639 247.178 101.369 247.127 101.326 246.934C101.202 246.38 103.048 245.144 104.86 244.067Z" fill="url(#paint32_linear_163_17667)"/>
<path d="M104.955 244.63C105.044 244.711 105.131 244.795 105.218 244.868C105.512 245.112 105.896 244.88 105.971 244.429C105.973 244.415 105.976 244.4 105.978 244.386C106.091 243.72 106.279 243.212 106.413 242.899C105.995 242.752 105.576 242.605 105.157 242.458C105.134 243.234 105.014 243.758 104.862 244.121C104.789 244.296 104.831 244.517 104.955 244.63Z" fill="url(#paint33_linear_163_17667)"/>
<path d="M104.343 242.012C104.558 242.998 105.175 243.719 106.751 243.806C109.416 241.158 110.585 238.47 111.159 236.507C112.4 232.267 111.393 229.622 113.221 226.441C114.411 224.371 115.507 221.457 116.694 220.338C119.557 217.641 120.759 218.692 123.206 216.209C124.124 215.278 126.322 213.047 126.617 209.37C126.874 206.175 125.541 203.785 125.327 203.413C123.605 200.42 120.373 199.206 117.152 200.31C116.7 201.832 115.876 204.215 114.426 206.732C112.59 209.918 111.396 210.463 109.519 213.638C108.642 215.121 107.145 217.653 106.355 221.233C105.896 223.315 105.995 224.273 105.188 232.593C104.935 235.198 104.642 238.375 104.343 242.012Z" fill="url(#paint34_linear_163_17667)"/>
<path d="M87.4048 189.186C87.4048 189.186 98.0564 201.337 101.877 182.028L108.926 185.27C108.926 185.27 104.799 207.803 89.3195 192.995L87.4048 189.186Z" fill="url(#paint35_linear_163_17667)"/>
<path d="M101.271 183.608C101.56 178.604 111.825 172.069 119.962 176.63C129.599 182.032 129.699 199.325 129.692 200.57C129.662 205.912 128.351 211.981 126.879 212.116C125.8 212.214 125.739 209.025 123.514 207.284C121.132 205.421 119.315 207.599 113.723 207.381C111.177 207.281 108.297 207.169 107.634 205.2C106.966 203.213 109.306 201.564 109.556 198.356C110.07 191.764 100.99 188.453 101.271 183.608Z" fill="url(#paint36_linear_163_17667)"/>
<path d="M107.239 176.064L107.598 176.297C108.295 176.75 109.083 176.892 109.846 176.703L110.867 176.449C111.091 176.393 111.26 176.719 111.138 176.976C110.563 178.186 109.079 180.465 106.647 178.639L107.239 176.064Z" fill="url(#paint37_linear_163_17667)"/>
<path d="M104.708 176.094C103.454 175.488 103.027 171.534 103.647 171.1C104.003 170.851 104.327 172.031 105.647 172.483C106.676 172.836 107.33 172.412 107.769 173.098C107.974 173.42 108.098 173.932 108.094 174.385C108.093 174.618 108.05 174.928 107.932 175.538C107.827 176.08 107.838 176.057 107.804 176.217C107.722 176.599 107.544 177.262 107.122 178.137C107.029 177.934 106.902 177.687 106.734 177.432C106.669 177.334 106.412 176.953 106.096 176.681C105.52 176.185 105.067 176.268 104.708 176.094Z" fill="url(#paint38_linear_163_17667)"/>
<path d="M107.709 177.192C107.709 177.192 107.438 178.694 106.271 179.084C105.226 179.434 104.339 176.437 104.836 175.508C105.002 175.198 105.417 174.921 105.804 174.902C106.033 174.89 106.132 174.976 106.505 174.948C106.85 174.922 106.928 174.836 107.05 174.903C107.202 174.986 107.37 175.279 107.385 176.259C107.517 175.912 107.727 175.71 107.918 175.744C107.949 175.749 108.034 175.783 108.097 175.862C108.324 176.151 108.192 176.7 107.709 177.192Z" fill="url(#paint39_linear_163_17667)"/>
<path d="M86.7771 244.956C86.7007 244.956 86.634 244.883 86.6199 244.781L80.3782 200.038C80.3621 199.923 80.4195 199.811 80.5063 199.79C80.5927 199.77 80.6765 199.845 80.6928 199.961L86.6172 242.428V197.04C86.6172 196.922 86.6888 196.827 86.7773 196.827C86.8659 196.827 86.9374 196.922 86.9374 197.04V244.743C86.9374 244.853 86.8743 244.945 86.7919 244.955C86.7869 244.956 86.7819 244.956 86.7771 244.956Z" fill="#00B49F"/>
<path d="M54.1982 246.294C54.1938 246.294 54.189 246.294 54.1847 246.294C54.1017 246.285 54.0378 246.192 54.0378 246.081V202.269C54.0378 202.151 54.1094 202.055 54.1979 202.055C54.2865 202.055 54.358 202.151 54.358 202.269V243.492L59.5151 202.075C59.5295 201.959 59.6102 201.879 59.6994 201.9C59.7866 201.919 59.8456 202.029 59.831 202.145L54.3558 246.116C54.3431 246.22 54.2757 246.294 54.1982 246.294Z" fill="#00B49F"/>
<path d="M134.428 260.793C134.353 260.793 134.287 260.723 134.271 260.624L126.632 212.388C126.614 212.272 126.669 212.159 126.756 212.135C126.844 212.11 126.927 212.184 126.946 212.299L134.267 258.536V212.292C134.267 212.174 134.339 212.079 134.428 212.079C134.516 212.079 134.588 212.174 134.588 212.292V260.58C134.588 260.689 134.526 260.781 134.444 260.792C134.439 260.793 134.433 260.793 134.428 260.793Z" fill="#00B49F"/>
<path d="M96.4286 269.227C96.4234 269.227 96.4178 269.227 96.4123 269.226C96.3305 269.215 96.2686 269.123 96.2686 269.014V220.536C96.2686 220.418 96.3401 220.323 96.4286 220.323C96.5172 220.323 96.5887 220.418 96.5887 220.536V266.892L104.646 214.044C104.664 213.929 104.749 213.854 104.835 213.877C104.921 213.901 104.977 214.014 104.96 214.129L96.5854 269.056C96.5702 269.156 96.5038 269.227 96.4286 269.227Z" fill="#00B49F"/>
<path d="M134.767 211.702V212.534L96.3414 220.891L53.8511 202.454C53.8511 202.177 53.8511 201.899 53.8511 201.622C60.5056 199.006 134.767 211.702 134.767 211.702Z" fill="#B7C0CE"/>
<path d="M89.1395 197.311L134.767 211.702L96.3414 220.059L53.8511 201.622L89.1395 197.311Z" fill="#D8DEE8"/>
<path d="M99.2574 202.11L107.216 203.746V204.468L103.904 206.595L96.969 204.26L99.2574 202.11Z" fill="#B7C0CE"/>
<path d="M99.07 200.536L107.216 203.746L103.904 205.873L96.969 203.538L99.07 200.536Z" fill="white"/>
<path d="M101.265 208.953L99.993 186.579C99.9729 186.225 99.7456 185.894 99.4442 185.781L77.6776 177.623C77.4827 177.55 77.109 177.621 76.9607 177.744C76.8124 177.867 76.6442 177.841 76.6516 178.069L77.5612 198.746C77.5763 199.09 77.7887 199.416 78.0791 199.542L100.797 209.381L101.265 208.953Z" fill="url(#paint40_linear_163_17667)"/>
<path d="M100.797 209.381L99.4792 186.819C99.4585 186.466 99.2315 186.136 98.9305 186.024L77.163 177.865C76.9681 177.792 76.7689 177.821 76.6206 177.944C76.4723 178.066 76.3905 178.27 76.3977 178.498L77.0531 198.971C77.0644 199.323 77.2828 199.658 77.5816 199.781L100.797 209.381Z" fill="url(#paint41_linear_163_17667)"/>
<path d="M89.245 210.068L90.0684 210.75C90.0684 210.75 93.9783 208.439 94.2123 208.3C94.2495 208.278 94.4103 208.011 94.2123 207.901C93.1647 207.32 89.167 205.942 89.167 205.942L87.0864 207.26L89.245 210.068Z" fill="white"/>
<path d="M89.245 209.67L90.0684 210.352C90.0684 210.352 93.9783 208.04 94.2123 207.901C94.4463 207.763 89.167 205.543 89.167 205.543L87.0864 206.861L89.245 209.67Z" fill="url(#paint42_linear_163_17667)"/>
<path d="M85.1793 192.395C85.1793 192.395 83.2026 206.497 82.9946 207.283C82.8026 208.009 88.4008 210.362 89.7393 210.808C89.8506 210.845 90.0162 210.78 90.0686 210.75C90.4502 210.797 88.673 193.724 88.673 193.724L88.5429 193.69L85.1793 192.395Z" fill="white"/>
<path d="M85.1791 192.395C85.1791 192.395 82.8559 206.543 82.6478 207.329C82.4397 208.115 89.1321 210.658 89.7216 210.797C90.1029 210.843 88.5427 193.69 88.5427 193.69L85.1791 192.395Z" fill="url(#paint43_linear_163_17667)"/>
<path d="M104.096 201.585L102.805 201.267C102.55 201.204 102.286 201.27 102.066 201.454L100.647 202.483C100.326 202.716 100.411 203.371 100.774 203.429C101.028 203.47 101.335 203.482 101.697 203.434C102.943 203.267 103.323 203.88 103.896 203.948C104.469 204.015 105.218 202.519 104.096 201.585Z" fill="url(#paint44_linear_163_17667)"/>
<path d="M104.396 201.505L104.196 203.868C104.196 203.868 112.319 208.535 119.202 203.868C126.085 199.2 123.336 181.865 123.336 181.865C123.336 181.865 121.132 176.521 116.085 177.268C111.039 178.016 113.838 186.49 114.728 192.097C115.618 197.705 114.016 202.937 104.396 201.505Z" fill="url(#paint45_linear_163_17667)"/>
<defs>
<linearGradient id="paint0_linear_163_17667" x1="179.011" y1="85.3926" x2="250.402" y2="136.103" gradientUnits="userSpaceOnUse">
<stop stop-color="#E38DDD"/>
<stop offset="0.5" stop-color="#BC7FEA"/>
<stop offset="1" stop-color="#9571F6"/>
</linearGradient>
<linearGradient id="paint1_linear_163_17667" x1="215.963" y1="40.3296" x2="257.35" y2="54.4919" gradientUnits="userSpaceOnUse">
<stop stop-color="#E38DDD"/>
<stop offset="0.5" stop-color="#BC7FEA"/>
<stop offset="1" stop-color="#9571F6"/>
</linearGradient>
<linearGradient id="paint2_linear_163_17667" x1="217.482" y1="24.5001" x2="257.596" y2="38.3274" gradientUnits="userSpaceOnUse">
<stop stop-color="#E38DDD"/>
<stop offset="0.5" stop-color="#BC7FEA"/>
<stop offset="1" stop-color="#9571F6"/>
</linearGradient>
<linearGradient id="paint3_linear_163_17667" x1="197.041" y1="122.135" x2="208.432" y2="73.7796" gradientUnits="userSpaceOnUse">
<stop offset="0.04" stop-color="#5277F7"/>
<stop offset="0.58" stop-color="#5CA1FB"/>
<stop offset="1" stop-color="#66CCFF"/>
</linearGradient>
<linearGradient id="paint4_linear_163_17667" x1="1017.94" y1="-991.665" x2="1016.16" y2="-980.751" gradientUnits="userSpaceOnUse">
<stop stop-color="#E38DDD"/>
<stop offset="0.5" stop-color="#BC7FEA"/>
<stop offset="1" stop-color="#9571F6"/>
</linearGradient>
<linearGradient id="paint5_linear_163_17667" x1="216.721" y1="110.295" x2="214.579" y2="107.603" gradientUnits="userSpaceOnUse">
<stop stop-color="#FFC444"/>
<stop offset="0.5" stop-color="#F99A4D"/>
<stop offset="1" stop-color="#F36F56"/>
</linearGradient>
<linearGradient id="paint6_linear_163_17667" x1="197.294" y1="121.497" x2="176.761" y2="77.4467" gradientUnits="userSpaceOnUse">
<stop offset="0.04" stop-color="#5277F7"/>
<stop offset="0.58" stop-color="#5CA1FB"/>
<stop offset="1" stop-color="#66CCFF"/>
</linearGradient>
<linearGradient id="paint7_linear_163_17667" x1="188.6" y1="111.69" x2="182.575" y2="109.386" gradientUnits="userSpaceOnUse">
<stop stop-color="#FFC444"/>
<stop offset="0.5" stop-color="#F99A4D"/>
<stop offset="1" stop-color="#F36F56"/>
</linearGradient>
<linearGradient id="paint8_linear_163_17667" x1="-837.855" y1="-856.887" x2="-861.346" y2="-849.859" gradientUnits="userSpaceOnUse">
<stop stop-color="#FF9085"/>
<stop offset="0.5" stop-color="#FD80A0"/>
<stop offset="1" stop-color="#FB6FBB"/>
</linearGradient>
<linearGradient id="paint9_linear_163_17667" x1="127.616" y1="225.409" x2="126.136" y2="224.905" gradientUnits="userSpaceOnUse">
<stop stop-color="#FFC444"/>
<stop offset="0.5" stop-color="#F99A4D"/>
<stop offset="1" stop-color="#F36F56"/>
</linearGradient>
<linearGradient id="paint10_linear_163_17667" x1="-53.0389" y1="226.615" x2="-53.0389" y2="220.958" gradientUnits="userSpaceOnUse">
<stop stop-color="#FFC444"/>
<stop offset="0.5" stop-color="#F99A4D"/>
<stop offset="1" stop-color="#F36F56"/>
</linearGradient>
<linearGradient id="paint11_linear_163_17667" x1="-65.999" y1="228.215" x2="-65.999" y2="221.397" gradientUnits="userSpaceOnUse">
<stop stop-color="#FFC444"/>
<stop offset="0.5" stop-color="#F99A4D"/>
<stop offset="1" stop-color="#F36F56"/>
</linearGradient>
<linearGradient id="paint12_linear_163_17667" x1="-69.359" y1="185.015" x2="-51.5556" y2="207.442" gradientUnits="userSpaceOnUse">
<stop stop-color="#311944"/>
<stop offset="0.5" stop-color="#5D295D"/>
<stop offset="1" stop-color="#893976"/>
</linearGradient>
<linearGradient id="paint13_linear_163_17667" x1="232.801" y1="155.895" x2="252.807" y2="186.75" gradientUnits="userSpaceOnUse">
<stop offset="0.04" stop-color="#5277F7"/>
<stop offset="0.58" stop-color="#5CA1FB"/>
<stop offset="1" stop-color="#66CCFF"/>
</linearGradient>
<linearGradient id="paint14_linear_163_17667" x1="-61.4391" y1="151.415" x2="-57.8407" y2="155.705" gradientUnits="userSpaceOnUse">
<stop stop-color="#E38DDD"/>
<stop offset="0.5" stop-color="#BC7FEA"/>
<stop offset="1" stop-color="#9571F6"/>
</linearGradient>
<linearGradient id="paint15_linear_163_17667" x1="-58.5591" y1="150.775" x2="-62.5316" y2="155.595" gradientUnits="userSpaceOnUse">
<stop stop-color="#FFC444"/>
<stop offset="0.5" stop-color="#F99A4D"/>
<stop offset="1" stop-color="#F36F56"/>
</linearGradient>
<linearGradient id="paint16_linear_163_17667" x1="238.634" y1="126.013" x2="273.312" y2="163.199" gradientUnits="userSpaceOnUse">
<stop stop-color="#444B8C"/>
<stop offset="0.5" stop-color="#35396D"/>
<stop offset="1" stop-color="#26264F"/>
</linearGradient>
<linearGradient id="paint17_linear_163_17667" x1="231.542" y1="164.363" x2="260.585" y2="161.571" gradientUnits="userSpaceOnUse">
<stop stop-color="#FF9085"/>
<stop offset="0.5" stop-color="#FD80A0"/>
<stop offset="1" stop-color="#FB6FBB"/>
</linearGradient>
<linearGradient id="paint18_linear_163_17667" x1="216.206" y1="163.97" x2="226.708" y2="172.628" gradientUnits="userSpaceOnUse">
<stop stop-color="#FFC444"/>
<stop offset="0.38" stop-color="#F99A4D"/>
<stop offset="0.75" stop-color="#F36F56"/>
</linearGradient>
<linearGradient id="paint19_linear_163_17667" x1="148.561" y1="217.655" x2="153.675" y2="217.655" gradientUnits="userSpaceOnUse">
<stop stop-color="#40447E"/>
<stop offset="0.5" stop-color="#3E3F75"/>
<stop offset="1" stop-color="#3C3B6B"/>
</linearGradient>
<linearGradient id="paint20_linear_163_17667" x1="150.961" y1="217.335" x2="153.837" y2="221.802" gradientUnits="userSpaceOnUse">
<stop stop-color="#311944"/>
<stop offset="0.5" stop-color="#69295D"/>
<stop offset="1" stop-color="#A03976"/>
</linearGradient>
<linearGradient id="paint21_linear_163_17667" x1="168.241" y1="209.975" x2="151.464" y2="197.392" gradientUnits="userSpaceOnUse">
<stop stop-color="#AB316D"/>
<stop offset="0.5" stop-color="#922F55"/>
<stop offset="1" stop-color="#792D3D"/>
</linearGradient>
<linearGradient id="paint22_linear_163_17667" x1="164.339" y1="205.822" x2="167.718" y2="206.048" gradientUnits="userSpaceOnUse">
<stop stop-color="#FFDF02"/>
<stop offset="0.32" stop-color="#F0C501"/>
<stop offset="1" stop-color="#E1AA00"/>
</linearGradient>
<linearGradient id="paint23_linear_163_17667" x1="175.347" y1="199.741" x2="159.333" y2="185.379" gradientUnits="userSpaceOnUse">
<stop stop-color="#FFDF02"/>
<stop offset="0.32" stop-color="#F0C501"/>
<stop offset="1" stop-color="#E1AA00"/>
</linearGradient>
<linearGradient id="paint24_linear_163_17667" x1="159.601" y1="143.735" x2="147.596" y2="171.507" gradientUnits="userSpaceOnUse">
<stop stop-color="#E38DDD"/>
<stop offset="0.5" stop-color="#BC7FEA"/>
<stop offset="1" stop-color="#9571F6"/>
</linearGradient>
<linearGradient id="paint25_linear_163_17667" x1="150.241" y1="151.095" x2="158.808" y2="140.494" gradientUnits="userSpaceOnUse">
<stop offset="0.04" stop-color="#5277F7"/>
<stop offset="0.58" stop-color="#5CA1FB"/>
<stop offset="1" stop-color="#66CCFF"/>
</linearGradient>
<linearGradient id="paint26_linear_163_17667" x1="149.761" y1="150.775" x2="158.328" y2="140.174" gradientUnits="userSpaceOnUse">
<stop stop-color="#311944"/>
<stop offset="0.5" stop-color="#69295D"/>
<stop offset="1" stop-color="#A03976"/>
</linearGradient>
<linearGradient id="paint27_linear_163_17667" x1="185.08" y1="145.299" x2="181.919" y2="144.654" gradientUnits="userSpaceOnUse">
<stop stop-color="#311944"/>
<stop offset="0.5" stop-color="#69295D"/>
<stop offset="1" stop-color="#A03976"/>
</linearGradient>
<linearGradient id="paint28_linear_163_17667" x1="166.95" y1="141.065" x2="175.236" y2="170.787" gradientUnits="userSpaceOnUse">
<stop stop-color="#E38DDD"/>
<stop offset="0.5" stop-color="#BC7FEA"/>
<stop offset="1" stop-color="#9571F6"/>
</linearGradient>
<linearGradient id="paint29_linear_163_17667" x1="98.1264" y1="243.558" x2="102.774" y2="243.558" gradientUnits="userSpaceOnUse">
<stop stop-color="#311944"/>
<stop offset="0.5" stop-color="#4E295D"/>
<stop offset="1" stop-color="#6B3976"/>
</linearGradient>
<linearGradient id="paint30_linear_163_17667" x1="100.286" y1="247.078" x2="113.093" y2="218.263" gradientUnits="userSpaceOnUse">
<stop offset="0.04" stop-color="#5277F7"/>
<stop offset="0.58" stop-color="#5CA1FB"/>
<stop offset="1" stop-color="#66CCFF"/>
</linearGradient>
<linearGradient id="paint31_linear_163_17667" x1="105.601" y1="241.975" x2="114.755" y2="220.246" gradientUnits="userSpaceOnUse">
<stop stop-color="#444B8C"/>
<stop offset="0.5" stop-color="#414682"/>
<stop offset="1" stop-color="#3E4177"/>
</linearGradient>
<linearGradient id="paint32_linear_163_17667" x1="104.676" y1="246.455" x2="109.324" y2="246.455" gradientUnits="userSpaceOnUse">
<stop stop-color="#311944"/>
<stop offset="0.5" stop-color="#4E295D"/>
<stop offset="1" stop-color="#6B3976"/>
</linearGradient>
<linearGradient id="paint33_linear_163_17667" x1="106.836" y1="249.975" x2="119.643" y2="221.16" gradientUnits="userSpaceOnUse">
<stop stop-color="#311944"/>
<stop offset="0.5" stop-color="#69295D"/>
<stop offset="1" stop-color="#A03976"/>
</linearGradient>
<linearGradient id="paint34_linear_163_17667" x1="106.321" y1="219.575" x2="119.917" y2="221.656" gradientUnits="userSpaceOnUse">
<stop stop-color="#444B8C"/>
<stop offset="0.5" stop-color="#414682"/>
<stop offset="1" stop-color="#3E4177"/>
</linearGradient>
<linearGradient id="paint35_linear_163_17667" x1="89.0672" y1="173.179" x2="112.861" y2="194.604" gradientUnits="userSpaceOnUse">
<stop stop-color="#FFC444"/>
<stop offset="0.5" stop-color="#F99A4D"/>
<stop offset="1" stop-color="#F36F56"/>
</linearGradient>
<linearGradient id="paint36_linear_163_17667" x1="99.3608" y1="177.655" x2="143.657" y2="200.221" gradientUnits="userSpaceOnUse">
<stop stop-color="#FFC444"/>
<stop offset="0.5" stop-color="#F99A4D"/>
<stop offset="1" stop-color="#F36F56"/>
</linearGradient>
<linearGradient id="paint37_linear_163_17667" x1="107.761" y1="175.735" x2="111.293" y2="179.365" gradientUnits="userSpaceOnUse">
<stop offset="0.04" stop-color="#5277F7"/>
<stop offset="0.58" stop-color="#5CA1FB"/>
<stop offset="1" stop-color="#66CCFF"/>
</linearGradient>
<linearGradient id="paint38_linear_163_17667" x1="108.747" y1="176.843" x2="101.578" y2="172.06" gradientUnits="userSpaceOnUse">
<stop stop-color="#444B8C"/>
<stop offset="0.5" stop-color="#35396D"/>
<stop offset="1" stop-color="#26264F"/>
</linearGradient>
<linearGradient id="paint39_linear_163_17667" x1="113.041" y1="169.015" x2="100.405" y2="176.631" gradientUnits="userSpaceOnUse">
<stop stop-color="#311944"/>
<stop offset="0.11" stop-color="#3D1D49"/>
<stop offset="0.22" stop-color="#49204E"/>
<stop offset="0.26" stop-color="#4E2151"/>
<stop offset="0.31" stop-color="#532353"/>
<stop offset="0.65" stop-color="#792E64"/>
<stop offset="1" stop-color="#A03976"/>
</linearGradient>
<linearGradient id="paint40_linear_163_17667" x1="76.5611" y1="193.335" x2="101.175" y2="193.335" gradientUnits="userSpaceOnUse">
<stop stop-color="#AA80F9"/>
<stop offset="0.5" stop-color="#8672E8"/>
<stop offset="1" stop-color="#6165D7"/>
</linearGradient>
<linearGradient id="paint41_linear_163_17667" x1="93.6011" y1="183.415" x2="75.305" y2="204.267" gradientUnits="userSpaceOnUse">
<stop stop-color="#AA80F9"/>
<stop offset="0.5" stop-color="#8672E8"/>
<stop offset="1" stop-color="#6165D7"/>
</linearGradient>
<linearGradient id="paint42_linear_163_17667" x1="93.121" y1="205.175" x2="85.722" y2="208.504" gradientUnits="userSpaceOnUse">
<stop offset="0.04" stop-color="#5277F7"/>
<stop offset="0.58" stop-color="#5CA1FB"/>
<stop offset="1" stop-color="#66CCFF"/>
</linearGradient>
<linearGradient id="paint43_linear_163_17667" x1="88.5609" y1="194.615" x2="80.4785" y2="220.139" gradientUnits="userSpaceOnUse">
<stop stop-color="#AA80F9"/>
<stop offset="0.5" stop-color="#8672E8"/>
<stop offset="1" stop-color="#6165D7"/>
</linearGradient>
<linearGradient id="paint44_linear_163_17667" x1="102.66" y1="201.735" x2="100.37" y2="207.474" gradientUnits="userSpaceOnUse">
<stop stop-color="#311944"/>
<stop offset="0.11" stop-color="#3D1D49"/>
<stop offset="0.22" stop-color="#49204E"/>
<stop offset="0.26" stop-color="#4E2151"/>
<stop offset="0.31" stop-color="#532353"/>
<stop offset="0.65" stop-color="#792E64"/>
<stop offset="1" stop-color="#A03976"/>
</linearGradient>
<linearGradient id="paint45_linear_163_17667" x1="108.96" y1="203.895" x2="144.234" y2="171.349" gradientUnits="userSpaceOnUse">
<stop stop-color="#FFC444"/>
<stop offset="0.5" stop-color="#F99A4D"/>
<stop offset="1" stop-color="#F36F56"/>
</linearGradient>
</defs>
</svg>
