<svg width="213" height="189" viewBox="0 0 213 189" fill="none" xmlns="http://www.w3.org/2000/svg">
<path d="M106.5 188.256C165.174 188.256 212.738 162.406 212.738 130.519C212.738 98.6316 165.174 72.7817 106.5 72.7817C47.8262 72.7817 0.261719 98.6316 0.261719 130.519C0.261719 162.406 47.8262 188.256 106.5 188.256Z" fill="#F5F5F5"/>
<path d="M151.368 100.29L61.6324 149.046C60.8943 149.447 60.0573 149.658 59.2053 149.658C58.3534 149.658 57.5164 149.447 56.7783 149.046L52.0418 146.491C51.7759 146.347 51.555 146.14 51.4015 145.89C51.2479 145.639 51.167 145.356 51.167 145.067C51.167 144.778 51.2479 144.494 51.4015 144.244C51.555 143.994 51.7759 143.787 52.0418 143.643L141.786 94.8647C142.524 94.4648 143.36 94.2544 144.211 94.2544C145.062 94.2544 145.898 94.4648 146.636 94.8647L151.372 97.4409C151.637 97.5862 151.856 97.7944 152.008 98.0446C152.161 98.2947 152.241 98.5781 152.24 98.8665C152.24 99.1548 152.159 99.438 152.006 99.6877C151.853 99.9374 151.633 100.145 151.368 100.29Z" fill="#E0E0E0"/>
<path d="M137.615 154.982C148.271 154.982 156.909 150.288 156.909 144.498C156.909 138.708 148.271 134.015 137.615 134.015C126.959 134.015 118.321 138.708 118.321 144.498C118.321 150.288 126.959 154.982 137.615 154.982Z" fill="#E0E0E0"/>
<path d="M174.973 115.313C183.316 115.313 190.078 111.637 190.078 107.103C190.078 102.568 183.316 98.8928 174.973 98.8928C166.631 98.8928 159.868 102.568 159.868 107.103C159.868 111.637 166.631 115.313 174.973 115.313Z" fill="#E0E0E0"/>
<path d="M38.1536 166.577C46.4959 166.577 53.2587 162.902 53.2587 158.368C53.2587 153.833 46.4959 150.158 38.1536 150.158C29.8112 150.158 23.0484 153.833 23.0484 158.368C23.0484 162.902 29.8112 166.577 38.1536 166.577Z" fill="#E0E0E0"/>
<path d="M55.7242 49.8767L146.762 0.408945C147.807 -0.157398 148.744 -0.114816 149.409 0.408945L152.576 2.46141L150.381 4.95672V74.0463C150.381 76.58 148.748 79.5181 146.731 80.6167L56.6154 129.586L56.448 132.282L53.1275 130.153C52.4671 129.684 52.0599 128.76 52.0599 127.495V56.4428C52.0735 53.9092 53.7066 50.971 55.7242 49.8767Z" fill="#00B49F"/>
<path opacity="0.4" d="M55.7242 49.8767L146.762 0.408945C147.807 -0.157398 148.744 -0.114816 149.409 0.408945L152.576 2.46141L150.381 4.95672V74.0463C150.381 76.58 148.748 79.5181 146.731 80.6167L56.6154 129.586L56.448 132.282L53.1275 130.153C52.4671 129.684 52.0599 128.76 52.0599 127.495V56.4428C52.0735 53.9092 53.7066 50.971 55.7242 49.8767Z" fill="white"/>
<path d="M55.1723 129.488V58.4484C55.2113 57.012 55.6328 55.6079 56.3983 54.3647L53.1456 52.6104C52.4743 53.7912 52.1071 55.1039 52.0735 56.4427V127.483C52.0735 128.76 52.4806 129.671 53.1411 130.14L56.1992 132.111C55.5659 131.634 55.1723 130.727 55.1723 129.488Z" fill="#00B49F"/>
<path opacity="0.2" d="M55.1723 129.488V58.4484C55.2113 57.012 55.6328 55.6079 56.3983 54.3647L53.1456 52.6104C52.4743 53.7912 52.1071 55.1039 52.0735 56.4427V127.483C52.0735 128.76 52.4806 129.671 53.1411 130.14L56.1992 132.111C55.5659 131.634 55.1723 130.727 55.1723 129.488Z" fill="white"/>
<path d="M58.8231 132.09L149.843 82.6223C151.861 81.5279 153.494 78.5855 153.494 76.0561V5.01628C153.494 2.4869 151.861 1.32441 149.843 2.41877L58.8231 51.8822C56.8054 52.9809 55.1723 55.919 55.1723 58.4484V129.488C55.1723 132.022 56.8054 133.189 58.8231 132.09Z" fill="#00B49F"/>
<path d="M58.8231 132.09L149.843 82.6223C151.861 81.5279 153.494 78.5855 153.494 76.0561V5.01628C153.494 2.4869 151.861 1.32441 149.843 2.41877L58.8231 51.8822C56.8054 52.9809 55.1723 55.919 55.1723 58.4484V129.488C55.1723 132.022 56.8054 133.189 58.8231 132.09Z" fill="#00B49F"/>
<path opacity="0.7" d="M58.8231 132.09L149.843 82.6223C151.861 81.5279 153.494 78.5855 153.494 76.0561V5.01628C153.494 2.4869 151.861 1.32441 149.843 2.41877L58.8231 51.8822C56.8054 52.9809 55.1723 55.919 55.1723 58.4484V129.488C55.1723 132.022 56.8054 133.189 58.8231 132.09Z" fill="white"/>
<path d="M58.8231 51.8822L149.843 2.41877C151.861 1.32441 153.494 2.4869 153.494 5.01628V8.49099L55.1723 61.9231V58.4484C55.1723 55.919 56.8054 52.9809 58.8231 51.8822Z" fill="#00B49F"/>
<path opacity="0.5" d="M58.8231 51.8822L149.843 2.41877C151.861 1.32441 153.494 2.4869 153.494 5.01628V8.49099L55.1723 61.9231V58.4484C55.1723 55.919 56.8054 52.9809 58.8231 51.8822Z" fill="white"/>
<path d="M151.286 2.34226C152.404 2.34226 153.132 3.39404 153.132 5.01642V76.0563C153.132 78.4749 151.571 81.2939 149.658 82.3329L58.6467 131.796C58.2653 132.024 57.8266 132.152 57.3755 132.167C56.2535 132.167 55.5297 131.115 55.5297 129.488V58.4485C55.5297 56.0299 57.0859 53.2152 59.004 52.1719L150.024 2.70847C150.406 2.48355 150.845 2.35725 151.295 2.34226M151.295 2.00586C150.78 2.02446 150.279 2.1714 149.843 2.43168L58.8231 51.8824C56.8054 52.981 55.1723 55.9192 55.1723 58.4485V129.488C55.1723 131.375 56.0771 132.499 57.3755 132.499C57.8892 132.478 58.3882 132.331 58.8231 132.073L149.843 82.6054C151.861 81.511 153.494 78.5686 153.494 76.0392V5.01642C153.494 3.13429 152.589 2.00586 151.295 2.00586Z" fill="#00B49F"/>
<path d="M63.365 112.967C63.1557 112.967 62.9522 112.902 62.786 112.782C62.6199 112.662 62.5005 112.494 62.4463 112.304C62.3922 112.113 62.4063 111.912 62.4865 111.73C62.5668 111.548 62.7086 111.396 62.89 111.297L90.2141 96.4489C90.3222 96.3823 90.4436 96.3372 90.5708 96.3163C90.698 96.2954 90.8284 96.2991 90.9541 96.3272C91.0797 96.3554 91.1979 96.4073 91.3015 96.4799C91.4051 96.5525 91.4919 96.6442 91.5566 96.7494C91.6213 96.8546 91.6625 96.9712 91.6777 97.0919C91.6929 97.2126 91.6818 97.335 91.6451 97.4515C91.6083 97.5681 91.5467 97.6763 91.4641 97.7697C91.3814 97.8631 91.2793 97.9396 91.1642 97.9946L63.84 112.843C63.6969 112.925 63.5325 112.968 63.365 112.967Z" fill="#FAFAFA"/>
<path d="M63.365 118.57C63.1552 118.572 62.9506 118.509 62.7834 118.389C62.6163 118.27 62.496 118.102 62.4416 117.911C62.3872 117.72 62.4017 117.518 62.4829 117.336C62.5641 117.154 62.7073 117.002 62.89 116.905L101.795 95.7503C101.903 95.6916 102.023 95.6535 102.146 95.6382C102.27 95.6229 102.396 95.6307 102.517 95.6612C102.637 95.6916 102.75 95.7441 102.849 95.8157C102.948 95.8872 103.031 95.9765 103.094 96.0782C103.156 96.18 103.196 96.2923 103.213 96.4088C103.229 96.5253 103.221 96.6437 103.188 96.7572C103.156 96.8707 103.1 96.9771 103.024 97.0702C102.948 97.1634 102.853 97.2416 102.745 97.3003L63.84 118.451C63.6956 118.529 63.5317 118.571 63.365 118.57Z" fill="#FAFAFA"/>
<path d="M106.586 100.69C106.376 100.692 106.172 100.628 106.004 100.509C105.837 100.39 105.717 100.222 105.663 100.031C105.608 99.8401 105.623 99.6378 105.704 99.4557C105.785 99.2736 105.928 99.122 106.111 99.025L133.032 84.3937C133.141 84.3272 133.262 84.2821 133.389 84.2611C133.516 84.2402 133.647 84.2439 133.772 84.2721C133.898 84.3002 134.016 84.3521 134.12 84.4247C134.223 84.4973 134.31 84.589 134.375 84.6942C134.44 84.7995 134.481 84.916 134.496 85.0367C134.511 85.1574 134.5 85.2798 134.463 85.3963C134.427 85.5129 134.365 85.6212 134.282 85.7145C134.2 85.8079 134.098 85.8845 133.982 85.9395L107.056 100.571C106.913 100.649 106.751 100.69 106.586 100.69Z" fill="#FAFAFA"/>
<path d="M63.365 124.178C63.1557 124.178 62.9522 124.114 62.786 123.994C62.6199 123.874 62.5005 123.706 62.4463 123.515C62.3922 123.325 62.4063 123.123 62.4865 122.941C62.5668 122.759 62.7086 122.607 62.89 122.509L97.6197 103.637C97.8381 103.518 98.0975 103.486 98.341 103.547C98.5845 103.609 98.7921 103.759 98.9181 103.964C99.044 104.17 99.0781 104.414 99.0128 104.643C98.9475 104.873 98.7881 105.068 98.5697 105.187L63.84 124.059C63.6956 124.137 63.5318 124.179 63.365 124.178Z" fill="#FAFAFA"/>
<path d="M63.365 66.4155C63.1557 66.4157 62.9522 66.3509 62.786 66.231C62.6199 66.1111 62.5005 65.943 62.4463 65.7527C62.3922 65.5623 62.4063 65.3605 62.4865 65.1785C62.5668 64.9965 62.7086 64.8446 62.89 64.7463L90.2141 49.8979C90.3222 49.8313 90.4436 49.7862 90.5708 49.7653C90.698 49.7444 90.8284 49.7481 90.9541 49.7762C91.0797 49.8043 91.1979 49.8563 91.3015 49.9289C91.4051 50.0015 91.4919 50.0932 91.5566 50.1984C91.6213 50.3036 91.6625 50.4201 91.6777 50.5409C91.6929 50.6616 91.6818 50.7839 91.6451 50.9005C91.6083 51.017 91.5467 51.1253 91.4641 51.2187C91.3814 51.3121 91.2793 51.3886 91.1642 51.4436L63.84 66.2963C63.6956 66.3748 63.5318 66.4159 63.365 66.4155Z" fill="#FAFAFA"/>
<path d="M63.365 72.0236C63.1557 72.0238 62.9522 71.9589 62.786 71.8391C62.6199 71.7192 62.5005 71.551 62.4463 71.3607C62.3922 71.1704 62.4063 70.9686 62.4865 70.7866C62.5668 70.6046 62.7086 70.4527 62.89 70.3544L101.795 49.2038C101.903 49.1372 102.025 49.0921 102.152 49.0712C102.279 49.0503 102.41 49.054 102.535 49.0821C102.661 49.1102 102.779 49.1622 102.883 49.2348C102.986 49.3074 103.073 49.3991 103.138 49.5043C103.202 49.6095 103.244 49.7261 103.259 49.8468C103.274 49.9675 103.263 50.0899 103.226 50.2064C103.189 50.3229 103.128 50.4312 103.045 50.5246C102.962 50.618 102.86 50.6945 102.745 50.7495L63.84 71.9001C63.6969 71.9818 63.5325 72.0246 63.365 72.0236Z" fill="#FAFAFA"/>
<path d="M106.586 54.1434C106.377 54.1436 106.173 54.0788 106.007 53.9589C105.841 53.839 105.721 53.6709 105.667 53.4806C105.613 53.2902 105.627 53.0884 105.707 52.9064C105.788 52.7244 105.93 52.5725 106.111 52.4742L133.032 37.8429C133.141 37.7764 133.262 37.7313 133.389 37.7104C133.516 37.6894 133.647 37.6932 133.772 37.7213C133.898 37.7494 134.016 37.8014 134.12 37.8739C134.223 37.9465 134.31 38.0382 134.375 38.1435C134.44 38.2487 134.481 38.3652 134.496 38.4859C134.511 38.6066 134.5 38.729 134.463 38.8456C134.427 38.9621 134.365 39.0704 134.282 39.1638C134.2 39.2571 134.098 39.3337 133.982 39.3887L107.056 54.0199C106.915 54.1009 106.752 54.1436 106.586 54.1434Z" fill="#FAFAFA"/>
<path d="M63.365 77.6276C63.1552 77.6297 62.9506 77.5661 62.7834 77.4468C62.6163 77.3275 62.496 77.1592 62.4416 76.9685C62.3872 76.7778 62.4017 76.5754 62.4829 76.3933C62.5641 76.2112 62.7073 76.0597 62.89 75.9626L97.6197 57.0902C97.8363 56.9867 98.0868 56.9653 98.3198 57.0303C98.5527 57.0954 98.7502 57.2419 98.8719 57.4398C98.9935 57.6378 99.03 57.8721 98.9738 58.0945C98.9176 58.317 98.773 58.5107 98.5697 58.6359L63.84 77.5084C63.6956 77.5868 63.5317 77.628 63.365 77.6276Z" fill="#FAFAFA"/>
<path d="M62.9217 54.0455C62.8975 54.491 62.762 54.9249 62.5262 55.3118C62.2904 55.6988 61.9609 56.0279 61.5645 56.2725C60.809 56.6983 60.2074 56.3492 60.2074 55.5316C60.2316 55.0861 60.3671 54.6522 60.6029 54.2652C60.8387 53.8782 61.1682 53.5491 61.5645 53.3045C62.311 52.8915 62.9217 53.2236 62.9217 54.0455Z" fill="white"/>
<path d="M67.7396 51.4309C67.7154 51.8764 67.5799 52.3103 67.3441 52.6973C67.1083 53.0842 66.7788 53.4134 66.3825 53.658C65.627 54.0838 65.0253 53.7346 65.0253 52.917C65.0495 52.4715 65.185 52.0376 65.4208 51.6507C65.6566 51.2637 65.9861 50.9346 66.3825 50.69C67.1425 50.2727 67.7396 50.6048 67.7396 51.4309Z" fill="white"/>
<path d="M72.5711 48.8079C72.5469 49.2534 72.4114 49.6873 72.1756 50.0743C71.9398 50.4612 71.6103 50.7904 71.2139 51.035C70.4585 51.4608 69.8568 51.1116 69.8568 50.294C69.881 49.8485 70.0165 49.4146 70.2523 49.0277C70.4881 48.6407 70.8176 48.3116 71.2139 48.067C71.9468 47.6539 72.5711 47.9861 72.5711 48.8079Z" fill="white"/>
<path d="M82.139 71.5511L80.1983 70.7591V51.8228L82.139 52.6148V71.5511Z" fill="#00B49F"/>
<path opacity="0.6" d="M82.139 71.5511L80.1983 70.7591V51.8228L82.139 52.6148V71.5511Z" fill="black"/>
<path d="M161.076 9.62371L82.139 52.6147L80.1983 51.8227L159.131 8.83594L161.076 9.62371Z" fill="#00B49F"/>
<path opacity="0.4" d="M161.076 9.62371L82.139 52.6147L80.1983 51.8227L159.131 8.83594L161.076 9.62371Z" fill="black"/>
<path d="M161.076 28.5601L82.139 71.551V52.6148L161.076 9.62378V28.5601Z" fill="#00B49F"/>
<path opacity="0.3" d="M161.076 28.5601L82.139 71.551V52.6148L161.076 9.62378V28.5601Z" fill="black"/>
<path d="M125.551 57.613L111.503 59.4188V53.8443L125.551 40.4512V45.7751L113.266 57.2125V54.1434L125.551 52.2891V57.613ZM108.886 110.14L117.976 75.7218L123.485 72.7417L114.395 107.16L108.886 110.14ZM111.503 141.212V135.889L123.788 124.451V127.52L111.503 129.375V124.051L125.551 122.245V127.819L111.503 141.212Z" fill="white"/>
<path d="M181.972 58.1079L183.537 59.8665C183.731 61.4862 184.101 63.0828 184.641 64.6315C185.545 67.378 185.392 68.5405 185.392 68.5405L188.712 68.2978L187.387 58.5039C187.296 57.8492 187.057 57.2204 186.685 56.6601L185.88 55.438L181.972 58.1079Z" fill="#945959"/>
<path d="M183.79 107.712C183.79 107.712 181.705 109.24 181.904 110.143C182.103 111.046 185.355 111.476 186.934 109.717C187.635 108.938 188.133 107.35 188.196 105.412C188.228 104.446 189.522 103.015 188.196 102.006C186.871 100.996 186.342 100.758 186.011 100.886C185.681 101.014 183.79 107.712 183.79 107.712Z" fill="#37474F"/>
<path d="M182.234 100.324L183.46 102.785C183.46 102.785 183.858 106.341 183.79 107.712C183.79 107.712 185.681 108.802 186.242 106.737C186.458 105.756 186.558 104.757 186.541 103.756C186.334 103.064 186.247 102.345 186.283 101.627C186.315 101.405 186.301 101.179 186.242 100.962L185.681 98.7908L182.234 100.324Z" fill="#945959"/>
<path d="M165.238 104.386C165.238 104.386 164.482 104.863 163.953 105.216C163.424 105.57 161.207 107.303 164.306 107.835C165.079 107.939 165.866 107.875 166.609 107.649C167.351 107.422 168.029 107.039 168.59 106.528C170.115 105.114 171.218 105.553 171.757 104.991C172.295 104.429 171.901 101.29 171.146 101.435L165.238 104.386Z" fill="#37474F"/>
<path d="M167.816 98.8589L168.056 100.89C168.075 101.063 168.046 101.238 167.97 101.397C167.749 101.844 167.106 102.819 165.256 104.378C165.256 104.378 165.224 105.949 167.568 105.191C168.207 104.909 168.814 104.565 169.377 104.165C169.651 103.982 169.877 103.743 170.038 103.466C170.316 102.965 170.684 102.511 171.123 102.125L171.368 98.8503L167.816 98.8589Z" fill="#945959"/>
<path d="M165.763 64.4695C165.763 64.4695 165.111 67.5141 165.247 73.2925C165.333 77.176 165.419 80.0801 165.459 81.5705C165.481 82.31 165.546 83.0477 165.654 83.7805L167.807 98.8589C168.352 99.1299 168.958 99.2716 169.574 99.2716C170.19 99.2716 170.796 99.1299 171.341 98.8589C171.341 98.8589 171.648 95.5332 172.001 93.7873C172.318 92.2416 172.734 87.7236 171.901 85.356C171.668 84.6688 171.609 83.9395 171.73 83.2269L174.177 68.0379L165.763 64.4695Z" fill="#455A64"/>
<path d="M167.436 67.9614C167.712 68.6474 168.136 69.2721 168.681 69.7961C169.226 70.3201 169.88 70.7321 170.603 71.006L172.39 79.2074L174.2 68.0551L167.436 67.9614Z" fill="#37474F"/>
<path d="M166.491 64.3121C166.491 64.3121 166.039 68.0125 169.318 69.456C169.967 69.7767 170.657 70.0158 171.372 70.1671C171.372 70.1671 174.055 85.2242 174.539 86.3484C175.023 87.4725 182.229 100.315 182.229 100.315C182.229 100.315 185.079 100.877 185.677 98.7866C185.677 98.7866 185.048 96.0443 184.252 93.0508C183.582 90.5299 182.795 87.6769 181.415 86.2802C180.886 85.7608 180.595 85.0665 180.605 84.347C180.664 81.8985 180.782 76.7589 180.804 75.3749C180.841 73.5354 181.569 67.6718 180.311 65.3043L176.43 61.9658L166.491 64.3121Z" fill="#455A64"/>
<path d="M163.799 43.6554L160.877 42.0202C160.877 42.0202 159.018 39.8102 157.511 37.8429C156.005 35.8756 155.371 34.8622 155.371 34.8622C155.845 34.1835 156.12 33.399 156.167 32.5883C156.167 31.4045 156.1 30.8424 156.335 30.4038C156.57 29.9652 156.335 29.5011 155.706 29.6884C155.077 29.8758 154.611 31.149 154.801 31.9794L151.291 33.8956C151.291 33.8956 151.874 35.3646 152.68 36.0502C152.68 36.0502 155.896 43.3445 157.154 44.5283C158.411 45.7121 160.61 47.3175 160.61 47.3175L163.799 43.6554Z" fill="#945959"/>
<path d="M169.802 47.0107L163.799 43.6553C163.799 43.6553 161.022 43.8384 160.633 47.3046L165.885 51.0092L169.802 47.0107Z" fill="#00B49F"/>
<path opacity="0.2" d="M169.802 47.0107L163.799 43.6553C163.799 43.6553 161.022 43.8384 160.633 47.3046L165.885 51.0092L169.802 47.0107Z" fill="black"/>
<path d="M170.965 47.0107L174.973 47.1981L177.592 47.3216L178.045 53.1511C178.045 53.1511 177.353 56.5193 176.823 57.7031C176.294 58.8869 179.768 63.7541 180.334 65.3126C180.334 65.3126 178.113 65.5936 176.986 63.1835C176.476 64.3384 175.606 65.3207 174.49 66.001C173.375 66.6813 172.067 67.0277 170.739 66.9946C167.545 66.9946 165.763 64.4694 165.763 64.4694L166.491 60.2112C166.047 58.909 165.802 57.5542 165.763 56.1872C165.763 56.1872 163.953 55.5612 164.365 53.0404C164.776 50.5195 169.793 47.0235 169.793 47.0235L170.965 47.0107Z" fill="#00B49F"/>
<path d="M179.153 37.5959C179.153 37.5959 181.447 35.8117 183.428 37.8429C186.278 40.7683 180.117 46.5126 185.582 46.6361C185.582 46.6361 184.953 47.3217 182.831 47.3217C180.709 47.3217 178.891 45.2564 179.253 41.4581L179.153 37.5959Z" fill="#263238"/>
<path d="M178.429 37.5022C178.429 37.5022 179.162 37.0764 179.443 37.383C179.723 37.6896 180.094 40.0699 179.257 41.4581C178.859 42.1139 178.068 41.2111 178.068 41.2111L178.429 37.5022Z" fill="#00B49F"/>
<path d="M166.138 37.843C166.138 37.843 166.17 40.3085 164.482 39.623C164.621 39.9499 164.866 40.2275 165.182 40.4162C165.498 40.605 165.869 40.6955 166.242 40.6747C167.169 40.6747 167.703 39.8231 167.703 39.1545L166.138 37.843Z" fill="#263238"/>
<path d="M174.999 41.0505C177.428 39.6965 178.231 36.7452 176.793 34.4585C175.354 32.1718 172.219 31.4157 169.79 32.7696C167.36 34.1236 166.557 37.0749 167.995 39.3616C169.434 41.6483 172.569 42.4044 174.999 41.0505Z" fill="#263238"/>
<path d="M178.954 39.1544C178.954 41.8115 176.434 45.1883 173.611 45.1883C172.94 45.1889 172.276 45.0649 171.656 44.8236C171.035 44.5822 170.472 44.2282 169.997 43.7817C169.522 43.3352 169.146 42.8051 168.889 42.2215C168.632 41.638 168.5 41.0125 168.5 40.3808C168.5 37.7236 170.789 34.696 173.611 34.696C176.434 34.696 178.954 35.5988 178.954 39.1544Z" fill="#263238"/>
<path d="M171.141 36.3311C171.142 36.8897 170.967 37.436 170.638 37.9008C170.309 38.3656 169.841 38.7281 169.293 38.9425C168.745 39.1568 168.142 39.2133 167.56 39.1049C166.978 38.9964 166.443 38.7279 166.023 38.3332C165.603 37.9386 165.317 37.4355 165.201 36.8878C165.085 36.34 165.144 35.7721 165.371 35.256C165.598 34.7399 165.982 34.2987 166.475 33.9883C166.969 33.6779 167.549 33.5122 168.142 33.5122C168.937 33.5122 169.699 33.8091 170.261 34.3376C170.824 34.8661 171.14 35.5831 171.141 36.3311Z" fill="#263238"/>
<path d="M170.965 44.4219V47.0109C170.965 47.0109 168.395 49.4423 170.897 49.6552C173.399 49.8681 174.969 47.1982 174.969 47.1982V42.2629L170.965 44.4219Z" fill="#945959"/>
<path d="M174.928 41.4837V41.637C174.023 44.9542 171.711 45.6781 170.965 45.8442L170.938 40.7087H174.815L174.928 41.4837Z" fill="#703838"/>
<path d="M171.689 34.0957C170.407 34.1736 169.208 34.7198 168.348 35.6179C167.487 36.516 167.034 37.6949 167.084 38.9032C167.038 42.578 167.635 45.3799 169.658 45.4949C171.68 45.6099 176.199 43.8938 176.412 39.1076C176.624 34.3213 173.132 33.9722 171.689 34.0957Z" fill="#945959"/>
<path d="M169.816 40.3809L169.852 42.5355L168.504 42.1693L169.816 40.3809Z" fill="#703838"/>
<path d="M171.829 40.3211C171.829 40.4044 171.803 40.4858 171.754 40.5553C171.705 40.6248 171.636 40.6793 171.555 40.7121C171.473 40.7449 171.384 40.7544 171.296 40.7397C171.209 40.7249 171.129 40.6864 171.065 40.629C171.001 40.5715 170.956 40.4976 170.936 40.4165C170.916 40.3353 170.922 40.2505 170.953 40.1724C170.983 40.0943 171.038 40.0264 171.109 39.9772C171.181 39.9279 171.266 39.8995 171.354 39.8953C171.415 39.8924 171.477 39.9013 171.534 39.9214C171.592 39.9415 171.644 39.9724 171.689 40.0122C171.733 40.0521 171.768 40.1 171.793 40.1531C171.817 40.2062 171.829 40.2634 171.829 40.3211Z" fill="#263238"/>
<path d="M168.753 40.0572C168.753 40.1414 168.726 40.2237 168.677 40.2937C168.627 40.3638 168.556 40.4184 168.474 40.4506C168.391 40.4828 168.3 40.4912 168.212 40.4748C168.124 40.4584 168.044 40.4178 167.981 40.3583C167.917 40.2987 167.874 40.2228 167.857 40.1402C167.839 40.0576 167.848 39.972 167.883 39.8942C167.917 39.8164 167.975 39.7499 168.049 39.7031C168.124 39.6563 168.211 39.6313 168.3 39.6313C168.42 39.6313 168.536 39.6762 168.62 39.7561C168.705 39.8359 168.753 39.9442 168.753 40.0572Z" fill="#263238"/>
<path d="M167.703 39.1546L168.608 38.6308C168.608 38.6308 168.255 38.2944 167.907 38.5031C167.808 38.58 167.735 38.6832 167.699 38.7994C167.662 38.9155 167.664 39.0393 167.703 39.1546Z" fill="#00B49F"/>
<path d="M169.549 43.2891C170.022 43.0743 170.483 42.8354 170.929 42.5737C170.929 42.5737 171.218 43.2806 170.608 43.5702C170.424 43.6455 170.218 43.6587 170.025 43.6074C169.832 43.5562 169.664 43.4438 169.549 43.2891Z" fill="#703838"/>
<path d="M167.703 39.1546L168.608 38.6308C168.608 38.6308 168.255 38.2944 167.907 38.5031C167.808 38.58 167.735 38.6832 167.699 38.7994C167.662 38.9155 167.664 39.0393 167.703 39.1546Z" fill="#263238"/>
<path d="M174.127 40.121C174.127 40.121 174.037 41.6668 174.982 41.6668H176.837V38.7201C176.837 35.4157 174.172 31.9623 168.504 34.6918C168.504 34.6918 168.228 39.1033 174.127 40.121Z" fill="#263238"/>
<path d="M174.842 41.735C174.83 41.3982 174.899 41.0632 175.046 40.7556C175.117 40.564 175.246 40.3961 175.417 40.2728C175.588 40.1494 175.794 40.076 176.009 40.0615C177.113 40.0615 177.249 41.0452 177.231 41.4029C177.184 41.9541 176.912 42.4667 176.471 42.8323C176.03 43.1979 175.456 43.3877 174.869 43.3616L174.842 41.735Z" fill="#945959"/>
<path d="M177.231 47.3047C177.231 47.3047 174.625 49.7489 177.95 53.5217C181.275 57.2945 181.972 58.1078 181.972 58.1078C181.972 58.1078 185.383 58.4229 185.88 55.4592C185.88 55.4592 181.872 50.1577 180.777 48.8206C179.682 47.4835 178.687 47.3728 177.231 47.3047Z" fill="#00B49F"/>
<path opacity="0.2" d="M177.231 47.3047C177.231 47.3047 174.625 49.7489 177.95 53.5217C181.275 57.2945 181.972 58.1078 181.972 58.1078C181.972 58.1078 185.383 58.4229 185.88 55.4592C185.88 55.4592 181.872 50.1577 180.777 48.8206C179.682 47.4835 178.687 47.3728 177.231 47.3047Z" fill="black"/>
<path opacity="0.3" d="M169.649 56.4897C169.649 56.4897 173.639 57.5372 174.973 53.9646C174.973 53.9859 174.286 58.423 169.649 56.4897Z" fill="black"/>
<path d="M185.392 68.5533C185.392 68.5533 184.758 68.9024 184.609 70.1501C184.564 70.5078 183.867 71.3041 183.971 71.5042C184.075 71.7043 184.772 71.9769 185.523 70.8059C185.659 71.4 185.668 72.0138 185.55 72.6114C185.346 73.5354 184.994 74.7192 186.274 74.4594C187.554 74.1997 189.44 73.2458 189.142 71.4489C188.866 69.7158 188.712 68.3105 188.712 68.3105L185.392 68.5533Z" fill="#945959"/>
<path d="M110.033 91.8073L108.088 91.0196V72.0833L110.033 72.871V91.8073Z" fill="#00B49F"/>
<path opacity="0.6" d="M110.033 91.8073L108.088 91.0196V72.0833L110.033 72.871V91.8073Z" fill="black"/>
<path d="M155.417 48.1564L110.033 72.8711L108.088 72.0833L153.471 47.3687L155.417 48.1564Z" fill="#00B49F"/>
<path opacity="0.4" d="M155.417 48.1564L110.033 72.8711L108.088 72.0833L153.471 47.3687L155.417 48.1564Z" fill="black"/>
<path d="M155.417 67.0928L110.033 91.8075V72.8712L155.417 48.1565V67.0928Z" fill="#00B49F"/>
<path opacity="0.3" d="M155.417 67.0928L110.033 91.8075V72.8712L155.417 48.1565V67.0928Z" fill="black"/>
<path d="M132.53 90.0579C131.091 90.8367 129.754 91.3065 128.52 91.4674C127.303 91.5996 126.241 91.434 125.332 90.9706C124.441 90.4979 123.747 89.7432 123.25 88.7066C122.753 87.6699 122.505 86.3624 122.505 84.7841C122.505 83.2058 122.753 81.6295 123.25 80.0551C123.747 78.4807 124.441 76.975 125.332 75.5382C126.241 74.092 127.303 72.7865 128.52 71.6216C129.754 70.428 131.091 69.4418 132.53 68.663C134.296 67.708 135.855 67.2151 137.209 67.1841C138.58 67.1439 139.711 67.5452 140.603 68.3881L136.772 74.3476C136.241 73.8751 135.65 73.6104 134.998 73.5535C134.364 73.4678 133.644 73.6429 132.839 74.0786C132.205 74.4217 131.631 74.8492 131.117 75.3611C130.602 75.8731 130.157 76.4551 129.78 77.1073C129.42 77.7501 129.137 78.4487 128.931 79.203C128.726 79.9378 128.623 80.6949 128.623 81.4743C128.623 82.2537 128.726 82.9093 128.931 83.441C129.137 83.9533 129.42 84.3362 129.78 84.5897C130.157 84.8339 130.602 84.9338 131.117 84.8895C131.631 84.8452 132.205 84.6515 132.839 84.3085C133.644 83.8727 134.364 83.2787 134.998 82.5265C135.65 81.7455 136.241 80.8313 136.772 79.784L140.603 81.5992C139.711 83.3868 138.58 85.012 137.209 86.4746C135.855 87.9085 134.296 89.103 132.53 90.0579Z" fill="white"/>
<path d="M135.173 76.4273V68.1492L137.842 66.692V74.9701L135.173 76.4273ZM132.726 75.06V72.188L140.289 68.0593V70.9313L132.726 75.06ZM135.173 97.4273V89.1492L137.842 87.692V95.9701L135.173 97.4273ZM132.726 96.06V93.188L140.289 89.0593V91.9313L132.726 96.06Z" fill="white"/>
<path d="M149.536 143.877C149.536 143.877 151.381 142.906 151.612 141.824C151.843 140.743 149.802 138.252 149.802 138.252C149.802 138.252 148.305 139.057 149.536 143.877Z" fill="#00B49F"/>
<path opacity="0.2" d="M149.536 143.877C149.536 143.877 151.381 142.906 151.612 141.824C151.843 140.743 149.802 138.252 149.802 138.252C149.802 138.252 148.305 139.057 149.536 143.877Z" fill="black"/>
<path d="M126.939 147.228L129.631 145.734L129.983 143.196L129.056 142.991L126.939 147.228Z" fill="#00B49F"/>
<path opacity="0.3" d="M126.939 147.228L129.631 145.734L129.983 143.196L129.056 142.991L126.939 147.228Z" fill="black"/>
<path d="M142.881 132.639L145.396 136.421L147.075 141.658C147.075 141.658 150.173 141.296 148.224 134.573L146.762 130.519L142.881 132.639Z" fill="#FFA8A7"/>
<path d="M126.405 134.041L126.934 140.066L125.084 144.686C125.084 144.686 126.011 146.845 128.925 142.276C130.472 139.849 130.522 139.368 130.522 139.368L131.132 134.045L126.405 134.041Z" fill="#FFA8A7"/>
<path d="M128.807 75.3452L127.862 77.1081C127.848 77.1338 127.84 77.162 127.839 77.1908C127.837 77.2196 127.843 77.2484 127.854 77.275C127.866 77.3017 127.883 77.3257 127.906 77.3454C127.928 77.3651 127.955 77.3801 127.984 77.3892L129.106 77.7383L128.807 75.3452Z" fill="#F28F8F"/>
<path d="M130.119 72.3899C130.119 72.3899 128.667 73.118 128.667 77.2911C128.667 79.5863 128.834 81.0511 130.101 80.9617C131.368 80.8723 135.014 80.4209 135.014 80.4209V72.3899H130.119Z" fill="#FFA8A7"/>
<path d="M130.119 80.9618C130.572 80.9277 131.304 80.8511 132.073 80.7659V80.3401C131.378 80.6228 130.651 80.83 129.906 80.9575C129.977 80.9654 130.048 80.9668 130.119 80.9618Z" fill="#F28F8F"/>
<path d="M131.856 80.1611V82.7842H135.665V79.1008L131.856 80.1611Z" fill="#FFA8A7"/>
<path d="M138.375 89.3633L140.85 94.1453L138.995 96.432L140.275 100.516L144.252 96.0998C144.597 95.7169 144.827 95.2532 144.915 94.7576C145.003 94.2621 144.948 93.7533 144.754 93.2851C143.659 90.6365 141.483 85.4245 140.895 84.5004C140.099 83.2528 139.149 82.5885 137.728 82.6311C136.308 82.6737 138.375 89.3633 138.375 89.3633Z" fill="#FFA8A7"/>
<path d="M139.569 97.2197C140.144 98.8421 141.379 101.125 141.343 108.794C141.307 114.155 141.343 117.174 141.397 118.502C141.407 118.978 141.603 119.433 141.949 119.78C142.555 120.367 143.587 121.632 144.559 124.038C145.425 126.157 146.16 128.321 146.762 130.519C146.762 130.519 146.057 132.682 142.876 132.648L134.923 120.619C134.606 120.135 134.401 119.594 134.322 119.03L132.232 104.088V97.9692L139.569 97.2197Z" fill="#00B49F"/>
<path opacity="0.6" d="M139.569 97.2197C140.144 98.8421 141.379 101.125 141.343 108.794C141.307 114.155 141.343 117.174 141.397 118.502C141.407 118.978 141.603 119.433 141.949 119.78C142.555 120.367 143.587 121.632 144.559 124.038C145.425 126.157 146.16 128.321 146.762 130.519C146.762 130.519 146.057 132.682 142.876 132.648L134.923 120.619C134.606 120.135 134.401 119.594 134.322 119.03L132.232 104.088V97.9692L139.569 97.2197Z" fill="black"/>
<path d="M133.915 116.062L136.122 108.61C136.122 108.61 139.226 105.63 138.122 100.52L133.431 106.081L133.666 114.563L133.915 116.062Z" fill="#00B49F"/>
<path opacity="0.7" d="M133.915 116.062L136.122 108.61C136.122 108.61 139.226 105.63 138.122 100.52L133.431 106.081L133.666 114.563L133.915 116.062Z" fill="black"/>
<path d="M126.627 97.637C126.496 100.047 125.107 115.053 125.306 119.418C125.505 123.782 126.405 134.04 126.405 134.04C126.405 134.04 129.404 135.207 131.128 134.04C131.128 134.04 131.856 129.995 132.331 126.802C132.621 125.149 132.561 123.459 132.155 121.828C131.99 121.229 131.99 120.6 132.155 120.001L135.539 107.776C135.539 107.776 138.461 105.847 138.461 100.511V96.5085L126.627 97.637Z" fill="#00B49F"/>
<path opacity="0.6" d="M126.627 97.637C126.496 100.047 125.107 115.053 125.306 119.418C125.505 123.782 126.405 134.04 126.405 134.04C126.405 134.04 129.404 135.207 131.128 134.04C131.128 134.04 131.856 129.995 132.331 126.802C132.621 125.149 132.561 123.459 132.155 121.828C131.99 121.229 131.99 120.6 132.155 120.001L135.539 107.776C135.539 107.776 138.461 105.847 138.461 100.511V96.5085L126.627 97.637Z" fill="black"/>
<path d="M134.756 80.9404L128.667 83.044C128.667 83.044 125.817 85.3732 125.817 89.8231C125.817 91.0707 127.097 92.1906 127.097 92.1906C127.097 92.1906 126.645 96.0997 126.609 97.6369C126.609 97.6369 129.721 99.6936 135.525 98.8846C136.978 98.6074 138.351 98.0396 139.551 97.2196C139.551 97.2196 138.647 93.7704 138.533 93.4383C138.42 93.1062 139.773 89.0736 139.773 85.8714L134.756 80.9404Z" fill="#455A64"/>
<path d="M129.377 73.3225C129.377 73.3225 129.622 75.3366 130.992 75.8774C130.992 75.8774 129.906 77.2784 131.517 77.8916V76.81L132.191 78.0491C132.191 78.0491 130.296 85.2881 133.584 85.2881C134.157 85.2969 134.714 85.1126 135.154 84.7686C135.154 84.7686 135.661 86.6592 138.705 86.6592C141.75 86.6592 142.324 83.8531 142.324 83.8531C142.324 83.8531 140.293 84.4322 140.293 82.4393C140.293 80.4465 140.139 74.0421 140.026 73.0713C139.822 72.0494 139.27 71.1177 138.454 70.4166C137.638 69.7154 136.602 69.2827 135.503 69.1835C133.127 68.9152 130.047 68.9323 128.264 71.2402C126.482 73.5482 129.024 74.1954 129.024 74.1954C129.024 74.1954 129.083 74.1145 129.377 73.3225Z" fill="#263238"/>
<path d="M131.517 76.8185C131.517 76.8185 131.417 75.0556 132.874 75.1918C134.539 75.3451 134.01 78.1726 131.969 78.1726L131.517 76.8185Z" fill="#FFA8A7"/>
<path d="M140.795 71.4446C140.411 70.8784 139.888 70.4068 139.271 70.0692C139.071 69.9817 138.855 69.9324 138.635 69.9243C138.415 69.9162 138.195 69.9493 137.989 70.0219C137.783 70.0944 137.594 70.2048 137.433 70.3467C137.273 70.4886 137.144 70.6592 137.054 70.8484C136.883 71.182 136.791 71.5469 136.786 71.9174C136.78 72.2879 136.862 72.655 137.023 72.9928C137.185 73.3306 137.424 73.6309 137.722 73.8725C138.02 74.1141 138.372 74.2912 138.751 74.3912C138.899 74.4293 139.05 74.4564 139.203 74.4722C139.627 74.5083 140.051 74.3989 140.396 74.1641C140.741 73.9293 140.984 73.585 141.08 73.1947C141.14 72.9935 141.172 72.786 141.175 72.5772C141.18 72.1713 141.047 71.7746 140.795 71.4446Z" fill="#00B49F"/>
<path d="M142.039 71.8705C142.039 72.315 141.898 72.7493 141.635 73.1185C141.372 73.4876 140.998 73.7751 140.562 73.9447C140.125 74.1142 139.645 74.1581 139.182 74.0709C138.719 73.9836 138.294 73.7692 137.96 73.4546C137.627 73.14 137.4 72.7393 137.308 72.3033C137.216 71.8673 137.264 71.4155 137.445 71.0049C137.625 70.5943 137.932 70.2434 138.324 69.9965C138.717 69.7497 139.179 69.6179 139.651 69.6179C139.965 69.6179 140.276 69.6762 140.566 69.7895C140.856 69.9027 141.12 70.0687 141.341 70.2779C141.563 70.4872 141.739 70.7355 141.859 71.0088C141.979 71.2821 142.04 71.5749 142.039 71.8705Z" fill="#263238"/>
<path d="M128.667 83.0441C128.667 83.0441 130.716 83.3379 130.716 85.9141C130.716 88.4904 125.681 89.6571 123.297 90.4875C121.94 90.9686 120.099 91.6414 118.809 92.1269C118.313 92.3126 117.772 92.3655 117.246 92.2799C116.72 92.1942 116.229 91.9732 115.828 91.6414C113.317 89.5744 111.042 87.2651 109.042 84.7516C109.042 84.7516 106.165 83.7935 106.251 81.1322C106.337 78.4708 108.061 77.7256 108.061 77.7256V78.6113C108.061 78.9009 108.131 79.1866 108.267 79.4465C108.402 79.7064 108.6 79.9334 108.843 80.1102L109.418 80.536C109.481 80.5821 109.555 80.6136 109.634 80.6278C109.713 80.642 109.794 80.6387 109.871 80.6179C109.948 80.5972 110.019 80.5597 110.078 80.5085C110.136 80.4573 110.182 80.3938 110.21 80.3231C110.409 79.8121 110.757 79.1478 111.277 78.9264C112.159 78.5517 111.852 80.1655 111.63 80.9363C111.498 81.378 111.439 81.836 111.454 82.2947L117.9 87.6558C117.9 87.6558 124.975 84.1512 128.667 83.0441Z" fill="#FFA8A7"/>
<path d="M130.522 139.376C130.061 139.448 129.625 139.621 129.248 139.881C128.871 140.14 128.563 140.479 128.35 140.871C127.645 142.199 126.319 145.942 125.084 144.703L125.505 143.66C125.505 143.66 120.56 144.677 121.741 145.895C122.922 147.113 126.627 147.654 126.939 147.237C127.251 146.819 128.925 143.83 128.925 143.83L129.852 147.82C129.987 147.93 130.16 147.991 130.339 147.991C130.517 147.991 130.69 147.93 130.825 147.82C130.825 147.82 132.033 140.164 130.522 139.376Z" fill="#00B49F"/>
<path d="M147.075 141.658C147.43 141.489 147.718 141.214 147.893 140.877C148.069 140.54 148.123 140.158 148.047 139.789C147.871 138.375 146.726 135.561 148.224 134.573C148.889 134.147 150.363 136.046 151.612 138.333C152.861 140.619 153.213 141.284 153.213 141.284C153.213 141.284 153.078 141.897 152.508 141.867L149.771 139.206C149.594 140.018 149.624 140.859 149.857 141.658C150.255 142.906 150.309 143.63 148.866 144.235C147.423 144.839 143.474 145.665 145.586 143.157C146.004 142.593 146.505 142.089 147.075 141.658Z" fill="#00B49F"/>
<path d="M41.0262 148.548L41.3791 151.984C41.3791 151.984 41.7727 152.691 43.5868 152.691C45.4008 152.691 44.9982 151.235 44.9982 151.235L45.1746 148.548H41.0262Z" fill="#FFA8A7"/>
<path d="M46.4684 113.763C46.4684 115.547 46.292 132.963 46.2784 134.13C46.2807 134.171 46.2807 134.212 46.2784 134.253C46.2061 135.224 45.3103 147.164 45.1791 148.548C45.1791 148.548 43.0167 150.098 41.0308 148.548C41.0308 148.548 40.4969 144.337 40.3205 143.089C40.1441 141.841 39.4791 136.276 40.3205 134.441L38.1581 123.884V115.406L46.4684 113.763Z" fill="#37474F"/>
<path d="M44.0165 116.437C44.0165 116.437 43.5641 119.102 40.316 120.559L38.891 127.478L38.1536 124.246V116.692L44.0165 116.437Z" fill="#263238"/>
<path d="M27.1561 151.235L26.8032 153.79C26.8032 153.79 27.7487 156.111 30.6349 154.991L31.1642 152.334L27.1561 151.235Z" fill="#FFA8A7"/>
<path d="M31.1642 114.074C30.9652 116.066 30.3816 121.138 30.1599 127.7C29.9382 134.262 29.9382 134.223 29.9382 134.223C29.1444 135.832 28.6034 137.54 28.3323 139.295C28.0563 141.756 27.1561 151.218 27.1561 151.218C27.6585 151.722 28.2963 152.088 29.0019 152.278C29.7075 152.469 30.4546 152.476 31.1642 152.3L36.4933 136.544C36.6369 136.115 36.7473 135.677 36.8236 135.233L39.4338 119.746C39.4338 119.746 43.9848 119.166 44.9982 113.635L31.1642 114.074Z" fill="#37474F"/>
<path d="M47.9251 101.818L53.0552 105.685V100.073L51.2366 98.3267L47.9251 101.818Z" fill="#F28F8F"/>
<path d="M42.9217 93.0593C44.1381 92.9742 45.3446 93.3188 46.3056 94.026C47.8934 95.2097 51.2366 98.3268 51.2366 98.3268C51.114 99.152 50.7339 99.9245 50.1443 100.546C49.5548 101.168 48.7824 101.611 47.9251 101.818L44.6453 99.6085L42.9217 93.0593Z" fill="#00B49F"/>
<path opacity="0.2" d="M42.9217 93.0593C44.1381 92.9742 45.3446 93.3188 46.3056 94.026C47.8934 95.2097 51.2366 98.3268 51.2366 98.3268C51.114 99.152 50.7339 99.9245 50.1443 100.546C49.5548 101.168 48.7824 101.611 47.9251 101.818L44.6453 99.6085L42.9217 93.0593Z" fill="white"/>
<path d="M36.2626 93.0891C36.2626 93.0891 32.8878 93.4085 31.3633 93.7193L30.8023 99.4509C30.8023 99.4509 31.9876 105.838 31.9876 106.737C31.9876 107.635 31.1642 114.074 31.1642 114.074C31.1642 114.074 33.494 115.509 40.2753 115.509C42.4658 115.443 44.6004 114.842 46.4684 113.763V101.026C46.4684 98.5482 45.4415 94.6391 42.9217 93.0593H40.8498L36.2626 93.0891Z" fill="#00B49F"/>
<path opacity="0.2" d="M36.2626 93.0891C36.2626 93.0891 32.8878 93.4085 31.3633 93.7193L30.8023 99.4509C30.8023 99.4509 31.9876 105.838 31.9876 106.737C31.9876 107.635 31.1642 114.074 31.1642 114.074C31.1642 114.074 33.494 115.509 40.2753 115.509C42.4658 115.443 44.6004 114.842 46.4684 113.763V101.026C46.4684 98.5482 45.4415 94.6391 42.9217 93.0593H40.8498L36.2626 93.0891Z" fill="black"/>
<path d="M54.9959 110.582L53.0552 109.794V90.8577L54.9959 91.6454V110.582Z" fill="#00B49F"/>
<path opacity="0.6" d="M54.9959 110.582L53.0552 109.794V90.8577L54.9959 91.6454V110.582Z" fill="black"/>
<path d="M100.379 66.9308L54.9959 91.6455L53.0552 90.8578L98.434 66.1431L100.379 66.9308Z" fill="#00B49F"/>
<path opacity="0.4" d="M100.379 66.9308L54.9959 91.6455L53.0552 90.8578L98.434 66.1431L100.379 66.9308Z" fill="black"/>
<path d="M100.379 85.8672L54.9959 110.582V91.6456L100.379 66.9309V85.8672Z" fill="#00B49F"/>
<path opacity="0.3" d="M100.379 85.8672L54.9959 110.582V91.6456L100.379 66.9309V85.8672Z" fill="black"/>
<path d="M73.3403 111.242C71.9007 112.021 70.5639 112.491 69.3299 112.652C68.1131 112.784 67.0505 112.619 66.1422 112.155C65.251 111.682 64.5569 110.928 64.0599 109.891C63.5629 108.854 63.3144 107.547 63.3144 105.969C63.3144 104.39 63.5629 102.814 64.0599 101.24C64.5569 99.6653 65.251 98.1596 66.1422 96.7227C67.0505 95.2766 68.1131 93.971 69.3299 92.8062C70.5639 91.6125 71.9007 90.6263 73.3403 89.8475C75.1056 88.8926 76.6651 88.3996 78.0191 88.3687C79.3901 88.3285 80.5213 88.7298 81.4125 89.5727L77.582 95.5322C77.0508 95.0596 76.4595 94.7949 75.8082 94.738C75.1741 94.6524 74.4543 94.8275 73.6488 95.2632C73.0147 95.6062 72.4405 96.0337 71.9264 96.5457C71.4122 97.0577 70.9666 97.6397 70.5896 98.2918C70.2297 98.9347 69.9469 99.6333 69.7413 100.388C69.5356 101.122 69.4328 101.879 69.4328 102.659C69.4328 103.438 69.5356 104.094 69.7413 104.626C69.9469 105.138 70.2297 105.521 70.5896 105.774C70.9666 106.018 71.4122 106.118 71.9264 106.074C72.4405 106.03 73.0147 105.836 73.6488 105.493C74.4543 105.057 75.1741 104.463 75.8082 103.711C76.4595 102.93 77.0508 102.016 77.582 100.969L81.4125 102.784C80.5213 104.571 79.3901 106.197 78.0191 107.659C76.6651 109.093 75.1056 110.288 73.3403 111.242ZM70.7438 148.647C69.2357 149.463 67.7789 150.056 66.3736 150.427C64.9682 150.797 63.8114 150.916 62.903 150.784L64.8568 144.7C65.7137 144.802 66.6649 144.745 67.7104 144.53C68.7729 144.287 69.8012 143.896 70.7953 143.358C71.378 143.043 71.8321 142.758 72.1578 142.504C72.5005 142.221 72.749 141.96 72.9033 141.721C73.0575 141.462 73.1346 141.216 73.1346 140.982C73.1346 140.612 72.9547 140.417 72.5948 140.397C72.2349 140.378 71.755 140.462 71.1552 140.65C70.5725 140.809 69.9298 141.001 69.2271 141.225C68.5244 141.43 67.8132 141.591 67.0934 141.707C66.3907 141.815 65.7394 141.806 65.1396 141.683C64.5569 141.55 64.0856 141.22 63.7257 140.694C63.3658 140.148 63.1858 139.33 63.1858 138.239C63.1858 136.972 63.4943 135.656 64.1113 134.289C64.7454 132.894 65.6795 131.551 66.9134 130.26C68.1645 128.959 69.7155 127.808 71.5665 126.807C72.7833 126.149 73.983 125.646 75.1655 125.299C76.3481 124.951 77.4107 124.824 78.3533 124.919L76.528 130.904C75.6368 130.879 74.7714 130.968 73.9316 131.169C73.1089 131.36 72.3034 131.669 71.5151 132.096C70.9324 132.411 70.4696 132.72 70.1269 133.022C69.7841 133.325 69.5356 133.615 69.3813 133.893C69.2442 134.162 69.1757 134.414 69.1757 134.648C69.1757 134.998 69.3556 135.183 69.7155 135.203C70.0754 135.203 70.5468 135.114 71.1295 134.935C71.7293 134.747 72.3806 134.541 73.0832 134.317C73.803 134.083 74.5143 133.913 75.217 133.805C75.9196 133.698 76.5623 133.711 77.145 133.844C77.7449 133.967 78.2247 134.292 78.5846 134.819C78.9445 135.345 79.1245 136.144 79.1245 137.216C79.1245 138.463 78.8074 139.784 78.1733 141.179C77.5563 142.546 76.6309 143.884 75.3969 145.195C74.1629 146.486 72.6119 147.636 70.7438 148.647ZM70.7438 184.647C69.2357 185.463 67.7789 186.056 66.3736 186.427C64.9682 186.797 63.8114 186.916 62.903 186.784L64.8568 180.7C65.7137 180.802 66.6649 180.745 67.7104 180.53C68.7729 180.287 69.8012 179.896 70.7953 179.358C71.378 179.043 71.8321 178.758 72.1578 178.504C72.5005 178.221 72.749 177.96 72.9033 177.721C73.0575 177.462 73.1346 177.216 73.1346 176.982C73.1346 176.612 72.9547 176.417 72.5948 176.397C72.2349 176.378 71.755 176.462 71.1552 176.65C70.5725 176.809 69.9298 177.001 69.2271 177.225C68.5244 177.43 67.8132 177.591 67.0934 177.707C66.3907 177.815 65.7394 177.806 65.1396 177.683C64.5569 177.55 64.0856 177.22 63.7257 176.694C63.3658 176.148 63.1858 175.33 63.1858 174.239C63.1858 172.972 63.4943 171.656 64.1113 170.289C64.7454 168.894 65.6795 167.551 66.9134 166.26C68.1645 164.959 69.7155 163.808 71.5665 162.807C72.7833 162.149 73.983 161.646 75.1655 161.299C76.3481 160.951 77.4107 160.824 78.3533 160.919L76.528 166.904C75.6368 166.879 74.7714 166.968 73.9316 167.169C73.1089 167.36 72.3034 167.669 71.5151 168.096C70.9324 168.411 70.4696 168.72 70.1269 169.022C69.7841 169.325 69.5356 169.615 69.3813 169.893C69.2442 170.162 69.1757 170.414 69.1757 170.648C69.1757 170.998 69.3556 171.183 69.7155 171.203C70.0754 171.203 70.5468 171.114 71.1295 170.935C71.7293 170.747 72.3806 170.541 73.0832 170.317C73.803 170.083 74.5143 169.913 75.217 169.805C75.9196 169.698 76.5623 169.711 77.145 169.844C77.7449 169.967 78.2247 170.292 78.5846 170.819C78.9445 171.345 79.1245 172.144 79.1245 173.216C79.1245 174.463 78.8074 175.784 78.1733 177.179C77.5563 178.546 76.6309 179.884 75.3969 181.195C74.1629 182.486 72.6119 183.636 70.7438 184.647Z" fill="white"/>
<path d="M44.9756 81.0085C44.9756 81.0085 47.613 83.1888 45.3194 88.0474L42.6367 81.4812L44.9756 81.0085Z" fill="#263238"/>
<path d="M36.2626 93.0891C36.2626 93.0891 37.1674 95.3673 39.6872 95.3673C42.207 95.3673 40.8498 93.0593 40.8498 93.0593L36.2626 93.0891Z" fill="#FFA8A7"/>
<path d="M36.2626 93.0891L40.8498 93.0593V86.4548H36.2626V93.0891Z" fill="#FFA8A7"/>
<path d="M40.8498 92.7953C39.1579 92.1779 37.009 91.1559 37.009 90.1808L36.4526 86.8977H40.8498V92.7953Z" fill="#F28F8F"/>
<path d="M39.7957 79.6628C41.4153 79.6628 44.8534 80.5145 45.2515 84.5002C45.6496 88.4859 45.0298 91.8754 43.0801 91.8754C39.2529 91.8754 35.5795 91.4155 35.5478 85.5221C35.5207 80.3229 38.2169 79.6628 39.7957 79.6628Z" fill="#FFA8A7"/>
<path d="M36.2671 89.0139L36.8869 87.2C36.9336 87.2373 36.9907 87.2614 37.0514 87.2692C37.1121 87.277 37.174 87.2683 37.2296 87.2442C37.2853 87.22 37.3324 87.1813 37.3655 87.1327C37.3985 87.0842 37.4161 87.0277 37.4162 86.97V83.7551C37.4162 83.7551 39.0086 83.3292 38.8412 82.0731C38.8412 82.0731 39.6555 82.7586 42.777 82.7586C45.8984 82.7586 46.6584 80.2676 46.3463 78.8794C46.3463 78.8794 45.7672 79.4415 44.116 79.4415C42.4648 79.4415 35.5931 77.4912 35.4167 81.4003C35.4167 81.4003 34.8331 80.5997 33.8966 81.4003L35.1045 82.0901C35.1045 82.0901 33.675 82.0475 33.8966 84.0191C34.0731 85.5776 34.7607 88.5285 35.0457 89.708C35.1264 90.0345 35.3347 90.3203 35.6293 90.5086L36.2671 90.9131V89.0139Z" fill="#263238"/>
<path d="M42.2296 85.6968V88.0473L43.6908 87.6215L42.2296 85.6968Z" fill="#F28F8F"/>
<path d="M39.6329 86.1014C39.632 86.197 39.6613 86.2906 39.7172 86.3704C39.773 86.4501 39.8528 86.5125 39.9464 86.5494C40.04 86.5864 40.1431 86.5963 40.2427 86.5778C40.3423 86.5594 40.4338 86.5135 40.5055 86.4459C40.5773 86.3784 40.6261 86.2923 40.6457 86.1985C40.6652 86.1048 40.6547 86.0077 40.6155 85.9196C40.5762 85.8315 40.51 85.7564 40.4253 85.7038C40.3405 85.6513 40.241 85.6237 40.1396 85.6245C40.073 85.6245 40.0071 85.6369 39.9457 85.6608C39.8842 85.6848 39.8283 85.7199 39.7813 85.7642C39.7342 85.8085 39.6969 85.8611 39.6715 85.9189C39.646 85.9768 39.6329 86.0388 39.6329 86.1014Z" fill="#263238"/>
<path d="M43.4374 85.7693C43.4374 85.8644 43.4674 85.9575 43.5236 86.0366C43.5798 86.1157 43.6596 86.1774 43.753 86.2138C43.8464 86.2502 43.9492 86.2598 44.0484 86.2412C44.1475 86.2226 44.2386 86.1768 44.3101 86.1095C44.3816 86.0422 44.4303 85.9565 44.45 85.8631C44.4697 85.7698 44.4596 85.6731 44.4209 85.5851C44.3822 85.4972 44.3167 85.4221 44.2326 85.3692C44.1486 85.3163 44.0497 85.2881 43.9486 85.2881C43.8131 85.2881 43.683 85.3388 43.5872 85.429C43.4913 85.5193 43.4374 85.6417 43.4374 85.7693Z" fill="#263238"/>
<path d="M44.5684 84.7686L43.5732 84.215C43.5732 84.215 43.9532 83.8403 44.3332 84.066C44.4431 84.147 44.5245 84.2576 44.5664 84.383C44.6084 84.5084 44.6091 84.6428 44.5684 84.7686Z" fill="#263238"/>
<path d="M39.0945 85.1178L40.0853 84.56C40.0853 84.56 39.7053 84.1852 39.3253 84.4109C39.2157 84.4932 39.1351 84.6047 39.094 84.7308C39.0528 84.8569 39.053 84.9918 39.0945 85.1178Z" fill="#263238"/>
<path d="M42.9172 88.997C42.4365 89.0285 41.9585 88.907 41.56 88.6521C41.56 88.6521 41.465 89.3334 42.0712 89.4612C42.2473 89.4859 42.4271 89.4534 42.5809 89.369C42.7347 89.2846 42.8533 89.1534 42.9172 88.997Z" fill="#F28F8F"/>
<path d="M36.6426 86.54C37.2172 87.481 37.0679 88.6222 36.2671 89.014C35.7469 89.2652 34.2224 88.7244 33.6478 87.7834C33.0733 86.8423 33.3945 86.0375 34.1771 85.6117C34.9598 85.1859 36.0636 85.5989 36.6426 86.54Z" fill="#FFA8A7"/>
<path d="M36.9321 87.2382L35.1724 85.4412L36.439 84.7258L36.9321 87.2382Z" fill="#253239"/>
<path d="M39.5469 100.575L41.9672 103.1C41.9672 103.1 43.9441 102.836 46.2377 102.725C48.0578 102.546 49.8626 102.249 51.6392 101.835C51.6392 101.835 52.0916 100.013 53.0597 99.2805V100.707C53.0597 100.707 54.358 101.133 55.0004 100.528C56.1088 99.5019 57.0995 98.5566 57.0995 100.707C57.0995 103.709 55.7423 104.927 52.078 104.863C52.078 104.863 42.8267 108.512 40.61 108.104C39.2529 107.861 35.5252 104.552 35.5252 104.552L39.5469 100.575Z" fill="#FFA8A7"/>
<path d="M29.5944 94.5496C31.1507 93.0592 32.9285 93.7533 34.4893 95.2224C36.05 96.6915 39.5469 100.575 39.5469 100.575C39.5469 100.575 39.1941 103.603 35.5252 104.565C35.5252 104.565 30.5761 99.7148 29.9428 99.0548C28.7937 97.8454 28.1197 95.9718 29.5944 94.5496Z" fill="#00B49F"/>
<path opacity="0.2" d="M29.5944 94.5496C31.1507 93.0592 32.9285 93.7533 34.4893 95.2224C36.05 96.6915 39.5469 100.575 39.5469 100.575C39.5469 100.575 39.1941 103.603 35.5252 104.565C35.5252 104.565 30.5761 99.7148 29.9428 99.0548C28.7937 97.8454 28.1197 95.9718 29.5944 94.5496Z" fill="white"/>
<path d="M62.4196 106.549C62.4592 106.067 62.6032 105.597 62.8428 105.168C63.0824 104.74 63.4126 104.362 63.8129 104.058C65.8984 102.559 65.8125 104.058 65.8622 104.676C65.912 105.293 63.9305 107.486 61.7591 106.907L62.4196 106.549Z" fill="#FFA8A7"/>
<path d="M26.8032 153.773C26.9144 154.006 27.0675 154.219 27.2556 154.403C27.3007 154.439 27.3553 154.463 27.4135 154.472C27.4717 154.481 27.5314 154.474 27.5862 154.454C27.6411 154.433 27.6889 154.399 27.7247 154.355C27.7605 154.311 27.7829 154.258 27.7894 154.203C27.7948 154.062 27.8394 153.925 27.9188 153.806C27.9982 153.686 28.1096 153.588 28.2418 153.522C28.554 153.398 31.0466 153.356 31.0692 153.833C31.0703 154.193 31.0309 154.553 30.9516 154.906C30.9516 154.906 31.3542 158.133 32.1188 159.411C32.8833 160.688 34.1319 162.754 31.5035 163.358C28.8751 163.963 26.8892 162.651 26.7987 160.906C26.7082 159.16 26.7535 157.925 26.577 157.622C26.4006 157.32 25.4732 157.163 25.8261 155.566C26.1789 153.969 26.2332 153.011 26.9118 152.96L26.8032 153.773Z" fill="#455A64"/>
<path d="M28.5947 156.737C28.5565 156.738 28.5186 156.73 28.4846 156.713C28.4506 156.697 28.4215 156.673 28.4001 156.643C28.3644 156.595 28.35 156.535 28.3601 156.477C28.3703 156.419 28.4041 156.367 28.4544 156.332C28.8701 156.086 29.3445 155.942 29.8344 155.913C30.3243 155.884 30.8141 155.971 31.2592 156.166C31.2889 156.178 31.3159 156.195 31.3386 156.216C31.3612 156.238 31.3792 156.263 31.3913 156.292C31.4035 156.32 31.4097 156.35 31.4096 156.38C31.4094 156.41 31.4029 156.44 31.3904 156.468C31.3779 156.496 31.3597 156.522 31.3368 156.543C31.314 156.564 31.2868 156.581 31.257 156.593C31.2272 156.604 31.1952 156.61 31.163 156.61C31.1308 156.61 31.0989 156.604 31.0692 156.592C30.6979 156.43 30.2898 156.356 29.8811 156.378C29.4724 156.399 29.0757 156.515 28.7259 156.715C28.6852 156.734 28.6397 156.741 28.5947 156.737Z" fill="#EBEBEB"/>
<path d="M28.9837 158.312C28.9458 158.312 28.9085 158.303 28.8747 158.287C28.841 158.271 28.8117 158.247 28.7892 158.218C28.7539 158.17 28.7402 158.11 28.7512 158.052C28.7622 157.994 28.797 157.942 28.848 157.908C29.2631 157.661 29.7373 157.516 30.2273 157.486C30.7173 157.456 31.2075 157.543 31.6528 157.737C31.7102 157.762 31.7551 157.807 31.7779 157.863C31.8006 157.919 31.7996 157.98 31.7749 158.035C31.7484 158.089 31.7002 158.131 31.6408 158.152C31.5815 158.173 31.5159 158.171 31.4583 158.146C31.0879 157.983 30.6805 157.909 30.2724 157.931C29.8642 157.952 29.4681 158.069 29.1194 158.27C29.0808 158.298 29.0328 158.313 28.9837 158.312Z" fill="#EBEBEB"/>
<path d="M29.5944 159.866C29.5563 159.867 29.5186 159.859 29.4847 159.843C29.4507 159.826 29.4216 159.802 29.3999 159.773C29.3646 159.724 29.351 159.664 29.362 159.606C29.373 159.548 29.4077 159.496 29.4587 159.462C29.8744 159.216 30.3488 159.072 30.8387 159.043C31.3286 159.014 31.8184 159.101 32.2635 159.296C32.2922 159.307 32.3181 159.324 32.3398 159.345C32.3615 159.366 32.3786 159.391 32.3899 159.419C32.4013 159.446 32.4068 159.475 32.406 159.505C32.4053 159.534 32.3984 159.563 32.3857 159.59C32.359 159.643 32.3119 159.684 32.2538 159.705C32.1958 159.727 32.1313 159.727 32.0735 159.705C31.7021 159.543 31.2941 159.47 30.8855 159.491C30.4768 159.513 30.0801 159.628 29.7302 159.828C29.6901 159.853 29.6428 159.867 29.5944 159.866Z" fill="#EBEBEB"/>
<path d="M41.3791 151.984C41.8474 152.281 42.4032 152.43 42.967 152.41C42.967 152.41 42.7001 151.427 43.4736 151.094C44.2472 150.762 45.4822 150.324 45.7356 150.72C45.9142 151.173 46.0121 151.65 46.0251 152.133C46.0251 152.133 47.8663 153.705 49.2325 154.148C50.5987 154.59 52.3992 155.042 52.2273 156.23C52.0554 157.418 50.0197 159.138 47.2511 157.954C44.4825 156.771 43.9848 156.728 43.0982 156.6C42.2115 156.473 40.5603 156.541 40.6281 155.148C40.696 153.756 40.5693 151.452 41.3067 151.265L41.3791 151.984Z" fill="#455A64"/>
<path d="M44.5503 154.114C44.5233 154.118 44.4959 154.118 44.4689 154.114C44.4099 154.093 44.3616 154.052 44.3346 153.999C44.3075 153.945 44.3037 153.884 44.3241 153.828C44.5058 153.429 44.7981 153.082 45.1705 152.825C45.5429 152.568 45.9818 152.41 46.4413 152.368C46.493 152.374 46.541 152.397 46.5776 152.432C46.6143 152.467 46.6376 152.512 46.6438 152.561C46.65 152.61 46.6388 152.659 46.612 152.701C46.5852 152.743 46.5442 152.776 46.4956 152.793C46.1238 152.827 45.7684 152.954 45.4655 153.16C45.1627 153.365 44.9233 153.643 44.772 153.965C44.7549 154.007 44.7248 154.044 44.6853 154.071C44.6458 154.097 44.5988 154.112 44.5503 154.114Z" fill="#EBEBEB"/>
<path d="M45.9618 154.991H45.8848C45.8554 154.982 45.8282 154.967 45.8049 154.948C45.7816 154.929 45.7626 154.905 45.7491 154.879C45.7356 154.853 45.7279 154.824 45.7263 154.795C45.7248 154.766 45.7294 154.737 45.7401 154.71C45.9058 154.311 46.1852 153.963 46.5475 153.703C46.9099 153.444 47.3412 153.284 47.7939 153.241C47.8459 153.247 47.8944 153.268 47.9317 153.303C47.9689 153.338 47.9928 153.383 47.9995 153.432C48.0063 153.481 47.9955 153.531 47.9689 153.573C47.9423 153.616 47.9014 153.648 47.8527 153.667C47.4897 153.703 47.1438 153.831 46.8509 154.036C46.5581 154.241 46.3292 154.516 46.1879 154.833C46.1727 154.879 46.1426 154.918 46.102 154.947C46.0614 154.975 46.0123 154.99 45.9618 154.991Z" fill="#EBEBEB"/>
<path d="M47.7442 155.685H47.6899C47.6285 155.674 47.5742 155.64 47.5387 155.592C47.5032 155.543 47.4893 155.483 47.4999 155.425C47.5857 155.008 47.8299 154.634 48.1869 154.373C48.5439 154.112 48.9895 153.982 49.4406 154.007C49.5034 154.009 49.5628 154.035 49.6059 154.078C49.6491 154.121 49.6726 154.178 49.6713 154.237C49.6714 154.267 49.665 154.296 49.6526 154.323C49.6401 154.351 49.6219 154.375 49.599 154.395C49.5761 154.416 49.5491 154.432 49.5195 154.442C49.4899 154.452 49.4585 154.456 49.427 154.454C49.0899 154.435 48.7568 154.531 48.4885 154.724C48.2203 154.917 48.0347 155.195 47.9658 155.506C47.955 155.555 47.9273 155.599 47.8873 155.631C47.8472 155.663 47.7969 155.682 47.7442 155.685Z" fill="#EBEBEB"/>
<path d="M79.1352 16.19L75.2854 18.2509V16.9735C75.2854 16.8798 75.2854 16.7904 75.2854 16.7009C75.2854 16.6115 75.2854 16.5264 75.2854 16.4412V16.4114C75.1452 14.7081 73.779 14.0609 72.1187 14.9679C71.3637 15.4002 70.717 15.9812 70.2232 16.6711C69.8568 14.3845 67.8482 13.5328 65.4325 14.8486C62.7453 16.3092 60.5693 19.8563 60.5693 22.7732V25.5197C60.5695 25.737 60.509 25.9505 60.3939 26.1389C60.2788 26.3272 60.113 26.4838 59.9134 26.5928L57.6514 27.8447C57.1603 28.1151 56.7532 28.5019 56.4706 28.9667C56.188 29.4314 56.0399 29.9578 56.0409 30.4933C56.0453 30.7134 56.11 30.9288 56.2289 31.1184C56.3477 31.3081 56.5166 31.4656 56.7191 31.5757C56.9217 31.6858 57.151 31.7448 57.3849 31.7469C57.6188 31.749 57.8493 31.6941 58.054 31.5877L79.0764 20.1586C79.6324 19.856 80.0945 19.4216 80.4167 18.8986C80.739 18.3757 80.9101 17.7824 80.9131 17.1779C80.9158 16.9807 80.8631 16.7863 80.7605 16.6145C80.6578 16.4426 80.5087 16.2993 80.3283 16.199C80.1479 16.0988 79.9425 16.0452 79.733 16.0436C79.5236 16.042 79.3173 16.0925 79.1352 16.19Z" fill="#E6E6E6"/>
<path d="M44.2201 20.4482L41.3565 21.9727V21.0231C41.3565 20.955 41.3565 20.8868 41.3565 20.823C41.3565 20.7591 41.3565 20.6909 41.3565 20.6313C41.2524 19.3539 40.2436 18.894 39.0086 19.5625C38.4496 19.8877 37.9726 20.3237 37.6107 20.84C37.3302 19.1367 35.8509 18.5193 34.064 19.4901C33.0131 20.1304 32.1375 20.9952 31.5086 22.0141C30.8798 23.033 30.5153 24.1772 30.4449 25.3537V27.3849C30.445 27.5452 30.4003 27.7028 30.3154 27.8418C30.2304 27.9808 30.1082 28.0963 29.9609 28.1769L28.287 29.1009C27.9236 29.3019 27.6222 29.5888 27.4127 29.9331C27.2033 30.2774 27.093 30.6672 27.0927 31.064C27.0932 31.2282 27.1394 31.3895 27.227 31.5316C27.3145 31.6737 27.4402 31.7916 27.5914 31.8736C27.7426 31.9556 27.9141 31.9986 28.0886 31.9985C28.2631 31.9984 28.4345 31.9552 28.5856 31.873L44.1386 23.4162C44.5515 23.1918 44.8943 22.869 45.1326 22.4803C45.3708 22.0916 45.4961 21.6507 45.4958 21.2019C45.4918 21.0617 45.451 20.9246 45.3772 20.8027C45.3033 20.6809 45.1986 20.5781 45.0724 20.5035C44.9461 20.429 44.8023 20.3849 44.6536 20.3752C44.5049 20.3656 44.356 20.3907 44.2201 20.4482Z" fill="#E6E6E6"/>
</svg>
